STARTFONT 2.1
FONT -ADECW-Heiti-Medium-R-Normal--16-160-75-75-M-160-GB2312.1980-1
SIZE 16 75 75
FONTBOUNDINGBOX 16 16 0 -4

STARTPROPERTIES 26
FONTNAME_REGISTRY ""
FAMILY_NAME "Heiti"
FOUNDRY "ADECW"
WEIGHT_NAME "Medium"
SLANT "R"
SETWIDTH_NAME "Normal"
ADD_STYLE_NAME ""
PIXEL_SIZE 16
POINT_SIZE 160
RESOLUTION_X 75
RESOLUTION_Y 75
SPACING "M"
AVERAGE_WIDTH 160
CHARSET_REGISTRY "GB2312.1980"
CHARSET_ENCODING "1"
DEVICE_FONT_NAME "Heiti-GB2312.1980-1"
CHARSET_COLLECTIONS "GB2312.1980 1"
FULL_NAME "Heiti GB2312.1980 1"
COPYRIGHT "Copyright (c) 1988 Digital Equipment Corporation Asia"
CAP_HEIGHT 11
X_HEIGHT 8
WEIGHT 10
QUAD_WIDTH 16
DEFAULT_CHAR 65021
FONT_DESCENT 4
FONT_ASCENT 12
ENDPROPERTIES

CHARS 7447

STARTCHAR A1A1
ENCODING 41377
SWIDTH 960 0
DWIDTH 16 0
BBX 16 16 0 -4
BITMAP
0000
0000
0000
0000
0000
0000
0000
0000
0000
0000
0000
0000
0000
0000
0000
0000
ENDCHAR

STARTCHAR A1A2
ENCODING 41378
SWIDTH 960 0
DWIDTH 16 0
BBX 16 16 0 -4
BITMAP
0000
0000
0000
0000
0000
0000
0000
0000
0000
0000
0000
0000
6000
3000
1000
0000
ENDCHAR

STARTCHAR A1A3
ENCODING 41379
SWIDTH 960 0
DWIDTH 16 0
BBX 16 16 0 -4
BITMAP
0000
0000
0000
0000
0000
0000
0000
0000
0000
0000
0000
0000
2000
5000
2000
0000
ENDCHAR

STARTCHAR A1A4
ENCODING 41380
SWIDTH 960 0
DWIDTH 16 0
BBX 16 16 0 -4
BITMAP
0000
0000
0000
0000
0000
0000
0000
0000
0600
0600
0000
0000
0000
0000
0000
0000
ENDCHAR

STARTCHAR A1A5
ENCODING 41381
SWIDTH 960 0
DWIDTH 16 0
BBX 16 16 0 -4
BITMAP
0000
0000
0000
0000
07C0
0000
0000
0000
0000
0000
0000
0000
0000
0000
0000
0000
ENDCHAR

STARTCHAR A1A6
ENCODING 41382
SWIDTH 960 0
DWIDTH 16 0
BBX 16 16 0 -4
BITMAP
0000
0000
0820
0820
0440
0440
0280
0280
0100
0000
0000
0000
0000
0000
0000
0000
ENDCHAR

STARTCHAR A1A7
ENCODING 41383
SWIDTH 960 0
DWIDTH 16 0
BBX 16 16 0 -4
BITMAP
0000
0000
0000
0000
0C60
0C60
0000
0000
0000
0000
0000
0000
0000
0000
0000
0000
ENDCHAR

STARTCHAR A1A8
ENCODING 41384
SWIDTH 960 0
DWIDTH 16 0
BBX 16 16 0 -4
BITMAP
0000
0000
0000
0000
0000
0240
0240
0480
0480
0900
0900
1200
2400
0000
0000
0000
ENDCHAR

STARTCHAR A1A9
ENCODING 41385
SWIDTH 960 0
DWIDTH 16 0
BBX 16 16 0 -4
BITMAP
0000
0000
0400
0400
0800
0800
1FFC
2004
4008
0008
0410
0220
0140
0080
0040
0020
ENDCHAR

STARTCHAR A1AA
ENCODING 41386
SWIDTH 960 0
DWIDTH 16 0
BBX 16 16 0 -4
BITMAP
0000
0000
0000
0000
0000
0000
0000
0000
7FFE
0000
0000
0000
0000
0000
0000
0000
ENDCHAR

STARTCHAR A1AB
ENCODING 41387
SWIDTH 960 0
DWIDTH 16 0
BBX 16 16 0 -4
BITMAP
0000
0000
0000
0000
0000
0000
0000
0000
3F02
40FC
0000
0000
0000
0000
0000
0000
ENDCHAR

STARTCHAR A1AC
ENCODING 41388
SWIDTH 960 0
DWIDTH 16 0
BBX 16 16 0 -4
BITMAP
0000
0280
0280
0280
0280
0280
0280
0280
0280
0280
0280
0280
0280
0280
0280
0280
ENDCHAR

STARTCHAR A1AD
ENCODING 41389
SWIDTH 960 0
DWIDTH 16 0
BBX 16 16 0 -4
BITMAP
0000
0000
0000
0000
0000
0000
0000
318C
318C
0000
0000
0000
0000
0000
0000
0000
ENDCHAR

STARTCHAR A1AE
ENCODING 41390
SWIDTH 960 0
DWIDTH 16 0
BBX 16 16 0 -4
BITMAP
0000
0000
0001
0002
0004
0006
0006
0000
0000
0000
0000
0000
0000
0000
0000
0000
ENDCHAR

STARTCHAR A1AF
ENCODING 41391
SWIDTH 960 0
DWIDTH 16 0
BBX 16 16 0 -4
BITMAP
0000
0000
6000
6000
2000
4000
8000
0000
0000
0000
0000
0000
0000
0000
0000
0000
ENDCHAR

STARTCHAR A1B0
ENCODING 41392
SWIDTH 960 0
DWIDTH 16 0
BBX 16 16 0 -4
BITMAP
0000
0000
0022
0044
0088
00CC
00CC
0000
0000
0000
0000
0000
0000
0000
0000
0000
ENDCHAR

STARTCHAR A1B1
ENCODING 41393
SWIDTH 960 0
DWIDTH 16 0
BBX 16 16 0 -4
BITMAP
0000
0000
00CC
00CC
0044
0088
0110
0000
0000
0000
0000
0000
0000
0000
0000
0000
ENDCHAR

STARTCHAR A1B2
ENCODING 41394
SWIDTH 960 0
DWIDTH 16 0
BBX 16 16 0 -4
BITMAP
0000
0000
0002
0004
0008
0008
0008
0008
0008
0008
0008
0008
0008
0008
0004
0002
ENDCHAR

STARTCHAR A1B3
ENCODING 41395
SWIDTH 960 0
DWIDTH 16 0
BBX 16 16 0 -4
BITMAP
0000
0000
4000
2000
1000
1000
1000
1000
1000
1000
1000
1000
1000
1000
2000
4000
ENDCHAR

STARTCHAR A1B4
ENCODING 41396
SWIDTH 960 0
DWIDTH 16 0
BBX 16 16 0 -4
BITMAP
0000
0000
0002
0004
0008
0010
0020
0040
0080
0040
0020
0010
0008
0004
0002
0000
ENDCHAR

STARTCHAR A1B5
ENCODING 41397
SWIDTH 960 0
DWIDTH 16 0
BBX 16 16 0 -4
BITMAP
0000
0000
8000
4000
2000
1000
0800
0400
0200
0400
0800
1000
2000
4000
8000
0000
ENDCHAR

STARTCHAR A1B6
ENCODING 41398
SWIDTH 960 0
DWIDTH 16 0
BBX 16 16 0 -4
BITMAP
0000
0004
0008
0012
0024
0048
0090
0120
0240
0120
0090
0048
0024
0012
0008
0004
ENDCHAR

STARTCHAR A1B7
ENCODING 41399
SWIDTH 960 0
DWIDTH 16 0
BBX 16 16 0 -4
BITMAP
0000
2000
1000
4800
2400
1200
0900
0480
0240
0480
0900
1200
2400
4800
1000
2000
ENDCHAR

STARTCHAR A1B8
ENCODING 41400
SWIDTH 960 0
DWIDTH 16 0
BBX 16 16 0 -4
BITMAP
0000
0000
01C0
0100
0100
0100
0100
0100
0100
0100
0100
0100
0100
0100
0100
0000
ENDCHAR

STARTCHAR A1B9
ENCODING 41401
SWIDTH 960 0
DWIDTH 16 0
BBX 16 16 0 -4
BITMAP
0000
0000
0100
0100
0100
0100
0100
0100
0100
0100
0100
0100
0100
0100
0700
0000
ENDCHAR

STARTCHAR A1BA
ENCODING 41402
SWIDTH 960 0
DWIDTH 16 0
BBX 16 16 0 -4
BITMAP
0000
0000
07C0
0440
05C0
0500
0500
0500
0500
0500
0500
0500
0500
0500
0700
0000
ENDCHAR

STARTCHAR A1BB
ENCODING 41403
SWIDTH 960 0
DWIDTH 16 0
BBX 16 16 0 -4
BITMAP
0000
0000
00E0
00A0
00A0
00A0
00A0
00A0
00A0
00A0
00A0
00A0
03A0
0220
03E0
0000
ENDCHAR

STARTCHAR A1BC
ENCODING 41404
SWIDTH 960 0
DWIDTH 16 0
BBX 16 16 0 -4
BITMAP
0000
0000
007F
0042
0044
0044
0048
0048
0048
0048
0048
0048
0044
0044
0042
007F
ENDCHAR

STARTCHAR A1BD
ENCODING 41405
SWIDTH 960 0
DWIDTH 16 0
BBX 16 16 0 -4
BITMAP
0000
0000
FE00
4200
2200
2200
1200
1200
1200
1200
1200
1200
2200
2200
4200
FE00
ENDCHAR

STARTCHAR A1BE
ENCODING 41406
SWIDTH 960 0
DWIDTH 16 0
BBX 16 16 0 -4
BITMAP
0000
0000
007F
007E
007C
0078
0078
0070
0070
0070
0070
0078
0078
007C
007E
007F
ENDCHAR

STARTCHAR A1BF
ENCODING 41407
SWIDTH 960 0
DWIDTH 16 0
BBX 16 16 0 -4
BITMAP
0000
0000
FE00
7E00
3E00
1E00
1E00
0E00
0E00
0E00
0E00
1E00
1E00
3E00
7E00
FE00
ENDCHAR

STARTCHAR A1C0
ENCODING 41408
SWIDTH 960 0
DWIDTH 16 0
BBX 16 16 0 -4
BITMAP
0000
0000
0000
0000
0100
0100
0100
0FE0
0100
0100
0100
0000
0FE0
0000
0000
0000
ENDCHAR

STARTCHAR A1C1
ENCODING 41409
SWIDTH 960 0
DWIDTH 16 0
BBX 16 16 0 -4
BITMAP
0000
0000
0000
0000
1008
0810
0420
0240
0180
0180
0240
0420
0810
1008
0000
0000
ENDCHAR

STARTCHAR A1C2
ENCODING 41410
SWIDTH 960 0
DWIDTH 16 0
BBX 16 16 0 -4
BITMAP
0000
0000
0000
0000
0000
0000
0100
0000
1FF0
0000
0100
0000
0000
0000
0000
0000
ENDCHAR

STARTCHAR A1C3
ENCODING 41411
SWIDTH 960 0
DWIDTH 16 0
BBX 16 16 0 -4
BITMAP
0000
0000
0000
0000
0000
0600
0600
0000
0000
0000
0600
0600
0000
0000
0000
0000
ENDCHAR

STARTCHAR A1C4
ENCODING 41412
SWIDTH 960 0
DWIDTH 16 0
BBX 16 16 0 -4
BITMAP
0000
0100
0100
0280
0280
0440
0440
0820
0820
0820
1010
1010
2008
2008
4004
4004
ENDCHAR

STARTCHAR A1C5
ENCODING 41413
SWIDTH 960 0
DWIDTH 16 0
BBX 16 16 0 -4
BITMAP
0000
0000
4004
4004
2008
2008
1010
1010
0820
0820
0440
0440
0280
0280
0100
0100
ENDCHAR

STARTCHAR A1C6
ENCODING 41414
SWIDTH 960 0
DWIDTH 16 0
BBX 16 16 0 -4
BITMAP
0000
0000
7FFE
2002
1002
0800
0400
0200
0100
0200
0400
0800
1002
2002
7FFE
0000
ENDCHAR

STARTCHAR A1C7
ENCODING 41415
SWIDTH 960 0
DWIDTH 16 0
BBX 16 16 0 -4
BITMAP
0000
0000
3FFC
1008
1008
1008
1008
1008
1008
1008
1008
1008
1008
1008
1008
781E
ENDCHAR

STARTCHAR A1C8
ENCODING 41416
SWIDTH 960 0
DWIDTH 16 0
BBX 16 16 0 -4
BITMAP
0000
0000
2008
2008
2008
2008
2008
2008
2008
2008
2008
2008
2008
1010
0820
07C0
ENDCHAR

STARTCHAR A1C9
ENCODING 41417
SWIDTH 960 0
DWIDTH 16 0
BBX 16 16 0 -4
BITMAP
0000
0000
07C0
0820
1010
2008
2008
2008
2008
2008
2008
2008
2008
2008
2008
2008
ENDCHAR

STARTCHAR A1CA
ENCODING 41418
SWIDTH 960 0
DWIDTH 16 0
BBX 16 16 0 -4
BITMAP
0000
0000
0F00
1000
2000
4000
4000
4000
7F00
4000
4000
4000
4000
2000
1000
0F00
ENDCHAR

STARTCHAR A1CB
ENCODING 41419
SWIDTH 960 0
DWIDTH 16 0
BBX 16 16 0 -4
BITMAP
0000
0000
0000
0000
1818
1818
0000
0000
0000
0000
0000
1818
1818
0000
0000
0000
ENDCHAR

STARTCHAR A1CC
ENCODING 41420
SWIDTH 960 0
DWIDTH 16 0
BBX 16 16 0 -4
BITMAP
0000
0000
0000
0000
0001
0002
0004
0008
0010
0020
0040
0080
1100
0A00
0400
0000
ENDCHAR

STARTCHAR A1CD
ENCODING 41421
SWIDTH 960 0
DWIDTH 16 0
BBX 16 16 0 -4
BITMAP
0000
0000
0100
0100
0100
0100
0100
0100
0100
0100
0100
0100
0100
0100
0100
1FF0
ENDCHAR

STARTCHAR A1CE
ENCODING 41422
SWIDTH 960 0
DWIDTH 16 0
BBX 16 16 0 -4
BITMAP
0000
0240
0240
0240
0240
0240
0240
0480
0480
0480
0480
0480
0900
0900
0900
0900
ENDCHAR

STARTCHAR A1CF
ENCODING 41423
SWIDTH 960 0
DWIDTH 16 0
BBX 16 16 0 -4
BITMAP
0000
0000
0002
0004
0008
0010
0020
0040
0080
0100
0200
0400
0800
1000
2000
7FFE
ENDCHAR

STARTCHAR A1D0
ENCODING 41424
SWIDTH 960 0
DWIDTH 16 0
BBX 16 16 0 -4
BITMAP
0000
0000
0000
0000
0780
1860
2010
2010
4008
4008
4008
0000
0000
0000
0000
0000
ENDCHAR

STARTCHAR A1D1
ENCODING 41425
SWIDTH 960 0
DWIDTH 16 0
BBX 16 16 0 -4
BITMAP
0000
0000
0000
0780
1860
2010
2010
4008
4308
4308
4008
2010
2010
1860
0780
0000
ENDCHAR

STARTCHAR A1D2
ENCODING 41426
SWIDTH 960 0
DWIDTH 16 0
BBX 16 16 0 -4
BITMAP
0000
0000
0060
0080
0080
0080
0080
0080
0080
0080
0080
0080
0080
0080
0080
0300
ENDCHAR

STARTCHAR A1D3
ENCODING 41427
SWIDTH 960 0
DWIDTH 16 0
BBX 16 16 0 -4
BITMAP
0000
0030
0048
0040
0080
0080
03C0
04A0
04A0
0520
0520
03C0
0100
0100
0200
1200
ENDCHAR

STARTCHAR A1D4
ENCODING 41428
SWIDTH 960 0
DWIDTH 16 0
BBX 16 16 0 -4
BITMAP
0000
0000
0000
0000
0000
0000
7FFE
0000
7FFE
0000
7FFE
0000
0000
0000
0000
0000
ENDCHAR

STARTCHAR A1D5
ENCODING 41429
SWIDTH 960 0
DWIDTH 16 0
BBX 16 16 0 -4
BITMAP
0000
0000
0000
1870
2088
4104
4104
4204
2208
1C30
0000
7FFE
0000
7FFE
0000
0000
ENDCHAR

STARTCHAR A1D6
ENCODING 41430
SWIDTH 960 0
DWIDTH 16 0
BBX 16 16 0 -4
BITMAP
0000
0000
0000
0000
0000
0000
3804
4708
00F0
3804
4708
00F0
0000
0000
0000
0000
ENDCHAR

STARTCHAR A1D7
ENCODING 41431
SWIDTH 960 0
DWIDTH 16 0
BBX 16 16 0 -4
BITMAP
0000
0000
0000
0000
0000
3878
4084
4102
8102
8102
4102
4204
3C38
0000
0000
0000
ENDCHAR

STARTCHAR A1D8
ENCODING 41432
SWIDTH 960 0
DWIDTH 16 0
BBX 16 16 0 -4
BITMAP
0000
0000
0000
0000
0000
3C7F
4280
4100
8100
8100
4100
4280
3C7F
0000
0000
0000
ENDCHAR

STARTCHAR A1D9
ENCODING 41433
SWIDTH 960 0
DWIDTH 16 0
BBX 16 16 0 -4
BITMAP
0000
0010
0020
0020
0040
0040
7FFE
0080
0100
0200
7FFE
0400
0400
0800
1000
1000
ENDCHAR

STARTCHAR A1DA
ENCODING 41434
SWIDTH 960 0
DWIDTH 16 0
BBX 16 16 0 -4
BITMAP
0000
0000
020C
0230
02C0
0300
0E00
3200
4200
3200
0E00
0300
02C0
0230
020C
0000
ENDCHAR

STARTCHAR A1DB
ENCODING 41435
SWIDTH 960 0
DWIDTH 16 0
BBX 16 16 0 -4
BITMAP
0000
0000
3040
0C40
0340
00C0
0070
004C
0042
004C
0070
00C0
0340
0C40
3040
0000
ENDCHAR

STARTCHAR A1DC
ENCODING 41436
SWIDTH 960 0
DWIDTH 16 0
BBX 16 16 0 -4
BITMAP
0000
000C
0030
00C0
0300
0C00
3000
4000
3000
4C00
3300
0CC0
0330
00CC
0030
000C
ENDCHAR

STARTCHAR A1DD
ENCODING 41437
SWIDTH 960 0
DWIDTH 16 0
BBX 16 16 0 -4
BITMAP
0000
3000
0C00
0300
00C0
0030
000C
0002
000C
0032
00CC
0330
0CC0
3300
0C00
3000
ENDCHAR

STARTCHAR A1DE
ENCODING 41438
SWIDTH 960 0
DWIDTH 16 0
BBX 16 16 0 -4
BITMAP
0000
0000
0000
0000
0000
3C78
4284
8102
8102
8102
4284
3C78
0000
0000
0000
0000
ENDCHAR

STARTCHAR A1DF
ENCODING 41439
SWIDTH 960 0
DWIDTH 16 0
BBX 16 16 0 -4
BITMAP
0000
0000
0000
0000
3018
3018
0000
0000
0000
0000
0000
0000
0180
0180
0000
0000
ENDCHAR

STARTCHAR A1E0
ENCODING 41440
SWIDTH 960 0
DWIDTH 16 0
BBX 16 16 0 -4
BITMAP
0000
0000
0000
0000
0300
0300
0000
0000
0000
0000
0000
0000
1818
1818
0000
0000
ENDCHAR

STARTCHAR A1E1
ENCODING 41441
SWIDTH 960 0
DWIDTH 16 0
BBX 16 16 0 -4
BITMAP
0000
0000
0100
0380
0540
0920
1110
0100
0100
0100
0100
0380
0440
0440
0440
0380
ENDCHAR

STARTCHAR A1E2
ENCODING 41442
SWIDTH 960 0
DWIDTH 16 0
BBX 16 16 0 -4
BITMAP
0000
0000
0380
0440
0440
0440
0380
0100
0100
3FFC
0100
0100
0100
0100
0100
0100
ENDCHAR

STARTCHAR A1E3
ENCODING 41443
SWIDTH 960 0
DWIDTH 16 0
BBX 16 16 0 -4
BITMAP
0000
0000
0000
0180
0240
0240
0180
0000
0000
0000
0000
0000
0000
0000
0000
0000
ENDCHAR

STARTCHAR A1E4
ENCODING 41444
SWIDTH 960 0
DWIDTH 16 0
BBX 16 16 0 -4
BITMAP
0000
0000
0200
0200
0200
0400
0400
0400
0800
0000
0000
0000
0000
0000
0000
0000
ENDCHAR

STARTCHAR A1E5
ENCODING 41445
SWIDTH 960 0
DWIDTH 16 0
BBX 16 16 0 -4
BITMAP
0000
0000
0420
0420
0420
0840
0840
0840
1080
0000
0000
0000
0000
0000
0000
0000
ENDCHAR

STARTCHAR A1E6
ENCODING 41446
SWIDTH 960 0
DWIDTH 16 0
BBX 16 16 0 -4
BITMAP
0000
2000
53F8
2404
0802
0802
1000
1000
1000
1000
1000
1000
0804
0804
0408
03F0
ENDCHAR

STARTCHAR A1E7
ENCODING 41447
SWIDTH 960 0
DWIDTH 16 0
BBX 16 16 0 -4
BITMAP
0000
0080
07FA
0886
1082
1082
1080
0880
0780
00F8
0084
0082
4082
4082
6082
5FFC
ENDCHAR

STARTCHAR A1E8
ENCODING 41448
SWIDTH 960 0
DWIDTH 16 0
BBX 16 16 0 -4
BITMAP
0000
0000
4001
27F2
180C
1004
2002
2002
2002
2002
2002
2002
1004
180C
27F2
4001
ENDCHAR

STARTCHAR A1E9
ENCODING 41449
SWIDTH 960 0
DWIDTH 16 0
BBX 16 16 0 -4
BITMAP
0000
0040
0040
0FF0
108A
2086
4102
4100
4100
4200
4200
4200
4402
2404
1808
0FF0
ENDCHAR

STARTCHAR A1EA
ENCODING 41450
SWIDTH 960 0
DWIDTH 16 0
BBX 16 16 0 -4
BITMAP
0000
01C0
0220
0220
0200
0200
0200
3FE0
0200
0200
0200
3A00
4600
4202
4502
38FC
ENDCHAR

STARTCHAR A1EB
ENCODING 41451
SWIDTH 960 0
DWIDTH 16 0
BBX 16 16 0 -4
BITMAP
0000
0004
3008
4810
4820
4840
4880
3100
0200
04C6
0929
1129
2129
4129
00C6
0000
ENDCHAR

STARTCHAR A1EC
ENCODING 41452
SWIDTH 960 0
DWIDTH 16 0
BBX 16 16 0 -4
BITMAP
0000
0780
0840
08C0
0400
0200
0300
0480
0840
0840
0580
0200
0100
0080
0C40
0840
ENDCHAR

STARTCHAR A1ED
ENCODING 41453
SWIDTH 960 0
DWIDTH 16 0
BBX 16 16 0 -4
BITMAP
0000
6080
3140
3100
2900
290C
2912
2512
2512
2312
2312
2112
2112
210C
2100
A17F
ENDCHAR

STARTCHAR A1EE
ENCODING 41454
SWIDTH 960 0
DWIDTH 16 0
BBX 16 16 0 -4
BITMAP
0000
0100
0100
0280
0280
0280
0440
FC7E
4004
3018
0820
0820
1190
1650
1830
2008
ENDCHAR

STARTCHAR A1EF
ENCODING 41455
SWIDTH 960 0
DWIDTH 16 0
BBX 16 16 0 -4
BITMAP
0000
0080
0080
01C0
01C0
01C0
03E0
FFFF
3FFC
1FF8
0FF0
0FF0
1FF8
1E78
1818
2004
ENDCHAR

STARTCHAR A1F0
ENCODING 41456
SWIDTH 960 0
DWIDTH 16 0
BBX 16 16 0 -4
BITMAP
0000
0000
07C0
1830
2008
2008
4004
4004
4004
4004
4004
2008
2008
1830
07C0
0000
ENDCHAR

STARTCHAR A1F1
ENCODING 41457
SWIDTH 960 0
DWIDTH 16 0
BBX 16 16 0 -4
BITMAP
0000
0000
07C0
1FF0
3FF8
3FF8
7FFC
7FFC
7FFC
7FFC
7FFC
3FF8
3FF8
1FF0
07E0
0000
ENDCHAR

STARTCHAR A1F2
ENCODING 41458
SWIDTH 960 0
DWIDTH 16 0
BBX 16 16 0 -4
BITMAP
0000
0000
07C0
1830
27C8
2828
5014
5014
5014
5014
5014
2828
27C8
1830
07C0
0000
ENDCHAR

STARTCHAR A1F3
ENCODING 41459
SWIDTH 960 0
DWIDTH 16 0
BBX 16 16 0 -4
BITMAP
0000
0080
0140
0220
0410
0808
1004
2002
4001
8002
4004
2008
1010
0820
0440
0280
ENDCHAR

STARTCHAR A1F4
ENCODING 41460
SWIDTH 960 0
DWIDTH 16 0
BBX 16 16 0 -4
BITMAP
0000
0100
0380
07C0
0FE0
1FF0
3FF8
7FFC
FFFE
7FFC
3FF8
1FF0
0FE0
07C0
0380
0100
ENDCHAR

STARTCHAR A1F5
ENCODING 41461
SWIDTH 960 0
DWIDTH 16 0
BBX 16 16 0 -4
BITMAP
0000
0000
7FFE
4002
4002
4002
4002
4002
4002
4002
4002
4002
4002
4002
4002
7FFE
ENDCHAR

STARTCHAR A1F6
ENCODING 41462
SWIDTH 960 0
DWIDTH 16 0
BBX 16 16 0 -4
BITMAP
0000
0000
7FFE
7FFE
7FFE
7FFE
7FFE
7FFE
7FFE
7FFE
7FFE
7FFE
7FFE
7FFE
7FFE
7FFE
ENDCHAR

STARTCHAR A1F7
ENCODING 41463
SWIDTH 960 0
DWIDTH 16 0
BBX 16 16 0 -4
BITMAP
0000
0000
0100
0280
0440
0440
0820
0820
1010
1010
2008
2008
4004
4004
FFFE
0000
ENDCHAR

STARTCHAR A1F8
ENCODING 41464
SWIDTH 960 0
DWIDTH 16 0
BBX 16 16 0 -4
BITMAP
0000
0000
0100
0380
07C0
07C0
0FE0
0FE0
1FF0
1FF0
3FF8
3FF8
7FFC
7FFC
FFFE
0000
ENDCHAR

STARTCHAR A1F9
ENCODING 41465
SWIDTH 960 0
DWIDTH 16 0
BBX 16 16 0 -4
BITMAP
0000
0000
4182
2184
1008
0810
0420
0246
0186
6180
6240
0420
0810
1188
2184
4002
ENDCHAR

STARTCHAR A1FA
ENCODING 41466
SWIDTH 960 0
DWIDTH 16 0
BBX 16 16 0 -4
BITMAP
0000
0000
0000
0000
0000
0000
0010
001C
FFFF
001C
0010
0000
0000
0000
0000
0000
ENDCHAR

STARTCHAR A1FB
ENCODING 41467
SWIDTH 960 0
DWIDTH 16 0
BBX 16 16 0 -4
BITMAP
0000
0000
0000
0000
0000
0000
0800
3800
FFFF
3800
0800
0000
0000
0000
0000
0000
ENDCHAR

STARTCHAR A1FC
ENCODING 41468
SWIDTH 960 0
DWIDTH 16 0
BBX 16 16 0 -4
BITMAP
0000
0100
0100
0380
0380
07C0
0100
0100
0100
0100
0100
0100
0100
0100
0100
0100
ENDCHAR

STARTCHAR A1FD
ENCODING 41469
SWIDTH 960 0
DWIDTH 16 0
BBX 16 16 0 -4
BITMAP
0000
0100
0100
0100
0100
0100
0100
0100
0100
0100
0100
0100
07C0
0380
0380
0100
ENDCHAR

STARTCHAR A1FE
ENCODING 41470
SWIDTH 960 0
DWIDTH 16 0
BBX 16 16 0 -4
BITMAP
0000
0000
0000
0000
FFFF
FFFF
FFFF
0000
0000
0000
FFFF
FFFF
FFFF
0000
0000
0000
ENDCHAR

STARTCHAR A2B0
ENCODING 41648
SWIDTH 960 0
DWIDTH 16 0
BBX 16 16 0 -4
BITMAP
0000
0000
0380
0440
0820
0820
0800
0400
0200
0100
0100
0000
0000
0100
0100
0000
ENDCHAR

STARTCHAR A2B1
ENCODING 41649
SWIDTH 960 0
DWIDTH 16 0
BBX 16 16 0 -4
BITMAP
0000
0000
0100
0100
0100
0100
0100
0100
0100
0100
0100
0100
0100
0100
0100
0104
ENDCHAR

STARTCHAR A2B2
ENCODING 41650
SWIDTH 960 0
DWIDTH 16 0
BBX 16 16 0 -4
BITMAP
0000
0000
0F00
1080
1080
0080
0080
0080
0100
0600
0800
1000
1000
1000
1080
1F84
ENDCHAR

STARTCHAR A2B3
ENCODING 41651
SWIDTH 960 0
DWIDTH 16 0
BBX 16 16 0 -4
BITMAP
0000
0000
0F00
1080
1080
0080
0080
0100
0600
0100
0080
0080
1080
1080
1080
0F04
ENDCHAR

STARTCHAR A2B4
ENCODING 41652
SWIDTH 960 0
DWIDTH 16 0
BBX 16 16 0 -4
BITMAP
0000
0000
0300
0500
0500
0500
0900
0900
0900
1100
1100
1FC0
0100
0100
0100
0104
ENDCHAR

STARTCHAR A2B5
ENCODING 41653
SWIDTH 960 0
DWIDTH 16 0
BBX 16 16 0 -4
BITMAP
0000
0000
1F80
1000
1000
1000
1000
1600
1900
1080
0080
0080
0080
1080
1080
0F04
ENDCHAR

STARTCHAR A2B6
ENCODING 41654
SWIDTH 960 0
DWIDTH 16 0
BBX 16 16 0 -4
BITMAP
0000
0000
0F00
1080
1080
1080
1000
1000
1700
1880
1080
1080
1080
1080
1080
0F04
ENDCHAR

STARTCHAR A2B7
ENCODING 41655
SWIDTH 960 0
DWIDTH 16 0
BBX 16 16 0 -4
BITMAP
0000
0000
1FC0
1040
1040
0080
0100
0100
0100
0200
0200
0200
0200
0200
0200
0204
ENDCHAR

STARTCHAR A2B8
ENCODING 41656
SWIDTH 960 0
DWIDTH 16 0
BBX 16 16 0 -4
BITMAP
0000
0000
0F00
1080
1080
1080
1080
1080
0F00
1080
1080
1080
1080
1080
1080
0F04
ENDCHAR

STARTCHAR A2B9
ENCODING 41657
SWIDTH 960 0
DWIDTH 16 0
BBX 16 16 0 -4
BITMAP
0000
0000
0F00
1080
1080
1080
1080
1080
1180
0E80
0080
0080
1080
1080
1080
0F04
ENDCHAR

STARTCHAR A2BA
ENCODING 41658
SWIDTH 960 0
DWIDTH 16 0
BBX 16 16 0 -4
BITMAP
0000
0000
4780
4840
4840
4840
4840
4840
4840
4840
4840
4840
4840
4840
4840
4784
ENDCHAR

STARTCHAR A2BB
ENCODING 41659
SWIDTH 960 0
DWIDTH 16 0
BBX 16 16 0 -4
BITMAP
0000
0000
4100
4100
4100
4100
4100
4100
4100
4100
4100
4100
4100
4100
4100
4104
ENDCHAR

STARTCHAR A2BC
ENCODING 41660
SWIDTH 960 0
DWIDTH 16 0
BBX 16 16 0 -4
BITMAP
0000
0000
4780
4840
4840
4040
4040
4040
4080
4300
4400
4800
4800
4800
4840
4FC4
ENDCHAR

STARTCHAR A2BD
ENCODING 41661
SWIDTH 960 0
DWIDTH 16 0
BBX 16 16 0 -4
BITMAP
0000
0000
4780
4840
4840
4040
4040
4080
4300
4080
4040
4040
4840
4840
4840
4784
ENDCHAR

STARTCHAR A2BE
ENCODING 41662
SWIDTH 960 0
DWIDTH 16 0
BBX 16 16 0 -4
BITMAP
0000
0000
4180
4280
4280
4280
4480
4480
4480
4880
4880
4FE0
4080
4080
4080
4084
ENDCHAR

STARTCHAR A2BF
ENCODING 41663
SWIDTH 960 0
DWIDTH 16 0
BBX 16 16 0 -4
BITMAP
0000
0000
4FC0
4800
4800
4800
4800
4B80
4C40
4840
4040
4040
4040
4840
4840
4784
ENDCHAR

STARTCHAR A2C0
ENCODING 41664
SWIDTH 960 0
DWIDTH 16 0
BBX 16 16 0 -4
BITMAP
0000
0000
4780
4840
4840
4840
4800
4800
4B80
4C40
4840
4840
4840
4840
4840
4784
ENDCHAR

STARTCHAR A2C1
ENCODING 41665
SWIDTH 960 0
DWIDTH 16 0
BBX 16 16 0 -4
BITMAP
0000
0000
4FF0
4810
4810
4020
4040
4040
4040
4080
4080
4080
4080
4080
4080
4084
ENDCHAR

STARTCHAR A2C2
ENCODING 41666
SWIDTH 960 0
DWIDTH 16 0
BBX 16 16 0 -4
BITMAP
0000
0000
4780
4840
4840
4840
4840
4840
4780
4840
4840
4840
4840
4840
4840
4784
ENDCHAR

STARTCHAR A2C3
ENCODING 41667
SWIDTH 960 0
DWIDTH 16 0
BBX 16 16 0 -4
BITMAP
0000
0000
4780
4840
4840
4840
4840
4840
48C0
4740
4040
4040
4840
4840
4840
4784
ENDCHAR

STARTCHAR A2C4
ENCODING 41668
SWIDTH 960 0
DWIDTH 16 0
BBX 16 16 0 -4
BITMAP
0000
0000
71C0
8A20
8A20
0A20
0A20
0A20
3220
4220
8220
8220
8220
8220
8A20
F9C4
ENDCHAR

STARTCHAR A2C5
ENCODING 41669
SWIDTH 960 0
DWIDTH 16 0
BBX 16 16 0 -4
BITMAP
0000
0000
4002
8101
8101
8101
8101
8101
8101
8101
8101
8101
8101
8101
8101
4002
ENDCHAR

STARTCHAR A2C6
ENCODING 41670
SWIDTH 960 0
DWIDTH 16 0
BBX 16 16 0 -4
BITMAP
0000
0000
4002
83C1
8421
8421
8021
8021
8021
8041
8181
8201
8401
8401
87E1
4002
ENDCHAR

STARTCHAR A2C7
ENCODING 41671
SWIDTH 960 0
DWIDTH 16 0
BBX 16 16 0 -4
BITMAP
0000
0000
4002
83C1
8421
8421
8021
8041
8181
8041
8021
8021
8421
8421
83C1
4002
ENDCHAR

STARTCHAR A2C8
ENCODING 41672
SWIDTH 960 0
DWIDTH 16 0
BBX 16 16 0 -4
BITMAP
0000
0000
4002
8181
8281
8281
8281
8481
8481
8881
8881
8FE1
8081
8081
8081
4002
ENDCHAR

STARTCHAR A2C9
ENCODING 41673
SWIDTH 960 0
DWIDTH 16 0
BBX 16 16 0 -4
BITMAP
0000
0000
4002
8001
87E1
8401
8401
8401
87C1
8421
8021
8021
8021
8421
83C1
4002
ENDCHAR

STARTCHAR A2CA
ENCODING 41674
SWIDTH 960 0
DWIDTH 16 0
BBX 16 16 0 -4
BITMAP
0000
0000
4002
83C1
8421
8421
8401
8401
85C1
8621
8421
8421
8421
8421
83C1
4002
ENDCHAR

STARTCHAR A2CB
ENCODING 41675
SWIDTH 960 0
DWIDTH 16 0
BBX 16 16 0 -4
BITMAP
0000
0000
4002
8FE1
8821
8821
8041
8081
8081
8081
8101
8101
8101
8101
8101
4002
ENDCHAR

STARTCHAR A2CC
ENCODING 41676
SWIDTH 960 0
DWIDTH 16 0
BBX 16 16 0 -4
BITMAP
0000
0000
4002
83C1
8421
8421
8421
8421
83C1
8421
8421
8421
8421
8421
83C1
4002
ENDCHAR

STARTCHAR A2CD
ENCODING 41677
SWIDTH 960 0
DWIDTH 16 0
BBX 16 16 0 -4
BITMAP
0000
0000
4002
83C1
8421
8421
8421
8421
8461
83A1
8021
8021
8421
8421
83C1
4002
ENDCHAR

STARTCHAR A2CE
ENCODING 41678
SWIDTH 960 0
DWIDTH 16 0
BBX 16 16 0 -4
BITMAP
0000
0000
4002
88E1
8911
8911
8911
8911
8911
8911
8911
8911
8911
8911
88E1
4002
ENDCHAR

STARTCHAR A2CF
ENCODING 41679
SWIDTH 960 0
DWIDTH 16 0
BBX 16 16 0 -4
BITMAP
0000
0000
4002
8821
8821
8821
8821
8821
8821
8821
8821
8821
8821
8821
8821
4002
ENDCHAR

STARTCHAR A2D0
ENCODING 41680
SWIDTH 960 0
DWIDTH 16 0
BBX 16 16 0 -4
BITMAP
0000
0000
4002
91E1
9211
9211
9011
9011
9021
90C1
9101
9201
9201
9211
93F1
4002
ENDCHAR

STARTCHAR A2D1
ENCODING 41681
SWIDTH 960 0
DWIDTH 16 0
BBX 16 16 0 -4
BITMAP
0000
0000
4002
91E1
9211
9211
9011
9021
90C1
9021
9011
9011
9211
9211
91E1
4002
ENDCHAR

STARTCHAR A2D2
ENCODING 41682
SWIDTH 960 0
DWIDTH 16 0
BBX 16 16 0 -4
BITMAP
0000
0000
4002
9061
90A1
90A1
90A1
9121
9121
9121
9221
9221
93F9
9021
9021
4002
ENDCHAR

STARTCHAR A2D3
ENCODING 41683
SWIDTH 960 0
DWIDTH 16 0
BBX 16 16 0 -4
BITMAP
0000
0000
4002
93F1
9201
9201
9201
92E1
9311
9211
9011
9011
9211
9211
91E1
4002
ENDCHAR

STARTCHAR A2D4
ENCODING 41684
SWIDTH 960 0
DWIDTH 16 0
BBX 16 16 0 -4
BITMAP
0000
0000
4002
91E1
9211
9211
9211
9201
92E1
9311
9211
9211
9211
9211
91E1
4002
ENDCHAR

STARTCHAR A2D5
ENCODING 41685
SWIDTH 960 0
DWIDTH 16 0
BBX 16 16 0 -4
BITMAP
0000
0000
4002
93F9
9209
9209
9011
9021
9021
9021
9041
9041
9041
9041
9041
4002
ENDCHAR

STARTCHAR A2D6
ENCODING 41686
SWIDTH 960 0
DWIDTH 16 0
BBX 16 16 0 -4
BITMAP
0000
0000
4002
91E1
9211
9211
9211
9211
91E1
9211
9211
9211
9211
9211
91E1
4002
ENDCHAR

STARTCHAR A2D7
ENCODING 41687
SWIDTH 960 0
DWIDTH 16 0
BBX 16 16 0 -4
BITMAP
0000
0000
4002
91E1
9211
9211
9211
9211
9231
91D1
9011
9011
9211
9211
91E1
4002
ENDCHAR

STARTCHAR A2D8
ENCODING 41688
SWIDTH 960 0
DWIDTH 16 0
BBX 16 16 0 -4
BITMAP
0000
0000
4002
9C71
A289
A289
8289
8289
8489
8889
9089
A089
A089
A289
BE71
4002
ENDCHAR

STARTCHAR A2D9
ENCODING 41689
SWIDTH 960 0
DWIDTH 16 0
BBX 16 16 0 -4
BITMAP
0000
07C0
1830
2008
4104
4104
8102
8102
8102
8102
8102
8102
4104
4104
2008
1830
ENDCHAR

STARTCHAR A2DA
ENCODING 41690
SWIDTH 960 0
DWIDTH 16 0
BBX 16 16 0 -4
BITMAP
0000
07C0
1830
2008
47C4
4444
8042
8042
8182
8202
8442
4444
47C4
2008
1830
07C0
ENDCHAR

STARTCHAR A2DB
ENCODING 41691
SWIDTH 960 0
DWIDTH 16 0
BBX 16 16 0 -4
BITMAP
0000
07C0
1830
2008
47C4
4444
8042
80C2
8302
80C2
8042
4444
47C4
2008
1830
07C0
ENDCHAR

STARTCHAR A2DC
ENCODING 41692
SWIDTH 960 0
DWIDTH 16 0
BBX 16 16 0 -4
BITMAP
0000
07C0
1830
2008
4184
4284
8282
8482
8482
8882
8FE2
4084
4084
2008
1830
07C0
ENDCHAR

STARTCHAR A2DD
ENCODING 41693
SWIDTH 960 0
DWIDTH 16 0
BBX 16 16 0 -4
BITMAP
0000
07C0
1830
2008
47C4
4404
8402
8402
87C2
8042
8042
4444
47C4
2008
1830
07C0
ENDCHAR

STARTCHAR A2DE
ENCODING 41694
SWIDTH 960 0
DWIDTH 16 0
BBX 16 16 0 -4
BITMAP
0000
07C0
1830
2008
47C4
4444
8402
8402
87C2
8442
8442
4444
47C4
2008
1830
07C0
ENDCHAR

STARTCHAR A2DF
ENCODING 41695
SWIDTH 960 0
DWIDTH 16 0
BBX 16 16 0 -4
BITMAP
0000
07C0
1830
2008
47C4
4444
8042
8082
8102
8102
8102
4104
4104
2008
1830
07C0
ENDCHAR

STARTCHAR A2E0
ENCODING 41696
SWIDTH 960 0
DWIDTH 16 0
BBX 16 16 0 -4
BITMAP
0000
07C0
1830
2008
47C4
4444
8442
8442
8382
8442
8442
4444
47C4
2008
1830
07C0
ENDCHAR

STARTCHAR A2E1
ENCODING 41697
SWIDTH 960 0
DWIDTH 16 0
BBX 16 16 0 -4
BITMAP
0000
07C0
1830
2008
47C4
4444
8442
8442
87C2
8042
8042
4444
47C4
2008
1830
07C0
ENDCHAR

STARTCHAR A2E2
ENCODING 41698
SWIDTH 960 0
DWIDTH 16 0
BBX 16 16 0 -4
BITMAP
0000
07C0
1830
2008
4BE4
4A24
8A22
8A22
8A22
8A22
8A22
4A24
4BE4
2008
1830
07C0
ENDCHAR

STARTCHAR A2E5
ENCODING 41701
SWIDTH 960 0
DWIDTH 16 0
BBX 16 16 0 -4
BITMAP
0000
0000
2004
4002
8001
8001
8001
8001
8001
BFFD
8001
8001
8001
8001
4002
2004
ENDCHAR

STARTCHAR A2E6
ENCODING 41702
SWIDTH 960 0
DWIDTH 16 0
BBX 16 16 0 -4
BITMAP
0000
0000
2004
4002
8001
9FF9
8001
8001
8001
8001
8001
BFFD
8001
8001
4002
2004
ENDCHAR

STARTCHAR A2E7
ENCODING 41703
SWIDTH 960 0
DWIDTH 16 0
BBX 16 16 0 -4
BITMAP
0000
0000
2004
4002
9FF9
8001
8001
8001
8FF1
8001
8001
8001
BFFD
8001
4002
2004
ENDCHAR

STARTCHAR A2E8
ENCODING 41704
SWIDTH 960 0
DWIDTH 16 0
BBX 16 16 0 -4
BITMAP
0000
0000
2004
4002
8001
BFFD
A425
A425
A425
A425
A425
A425
BFFD
8001
4002
2004
ENDCHAR

STARTCHAR A2E9
ENCODING 41705
SWIDTH 960 0
DWIDTH 16 0
BBX 16 16 0 -4
BITMAP
0000
0000
2004
4002
9FF9
8201
8201
8201
8FF1
8411
8411
8411
8411
BFFD
4002
2004
ENDCHAR

STARTCHAR A2EA
ENCODING 41706
SWIDTH 960 0
DWIDTH 16 0
BBX 16 16 0 -4
BITMAP
0000
0000
2004
4002
8101
8081
8001
BFFD
8001
8001
8221
8221
8411
8809
4002
2004
ENDCHAR

STARTCHAR A2EB
ENCODING 41707
SWIDTH 960 0
DWIDTH 16 0
BBX 16 16 0 -4
BITMAP
0000
0000
2004
4202
8201
8201
8201
82FD
BF01
8201
8201
8201
8221
8221
41E2
2004
ENDCHAR

STARTCHAR A2EC
ENCODING 41708
SWIDTH 960 0
DWIDTH 16 0
BBX 16 16 0 -4
BITMAP
0000
0000
2008
4084
8482
8482
8482
8482
8482
8442
8842
9022
A01A
8002
4004
2008
ENDCHAR

STARTCHAR A2ED
ENCODING 41709
SWIDTH 960 0
DWIDTH 16 0
BBX 16 16 0 -4
BITMAP
0000
0000
2008
4204
8202
8202
BFC2
8242
8242
8242
8442
844A
884A
903A
4004
2008
ENDCHAR

STARTCHAR A2EE
ENCODING 41710
SWIDTH 960 0
DWIDTH 16 0
BBX 16 16 0 -4
BITMAP
0000
0000
2008
4104
8102
8102
8102
BFFA
8102
8102
8102
8102
8102
8102
4104
2008
ENDCHAR

STARTCHAR A2F1
ENCODING 41713
SWIDTH 960 0
DWIDTH 16 0
BBX 16 16 0 -4
BITMAP
0000
0000
0380
0100
0100
0100
0100
0100
0100
0100
0100
0100
0100
0100
0100
0380
ENDCHAR

STARTCHAR A2F2
ENCODING 41714
SWIDTH 960 0
DWIDTH 16 0
BBX 16 16 0 -4
BITMAP
0000
0000
0EE0
0440
0440
0440
0440
0440
0440
0440
0440
0440
0440
0440
0440
0EE0
ENDCHAR

STARTCHAR A2F3
ENCODING 41715
SWIDTH 960 0
DWIDTH 16 0
BBX 16 16 0 -4
BITMAP
0000
0000
3BB8
1110
1110
1110
1110
1110
1110
1110
1110
1110
1110
1110
1110
3BB8
ENDCHAR

STARTCHAR A2F4
ENCODING 41716
SWIDTH 960 0
DWIDTH 16 0
BBX 16 16 0 -4
BITMAP
0000
0000
771C
2208
2208
2208
2110
2110
2110
2110
20A0
20A0
20A0
20A0
2040
7040
ENDCHAR

STARTCHAR A2F5
ENCODING 41717
SWIDTH 960 0
DWIDTH 16 0
BBX 16 16 0 -4
BITMAP
0000
0000
701C
2008
1010
1010
0820
0820
0820
0440
0440
0440
0280
0280
0100
0100
ENDCHAR

STARTCHAR A2F6
ENCODING 41718
SWIDTH 960 0
DWIDTH 16 0
BBX 16 16 0 -4
BITMAP
0000
0000
71DC
2088
2088
2088
1108
1108
1108
1108
0A08
0A08
0A08
0A08
0408
041C
ENDCHAR

STARTCHAR A2F7
ENCODING 41719
SWIDTH 960 0
DWIDTH 16 0
BBX 16 16 0 -4
BITMAP
0000
0000
71FF
2092
2092
2092
1112
1112
1112
1112
0A12
0A12
0A12
0A12
0412
043F
ENDCHAR

STARTCHAR A2F8
ENCODING 41720
SWIDTH 960 0
DWIDTH 16 0
BBX 16 16 0 -4
BITMAP
0000
0000
71FF
20AA
20AA
20AA
112A
112A
112A
112A
0A2A
0A2A
0A2A
0A2A
042A
047F
ENDCHAR

STARTCHAR A2F9
ENCODING 41721
SWIDTH 960 0
DWIDTH 16 0
BBX 16 16 0 -4
BITMAP
0000
0000
7707
2202
2104
2104
2088
2050
2020
2050
2050
2088
2088
2104
2202
7707
ENDCHAR

STARTCHAR A2FA
ENCODING 41722
SWIDTH 960 0
DWIDTH 16 0
BBX 16 16 0 -4
BITMAP
0000
0000
380E
1004
0808
0410
0220
0140
0080
0140
0140
0220
0410
0410
0808
3C1E
ENDCHAR

STARTCHAR A2FB
ENCODING 41723
SWIDTH 960 0
DWIDTH 16 0
BBX 16 16 0 -4
BITMAP
0000
0000
7077
2022
1042
1042
0882
0502
0202
0502
0502
0882
0882
1042
2022
7077
ENDCHAR

STARTCHAR A2FC
ENCODING 41724
SWIDTH 960 0
DWIDTH 16 0
BBX 16 16 0 -4
BITMAP
0000
0000
707F
202A
104A
104A
088A
050A
020A
050A
050A
088A
088A
104A
202A
707F
ENDCHAR

STARTCHAR A3A1
ENCODING 41889
SWIDTH 960 0
DWIDTH 16 0
BBX 16 16 0 -4
BITMAP
0000
0000
0000
0000
0000
1000
1000
1000
1000
1000
1000
1000
1000
1000
0000
1000
ENDCHAR

STARTCHAR A3A2
ENCODING 41890
SWIDTH 960 0
DWIDTH 16 0
BBX 16 16 0 -4
BITMAP
0000
0000
0000
0000
0000
0000
0240
0240
0240
0480
0480
0480
0000
0000
0000
0000
ENDCHAR

STARTCHAR A3A3
ENCODING 41891
SWIDTH 960 0
DWIDTH 16 0
BBX 16 16 0 -4
BITMAP
0000
0000
0440
0440
0440
0478
3FC0
0440
0440
0440
0478
3FC0
0440
0440
0440
0000
ENDCHAR

STARTCHAR A3A4
ENCODING 41892
SWIDTH 960 0
DWIDTH 16 0
BBX 16 16 0 -4
BITMAP
0000
0000
701C
1010
0820
0440
0280
0280
0100
0100
0FE0
0100
0100
0100
0100
0380
ENDCHAR

STARTCHAR A3A5
ENCODING 41893
SWIDTH 960 0
DWIDTH 16 0
BBX 16 16 0 -4
BITMAP
0000
0000
1802
2404
2408
2410
2420
2440
1880
0118
0224
0424
0824
1024
2024
4018
ENDCHAR

STARTCHAR A3A6
ENCODING 41894
SWIDTH 960 0
DWIDTH 16 0
BBX 16 16 0 -4
BITMAP
0000
0000
0F00
1080
1080
1080
1080
0B00
0400
1C00
2270
4120
40A0
4044
21A4
1E18
ENDCHAR

STARTCHAR A3A7
ENCODING 41895
SWIDTH 960 0
DWIDTH 16 0
BBX 16 16 0 -4
BITMAP
0000
0000
0000
0000
0000
0000
0100
0100
0100
0200
0200
0200
0000
0000
0000
0000
ENDCHAR

STARTCHAR A3A8
ENCODING 41896
SWIDTH 960 0
DWIDTH 16 0
BBX 16 16 0 -4
BITMAP
0000
0006
0008
0010
0020
0020
0040
0040
0040
0040
0040
0040
0020
0020
0010
0008
ENDCHAR

STARTCHAR A3A9
ENCODING 41897
SWIDTH 960 0
DWIDTH 16 0
BBX 16 16 0 -4
BITMAP
0000
6000
1000
0800
0400
0400
0200
0200
0200
0200
0200
0200
0400
0400
0800
1000
ENDCHAR

STARTCHAR A3AA
ENCODING 41898
SWIDTH 960 0
DWIDTH 16 0
BBX 16 16 0 -4
BITMAP
0000
0000
0000
0100
0100
2108
1110
0920
0440
0000
0280
0440
0820
1010
0000
0000
ENDCHAR

STARTCHAR A3AB
ENCODING 41899
SWIDTH 960 0
DWIDTH 16 0
BBX 16 16 0 -4
BITMAP
0000
0000
0000
0080
0080
0080
0080
0080
1FF8
0080
0080
0080
0080
0080
0000
0000
ENDCHAR

STARTCHAR A3AC
ENCODING 41900
SWIDTH 960 0
DWIDTH 16 0
BBX 16 16 0 -4
BITMAP
0000
0000
0000
0000
0000
0000
0000
0000
0000
0000
0000
0000
3000
3000
1000
2000
ENDCHAR

STARTCHAR A3AD
ENCODING 41901
SWIDTH 960 0
DWIDTH 16 0
BBX 16 16 0 -4
BITMAP
0000
0000
0000
0000
0000
0000
0000
0000
0000
1FF8
0000
0000
0000
0000
0000
0000
ENDCHAR

STARTCHAR A3AE
ENCODING 41902
SWIDTH 960 0
DWIDTH 16 0
BBX 16 16 0 -4
BITMAP
0000
0000
0000
0000
0000
0000
0000
0000
0000
0000
0000
0000
0000
3000
3000
0000
ENDCHAR

STARTCHAR A3AF
ENCODING 41903
SWIDTH 960 0
DWIDTH 16 0
BBX 16 16 0 -4
BITMAP
0000
0000
0000
0002
0004
0008
0010
0020
0040
0080
0100
0200
0400
0800
1000
2000
ENDCHAR

STARTCHAR A3B0
ENCODING 41904
SWIDTH 960 0
DWIDTH 16 0
BBX 16 16 0 -4
BITMAP
0000
0000
07C0
0820
1010
1010
1010
1010
1010
1010
1010
1010
1010
1010
0820
07C0
ENDCHAR

STARTCHAR A3B1
ENCODING 41905
SWIDTH 960 0
DWIDTH 16 0
BBX 16 16 0 -4
BITMAP
0000
0000
0100
0300
0500
0100
0100
0100
0100
0100
0100
0100
0100
0100
0100
07C0
ENDCHAR

STARTCHAR A3B2
ENCODING 41906
SWIDTH 960 0
DWIDTH 16 0
BBX 16 16 0 -4
BITMAP
0000
0000
0FC0
1020
1010
0010
0010
0010
00E0
0300
0400
0800
1000
1010
1010
1FF0
ENDCHAR

STARTCHAR A3B3
ENCODING 41907
SWIDTH 960 0
DWIDTH 16 0
BBX 16 16 0 -4
BITMAP
0000
0000
0FE0
1010
1010
0010
0020
0040
0180
0040
0020
0010
0010
1010
1010
0FE0
ENDCHAR

STARTCHAR A3B4
ENCODING 41908
SWIDTH 960 0
DWIDTH 16 0
BBX 16 16 0 -4
BITMAP
0000
0000
0180
0280
0280
0280
0480
0480
0880
0880
1080
2080
3FF8
0080
0080
03E0
ENDCHAR

STARTCHAR A3B5
ENCODING 41909
SWIDTH 960 0
DWIDTH 16 0
BBX 16 16 0 -4
BITMAP
0000
0000
1FF0
1000
1000
1000
1000
17C0
1820
1010
0010
0010
0010
1010
1020
0FC0
ENDCHAR

STARTCHAR A3B6
ENCODING 41910
SWIDTH 960 0
DWIDTH 16 0
BBX 16 16 0 -4
BITMAP
0000
0000
07C0
0820
1010
1010
1000
1000
17C0
1820
1010
1010
1010
1010
0820
07C0
ENDCHAR

STARTCHAR A3B7
ENCODING 41911
SWIDTH 960 0
DWIDTH 16 0
BBX 16 16 0 -4
BITMAP
0000
0000
1FF8
1008
1008
0010
0010
0020
0040
0040
0080
0080
0080
0100
0100
0100
ENDCHAR

STARTCHAR A3B8
ENCODING 41912
SWIDTH 960 0
DWIDTH 16 0
BBX 16 16 0 -4
BITMAP
0000
0000
07C0
0820
1010
1010
1010
0820
07C0
0820
1010
1010
1010
1010
0820
07C0
ENDCHAR

STARTCHAR A3B9
ENCODING 41913
SWIDTH 960 0
DWIDTH 16 0
BBX 16 16 0 -4
BITMAP
0000
0000
07C0
0820
1010
1010
1010
1010
0830
07D0
0010
0010
1010
1010
0820
07C0
ENDCHAR

STARTCHAR A3BA
ENCODING 41914
SWIDTH 960 0
DWIDTH 16 0
BBX 16 16 0 -4
BITMAP
0000
0000
0000
0000
0000
0000
0000
0000
0000
0000
3000
3000
0000
3000
3000
0000
ENDCHAR

STARTCHAR A3BB
ENCODING 41915
SWIDTH 960 0
DWIDTH 16 0
BBX 16 16 0 -4
BITMAP
0000
0000
0000
0000
0000
0000
0000
0000
0000
3000
3000
0000
3000
3000
1000
2000
ENDCHAR

STARTCHAR A3BC
ENCODING 41916
SWIDTH 960 0
DWIDTH 16 0
BBX 16 16 0 -4
BITMAP
0000
0000
0006
0018
0060
0180
0600
1800
2000
1800
0600
0180
0060
0018
0006
0000
ENDCHAR

STARTCHAR A3BD
ENCODING 41917
SWIDTH 960 0
DWIDTH 16 0
BBX 16 16 0 -4
BITMAP
0000
0000
0000
0000
0000
0000
0000
0000
1FF8
0000
0000
1FF8
0000
0000
0000
0000
ENDCHAR

STARTCHAR A3BE
ENCODING 41918
SWIDTH 960 0
DWIDTH 16 0
BBX 16 16 0 -4
BITMAP
0000
0000
6000
1800
0600
0180
0060
0018
0004
0018
0060
0180
0600
1800
6000
0000
ENDCHAR

STARTCHAR A3BF
ENCODING 41919
SWIDTH 960 0
DWIDTH 16 0
BBX 16 16 0 -4
BITMAP
0000
0000
0000
1800
2400
4200
4200
0400
0800
0800
0800
0800
0800
0800
0000
0800
ENDCHAR

STARTCHAR A3C0
ENCODING 41920
SWIDTH 960 0
DWIDTH 16 0
BBX 16 16 0 -4
BITMAP
0000
0000
07C0
1820
2690
4988
4888
4888
4888
4990
4694
2068
1010
0FE0
0000
0000
ENDCHAR

STARTCHAR A3C1
ENCODING 41921
SWIDTH 960 0
DWIDTH 16 0
BBX 16 16 0 -4
BITMAP
0000
0000
0100
0280
0280
0440
0440
0820
0FE0
1010
1010
2008
701C
0000
0000
0000
ENDCHAR

STARTCHAR A3C2
ENCODING 41922
SWIDTH 960 0
DWIDTH 16 0
BBX 16 16 0 -4
BITMAP
0000
0000
7FF0
2008
2008
2008
2010
3FE0
2010
2008
2008
2008
7FF0
0000
0000
0000
ENDCHAR

STARTCHAR A3C3
ENCODING 41923
SWIDTH 960 0
DWIDTH 16 0
BBX 16 16 0 -4
BITMAP
0000
0000
0FF0
1008
2004
2000
2000
2000
2000
2000
2004
1008
0FF0
0000
0000
0000
ENDCHAR

STARTCHAR A3C4
ENCODING 41924
SWIDTH 960 0
DWIDTH 16 0
BBX 16 16 0 -4
BITMAP
0000
0000
7FF0
2008
2004
2004
2004
2004
2004
2004
2004
2008
7FF0
0000
0000
0000
ENDCHAR

STARTCHAR A3C5
ENCODING 41925
SWIDTH 960 0
DWIDTH 16 0
BBX 16 16 0 -4
BITMAP
0000
0000
7FFE
2002
2002
2010
3FF0
2010
2000
2000
2002
2002
7FFE
0000
0000
0000
ENDCHAR

STARTCHAR A3C6
ENCODING 41926
SWIDTH 960 0
DWIDTH 16 0
BBX 16 16 0 -4
BITMAP
0000
0000
7FFE
2002
2002
2020
3FE0
2020
2000
2000
2000
2000
7000
0000
0000
0000
ENDCHAR

STARTCHAR A3C7
ENCODING 41927
SWIDTH 960 0
DWIDTH 16 0
BBX 16 16 0 -4
BITMAP
0000
0000
1FE8
2018
4008
4000
4000
4000
401C
4008
4008
2008
1FF0
0000
0000
0000
ENDCHAR

STARTCHAR A3C8
ENCODING 41928
SWIDTH 960 0
DWIDTH 16 0
BBX 16 16 0 -4
BITMAP
0000
0000
700E
2004
2004
2004
2004
3FFC
2004
2004
2004
2004
700E
0000
0000
0000
ENDCHAR

STARTCHAR A3C9
ENCODING 41929
SWIDTH 960 0
DWIDTH 16 0
BBX 16 16 0 -4
BITMAP
0000
0000
07C0
0100
0100
0100
0100
0100
0100
0100
0100
0100
07C0
0000
0000
0000
ENDCHAR

STARTCHAR A3CA
ENCODING 41930
SWIDTH 960 0
DWIDTH 16 0
BBX 16 16 0 -4
BITMAP
0000
0000
07C0
0100
0100
0100
0100
0100
0100
0100
0900
0900
0600
0000
0000
0000
ENDCHAR

STARTCHAR A3CB
ENCODING 41931
SWIDTH 960 0
DWIDTH 16 0
BBX 16 16 0 -4
BITMAP
0000
0000
71E0
2100
2200
2400
2800
3800
2400
2200
2100
2080
70E0
0000
0000
0000
ENDCHAR

STARTCHAR A3CC
ENCODING 41932
SWIDTH 960 0
DWIDTH 16 0
BBX 16 16 0 -4
BITMAP
0000
0000
3800
1000
1000
1000
1000
1000
1000
1000
1004
1004
3FFC
0000
0000
0000
ENDCHAR

STARTCHAR A3CD
ENCODING 41933
SWIDTH 960 0
DWIDTH 16 0
BBX 16 16 0 -4
BITMAP
0000
0000
C006
600C
5014
4824
4444
4284
4104
4004
4004
4004
E00E
0000
0000
0000
ENDCHAR

STARTCHAR A3CE
ENCODING 41934
SWIDTH 960 0
DWIDTH 16 0
BBX 16 16 0 -4
BITMAP
0000
0000
601C
3008
2808
2408
2208
2108
2088
2048
2028
2018
700C
0000
0000
0000
ENDCHAR

STARTCHAR A3CF
ENCODING 41935
SWIDTH 960 0
DWIDTH 16 0
BBX 16 16 0 -4
BITMAP
0000
0000
03E0
0410
0808
1004
1004
1004
1004
1004
0808
0410
03E0
0000
0000
0000
ENDCHAR

STARTCHAR A3D0
ENCODING 41936
SWIDTH 960 0
DWIDTH 16 0
BBX 16 16 0 -4
BITMAP
0000
0000
7FF0
2008
2004
2004
2008
3FF0
2000
2000
2000
2000
7000
0000
0000
0000
ENDCHAR

STARTCHAR A3D1
ENCODING 41937
SWIDTH 960 0
DWIDTH 16 0
BBX 16 16 0 -4
BITMAP
0000
0000
07C0
0820
1010
2008
2008
2008
2008
2308
1090
0860
07C0
0030
0000
0000
ENDCHAR

STARTCHAR A3D2
ENCODING 41938
SWIDTH 960 0
DWIDTH 16 0
BBX 16 16 0 -4
BITMAP
0000
0000
7FC0
2020
2010
2010
2020
3FC0
2400
2200
2100
2080
7070
0000
0000
0000
ENDCHAR

STARTCHAR A3D3
ENCODING 41939
SWIDTH 960 0
DWIDTH 16 0
BBX 16 16 0 -4
BITMAP
0000
0000
0FF4
100C
2004
2000
1000
0FF0
0008
0004
2004
3008
2FF0
0000
0000
0000
ENDCHAR

STARTCHAR A3D4
ENCODING 41940
SWIDTH 960 0
DWIDTH 16 0
BBX 16 16 0 -4
BITMAP
0000
0000
7FFE
4082
4082
0080
0080
0080
0080
0080
0080
0080
03E0
0000
0000
0000
ENDCHAR

STARTCHAR A3D5
ENCODING 41941
SWIDTH 960 0
DWIDTH 16 0
BBX 16 16 0 -4
BITMAP
0000
0000
700E
2004
2004
2004
2004
2004
2004
2004
2004
1008
0FF0
0000
0000
0000
ENDCHAR

STARTCHAR A3D6
ENCODING 41942
SWIDTH 960 0
DWIDTH 16 0
BBX 16 16 0 -4
BITMAP
0000
0000
701C
2008
2008
1010
1010
0820
0820
0440
0440
0280
0100
0000
0000
0000
ENDCHAR

STARTCHAR A3D7
ENCODING 41943
SWIDTH 960 0
DWIDTH 16 0
BBX 16 16 0 -4
BITMAP
0000
0000
E38E
4104
4104
4104
2288
2288
2288
1450
1450
0820
0820
0000
0000
0000
ENDCHAR

STARTCHAR A3D8
ENCODING 41944
SWIDTH 960 0
DWIDTH 16 0
BBX 16 16 0 -4
BITMAP
0000
0000
700E
1008
0810
0420
0240
0180
0180
0240
0420
0810
1008
700E
0000
0000
ENDCHAR

STARTCHAR A3D9
ENCODING 41945
SWIDTH 960 0
DWIDTH 16 0
BBX 16 16 0 -4
BITMAP
0000
0000
380E
1004
0808
0410
0220
0140
0080
0080
0080
0080
03E0
0000
0000
0000
ENDCHAR

STARTCHAR A3DA
ENCODING 41946
SWIDTH 960 0
DWIDTH 16 0
BBX 16 16 0 -4
BITMAP
0000
0000
3FFC
2008
2010
0020
0040
0080
0100
0200
0404
0804
1FFC
0000
0000
0000
ENDCHAR

STARTCHAR A3DB
ENCODING 41947
SWIDTH 960 0
DWIDTH 16 0
BBX 16 16 0 -4
BITMAP
0000
0000
0007
0004
0004
0004
0004
0004
0004
0004
0004
0004
0004
0004
0007
0000
ENDCHAR

STARTCHAR A3DC
ENCODING 41948
SWIDTH 960 0
DWIDTH 16 0
BBX 16 16 0 -4
BITMAP
0000
0000
4000
2000
1000
0800
0400
0200
0100
0080
0040
0020
0010
0008
0004
0002
ENDCHAR

STARTCHAR A3DD
ENCODING 41949
SWIDTH 960 0
DWIDTH 16 0
BBX 16 16 0 -4
BITMAP
0000
0000
E000
2000
2000
2000
2000
2000
2000
2000
2000
2000
2000
2000
E000
0000
ENDCHAR

STARTCHAR A3DE
ENCODING 41950
SWIDTH 960 0
DWIDTH 16 0
BBX 16 16 0 -4
BITMAP
0000
0000
0100
0280
0280
0440
0440
0820
0000
0000
0000
0000
0000
0000
0000
0000
ENDCHAR

STARTCHAR A3DF
ENCODING 41951
SWIDTH 960 0
DWIDTH 16 0
BBX 16 16 0 -4
BITMAP
0000
0000
0000
0000
0000
0000
0000
0000
0000
0000
0000
0000
0000
0000
3FFC
0000
ENDCHAR

STARTCHAR A3E0
ENCODING 41952
SWIDTH 960 0
DWIDTH 16 0
BBX 16 16 0 -4
BITMAP
0000
0000
0010
0010
0008
0008
0004
0004
0000
0000
0000
0000
0000
0000
0000
0000
ENDCHAR

STARTCHAR A3E1
ENCODING 41953
SWIDTH 960 0
DWIDTH 16 0
BBX 16 16 0 -4
BITMAP
0000
0000
0000
0000
0000
0F80
1040
0040
0F40
10C0
1040
1050
0FA0
0000
0000
0000
ENDCHAR

STARTCHAR A3E2
ENCODING 41954
SWIDTH 960 0
DWIDTH 16 0
BBX 16 16 0 -4
BITMAP
0000
0000
0800
0800
0800
0800
0BC0
0C20
0810
0810
0810
0820
07C0
0000
0000
0000
ENDCHAR

STARTCHAR A3E3
ENCODING 41955
SWIDTH 960 0
DWIDTH 16 0
BBX 16 16 0 -4
BITMAP
0000
0000
0000
0000
0000
0000
07C0
0820
1000
1000
1010
0820
07C0
0000
0000
0000
ENDCHAR

STARTCHAR A3E4
ENCODING 41956
SWIDTH 960 0
DWIDTH 16 0
BBX 16 16 0 -4
BITMAP
0000
0000
0020
0020
0020
0020
07A0
0860
1020
1020
1020
0860
07A0
0000
0000
0000
ENDCHAR

STARTCHAR A3E5
ENCODING 41957
SWIDTH 960 0
DWIDTH 16 0
BBX 16 16 0 -4
BITMAP
0000
0000
0000
0000
0000
0000
03C0
0420
0810
0FF0
0800
0410
03E0
0000
0000
0000
ENDCHAR

STARTCHAR A3E6
ENCODING 41958
SWIDTH 960 0
DWIDTH 16 0
BBX 16 16 0 -4
BITMAP
0000
0000
0100
0280
0200
0200
0F80
0200
0200
0200
0200
0200
0200
0000
0000
0000
ENDCHAR

STARTCHAR A3E7
ENCODING 41959
SWIDTH 960 0
DWIDTH 16 0
BBX 16 16 0 -4
BITMAP
0000
0000
0000
0000
0000
0000
07C0
0830
0820
0820
07C0
0400
03E0
0C10
0810
07E0
ENDCHAR

STARTCHAR A3E8
ENCODING 41960
SWIDTH 960 0
DWIDTH 16 0
BBX 16 16 0 -4
BITMAP
0000
0000
0800
0800
0800
0800
0BC0
0C20
0820
0820
0820
0820
0820
0000
0000
0000
ENDCHAR

STARTCHAR A3E9
ENCODING 41961
SWIDTH 960 0
DWIDTH 16 0
BBX 16 16 0 -4
BITMAP
0000
0000
0100
0100
0000
0000
0100
0100
0100
0100
0100
0100
0100
0000
0000
0000
ENDCHAR

STARTCHAR A3EA
ENCODING 41962
SWIDTH 960 0
DWIDTH 16 0
BBX 16 16 0 -4
BITMAP
0000
0000
0100
0100
0000
0000
0100
0100
0100
0100
0100
0100
0100
0100
0900
0600
ENDCHAR

STARTCHAR A3EB
ENCODING 41963
SWIDTH 960 0
DWIDTH 16 0
BBX 16 16 0 -4
BITMAP
0000
0000
0800
0800
0800
0800
0880
0900
0A00
0D00
0880
0840
0820
0000
0000
0000
ENDCHAR

STARTCHAR A3EC
ENCODING 41964
SWIDTH 960 0
DWIDTH 16 0
BBX 16 16 0 -4
BITMAP
0000
0000
0100
0100
0100
0100
0100
0100
0100
0100
0100
0100
0100
0000
0000
0000
ENDCHAR

STARTCHAR A3ED
ENCODING 41965
SWIDTH 960 0
DWIDTH 16 0
BBX 16 16 0 -4
BITMAP
0000
0000
0000
0000
0000
0000
0D60
0690
0490
0490
0490
0490
0498
0000
0000
0000
ENDCHAR

STARTCHAR A3EE
ENCODING 41966
SWIDTH 960 0
DWIDTH 16 0
BBX 16 16 0 -4
BITMAP
0000
0000
0000
0000
0000
0000
0D80
0640
0440
0440
0440
0440
0460
0000
0000
0000
ENDCHAR

STARTCHAR A3EF
ENCODING 41967
SWIDTH 960 0
DWIDTH 16 0
BBX 16 16 0 -4
BITMAP
0000
0000
0000
0000
0000
0000
0700
0880
1040
1040
1040
0880
0700
0000
0000
0000
ENDCHAR

STARTCHAR A3F0
ENCODING 41968
SWIDTH 960 0
DWIDTH 16 0
BBX 16 16 0 -4
BITMAP
0000
0000
0000
0000
0000
0000
0B80
0C40
0820
0820
0820
0C40
0B80
0800
0800
0800
ENDCHAR

STARTCHAR A3F1
ENCODING 41969
SWIDTH 960 0
DWIDTH 16 0
BBX 16 16 0 -4
BITMAP
0000
0000
0000
0000
0000
0000
03A0
0460
0820
0820
0820
0460
03A0
0020
0020
0020
ENDCHAR

STARTCHAR A3F2
ENCODING 41970
SWIDTH 960 0
DWIDTH 16 0
BBX 16 16 0 -4
BITMAP
0000
0000
0000
0000
0000
0000
0580
0240
0200
0200
0200
0200
0200
0000
0000
0000
ENDCHAR

STARTCHAR A3F3
ENCODING 41971
SWIDTH 960 0
DWIDTH 16 0
BBX 16 16 0 -4
BITMAP
0000
0000
0000
0000
0000
0000
0780
0840
0800
0780
0040
0840
0780
0000
0000
0000
ENDCHAR

STARTCHAR A3F4
ENCODING 41972
SWIDTH 960 0
DWIDTH 16 0
BBX 16 16 0 -4
BITMAP
0000
0000
0000
0200
0200
0200
0780
0200
0200
0200
0200
0280
0100
0000
0000
0000
ENDCHAR

STARTCHAR A3F5
ENCODING 41973
SWIDTH 960 0
DWIDTH 16 0
BBX 16 16 0 -4
BITMAP
0000
0000
0000
0000
0000
0000
0C40
0440
0440
0440
0440
04C0
0360
0000
0000
0000
ENDCHAR

STARTCHAR A3F6
ENCODING 41974
SWIDTH 960 0
DWIDTH 16 0
BBX 16 16 0 -4
BITMAP
0000
0000
0000
0000
0000
0000
0000
0820
0820
0440
0440
0280
0280
0100
0000
0000
ENDCHAR

STARTCHAR A3F7
ENCODING 41975
SWIDTH 960 0
DWIDTH 16 0
BBX 16 16 0 -4
BITMAP
0000
0000
0000
0000
0000
0000
1110
0920
0920
0AA0
0AA0
0440
0440
0000
0000
0000
ENDCHAR

STARTCHAR A3F8
ENCODING 41976
SWIDTH 960 0
DWIDTH 16 0
BBX 16 16 0 -4
BITMAP
0000
0000
0000
0000
0000
0000
0820
0440
0280
0100
0280
0440
0820
0000
0000
0000
ENDCHAR

STARTCHAR A3F9
ENCODING 41977
SWIDTH 960 0
DWIDTH 16 0
BBX 16 16 0 -4
BITMAP
0000
0000
0000
0000
0000
0000
0440
0440
0280
0280
0100
0100
0200
0200
0400
0000
ENDCHAR

STARTCHAR A3FA
ENCODING 41978
SWIDTH 960 0
DWIDTH 16 0
BBX 16 16 0 -4
BITMAP
0000
0000
0000
0000
0000
0000
0FC0
0040
0080
0100
0200
0400
0FC0
0000
0000
0000
ENDCHAR

STARTCHAR A3FB
ENCODING 41979
SWIDTH 960 0
DWIDTH 16 0
BBX 16 16 0 -4
BITMAP
0000
0002
0004
0004
0004
0004
0004
0008
0010
0008
0004
0004
0004
0004
0004
0002
ENDCHAR

STARTCHAR A3FC
ENCODING 41980
SWIDTH 960 0
DWIDTH 16 0
BBX 16 16 0 -4
BITMAP
0000
0000
0100
0100
0100
0100
0100
0100
0100
0100
0100
0100
0100
0100
0100
0100
ENDCHAR

STARTCHAR A3FD
ENCODING 41981
SWIDTH 960 0
DWIDTH 16 0
BBX 16 16 0 -4
BITMAP
0000
4000
2000
2000
2000
2000
2000
1000
0800
1000
2000
2000
2000
2000
2000
4000
ENDCHAR

STARTCHAR A3FE
ENCODING 41982
SWIDTH 960 0
DWIDTH 16 0
BBX 16 16 0 -4
BITMAP
0000
0000
3FFC
0000
0000
0000
0000
0000
0000
0000
0000
0000
0000
0000
0000
0000
ENDCHAR

STARTCHAR A4A1
ENCODING 42145
SWIDTH 960 0
DWIDTH 16 0
BBX 16 16 0 -4
BITMAP
0000
0400
0400
05C0
1E00
0480
05E0
0690
0C88
1308
2208
2510
1820
00C0
0000
0000
ENDCHAR

STARTCHAR A4A2
ENCODING 42146
SWIDTH 960 0
DWIDTH 16 0
BBX 16 16 0 -4
BITMAP
0000
0400
0400
0460
0780
3C00
0440
07F0
0C48
1444
2284
4284
4104
2684
1808
0030
ENDCHAR

STARTCHAR A4A3
ENCODING 42147
SWIDTH 960 0
DWIDTH 16 0
BBX 16 16 0 -4
BITMAP
0000
0000
1000
0800
0820
0810
0808
0808
1010
1000
1200
1400
0800
0000
0000
0000
ENDCHAR

STARTCHAR A4A4
ENCODING 42148
SWIDTH 960 0
DWIDTH 16 0
BBX 16 16 0 -4
BITMAP
0000
0000
0000
2000
1000
1020
1010
1008
1004
2004
2018
2100
2200
1400
0800
0000
ENDCHAR

STARTCHAR A4A5
ENCODING 42149
SWIDTH 960 0
DWIDTH 16 0
BBX 16 16 0 -4
BITMAP
0000
0700
0080
0100
0000
0180
1E40
0040
0040
0040
0080
0080
0300
0C00
0000
0000
ENDCHAR

STARTCHAR A4A6
ENCODING 42150
SWIDTH 960 0
DWIDTH 16 0
BBX 16 16 0 -4
BITMAP
0000
0000
03C0
0020
0040
0000
00F0
0F08
0008
0008
0008
0010
0010
0060
0180
0600
ENDCHAR

STARTCHAR A4A7
ENCODING 42151
SWIDTH 960 0
DWIDTH 16 0
BBX 16 16 0 -4
BITMAP
0000
0380
0040
0080
0000
01C0
0E40
0080
0180
0240
0440
0840
103C
0000
0000
0000
ENDCHAR

STARTCHAR A4A8
ENCODING 42152
SWIDTH 960 0
DWIDTH 16 0
BBX 16 16 0 -4
BITMAP
0000
0000
0700
0080
0100
0000
03C0
1C80
0100
0200
0380
0480
0480
0880
1080
2078
ENDCHAR

STARTCHAR A4A9
ENCODING 42153
SWIDTH 960 0
DWIDTH 16 0
BBX 16 16 0 -4
BITMAP
0000
0400
0400
0518
0E04
3408
07E0
0410
0C08
1408
2408
1530
08C0
0000
0000
0000
ENDCHAR

STARTCHAR A4AA
ENCODING 42154
SWIDTH 960 0
DWIDTH 16 0
BBX 16 16 0 -4
BITMAP
0000
0800
0800
0A00
0C38
7804
0808
0BE0
0C10
0808
1808
2808
4810
2A20
19C0
0800
ENDCHAR

STARTCHAR A4AB
ENCODING 42155
SWIDTH 960 0
DWIDTH 16 0
BBX 16 16 0 -4
BITMAP
0000
0000
0200
0200
0200
0210
0388
7C44
0444
0448
0840
0840
1080
1480
2280
4100
ENDCHAR

STARTCHAR A4AC
ENCODING 42156
SWIDTH 960 0
DWIDTH 16 0
BBX 16 16 0 -4
BITMAP
0000
0010
0408
0424
0410
0408
0720
7890
0888
0888
1090
1080
2100
2100
4500
8200
ENDCHAR

STARTCHAR A4AD
ENCODING 42157
SWIDTH 960 0
DWIDTH 16 0
BBX 16 16 0 -4
BITMAP
0000
0400
0200
0260
0380
3D00
0160
0380
3C80
0040
0FE0
1000
1000
1000
0800
07C0
ENDCHAR

STARTCHAR A4AE
ENCODING 42158
SWIDTH 960 0
DWIDTH 16 0
BBX 16 16 0 -4
BITMAP
0000
0808
0404
04D2
0708
7A04
02C0
0700
7900
0080
1FC0
2000
2000
2000
1000
0F80
ENDCHAR

STARTCHAR A4AF
ENCODING 42159
SWIDTH 960 0
DWIDTH 16 0
BBX 16 16 0 -4
BITMAP
0000
0080
0080
0100
0100
0200
0200
0400
0800
0400
0200
0200
0100
0100
0080
0080
ENDCHAR

STARTCHAR A4B0
ENCODING 42160
SWIDTH 960 0
DWIDTH 16 0
BBX 16 16 0 -4
BITMAP
0000
0088
0084
0112
0108
0204
0200
0400
0800
0400
0200
0200
0100
0100
0080
0080
ENDCHAR

STARTCHAR A4B1
ENCODING 42161
SWIDTH 960 0
DWIDTH 16 0
BBX 16 16 0 -4
BITMAP
0000
0000
0040
2020
1020
1020
103C
13E0
2020
2020
2020
2020
2820
1820
0840
0080
ENDCHAR

STARTCHAR A4B2
ENCODING 42162
SWIDTH 960 0
DWIDTH 16 0
BBX 16 16 0 -4
BITMAP
0000
0008
0084
4052
2048
2044
20F0
2740
4040
4040
4040
4040
5040
3080
1100
0200
ENDCHAR

STARTCHAR A4B3
ENCODING 42163
SWIDTH 960 0
DWIDTH 16 0
BBX 16 16 0 -4
BITMAP
0000
0000
1000
0FC0
0020
0040
0000
0000
0000
0000
1000
2000
2000
2000
1FFC
0000
ENDCHAR

STARTCHAR A4B4
ENCODING 42164
SWIDTH 960 0
DWIDTH 16 0
BBX 16 16 0 -4
BITMAP
0000
0008
2004
1F92
0048
0084
0000
0000
0000
0000
0000
2000
4000
4000
3FF8
0000
ENDCHAR

STARTCHAR A4B5
ENCODING 42165
SWIDTH 960 0
DWIDTH 16 0
BBX 16 16 0 -4
BITMAP
0000
0300
0200
0230
0210
07E0
3900
0080
0040
07A0
0860
1000
1000
1000
0800
07F0
ENDCHAR

STARTCHAR A4B6
ENCODING 42166
SWIDTH 960 0
DWIDTH 16 0
BBX 16 16 0 -4
BITMAP
0000
0304
0242
0229
0224
07C2
3900
0080
0040
1FA0
2060
4000
4000
4000
2000
1FE0
ENDCHAR

STARTCHAR A4B7
ENCODING 42167
SWIDTH 960 0
DWIDTH 16 0
BBX 16 16 0 -4
BITMAP
0000
0000
0800
0800
0800
0800
0800
0800
0800
0800
0800
0810
0820
0840
0980
0600
ENDCHAR

STARTCHAR A4B8
ENCODING 42168
SWIDTH 960 0
DWIDTH 16 0
BBX 16 16 0 -4
BITMAP
0000
0010
0808
0824
0810
0808
0800
0800
0800
0800
0800
0810
0820
0840
0980
0600
ENDCHAR

STARTCHAR A4B9
ENCODING 42169
SWIDTH 960 0
DWIDTH 16 0
BBX 16 16 0 -4
BITMAP
0000
0080
0080
0080
0080
7FFE
0080
0380
04C0
04C0
04C0
0340
0040
0080
0080
0300
ENDCHAR

STARTCHAR A4BA
ENCODING 42170
SWIDTH 960 0
DWIDTH 16 0
BBX 16 16 0 -4
BITMAP
0000
0104
0102
0109
0104
7FF2
0100
0700
0980
0980
0980
0680
0080
0100
0100
0600
ENDCHAR

STARTCHAR A4BB
ENCODING 42171
SWIDTH 960 0
DWIDTH 16 0
BBX 16 16 0 -4
BITMAP
0000
0080
1040
0840
0840
0840
0BFE
7C40
0840
0840
0840
0940
0880
0800
0800
07F8
ENDCHAR

STARTCHAR A4BC
ENCODING 42172
SWIDTH 960 0
DWIDTH 16 0
BBX 16 16 0 -4
BITMAP
0000
0104
2082
1089
1084
1082
13F0
7C80
1080
1080
1280
1100
1000
1000
0FF0
0000
ENDCHAR

STARTCHAR A4BD
ENCODING 42173
SWIDTH 960 0
DWIDTH 16 0
BBX 16 16 0 -4
BITMAP
0000
00C0
0920
0620
00C0
0100
0600
0FFC
7080
0300
0400
0800
0800
0800
0800
07F8
ENDCHAR

STARTCHAR A4BE
ENCODING 42174
SWIDTH 960 0
DWIDTH 16 0
BBX 16 16 0 -4
BITMAP
0000
0184
1242
0C49
0184
0202
0400
0FF8
7100
0600
0800
1000
1000
1000
1000
0FE0
ENDCHAR

STARTCHAR A4BF
ENCODING 42175
SWIDTH 960 0
DWIDTH 16 0
BBX 16 16 0 -4
BITMAP
0000
0400
0400
0400
0700
7C00
0800
09F0
0810
1020
1000
1000
2000
2400
4400
03FC
ENDCHAR

STARTCHAR A4C0
ENCODING 42176
SWIDTH 960 0
DWIDTH 16 0
BBX 16 16 0 -4
BITMAP
0000
0404
0402
0409
0704
7C02
0800
09F8
0808
1010
1000
1000
2000
2400
4400
03FC
ENDCHAR

STARTCHAR A4C1
ENCODING 42177
SWIDTH 960 0
DWIDTH 16 0
BBX 16 16 0 -4
BITMAP
0000
0200
0200
0200
03C0
3E00
0400
0400
05F0
0E08
0008
0008
0008
0010
00E0
0300
ENDCHAR

STARTCHAR A4C2
ENCODING 42178
SWIDTH 960 0
DWIDTH 16 0
BBX 16 16 0 -4
BITMAP
0000
0408
0424
0412
0788
3800
0800
0800
0BF0
1C08
0008
0008
0008
0010
00E0
0300
ENDCHAR

STARTCHAR A4C3
ENCODING 42179
SWIDTH 960 0
DWIDTH 16 0
BBX 16 16 0 -4
BITMAP
0000
0000
0000
03E0
0C10
3008
0008
0010
0060
0180
0000
0000
0000
0000
0000
0000
ENDCHAR

STARTCHAR A4C4
ENCODING 42180
SWIDTH 960 0
DWIDTH 16 0
BBX 16 16 0 -4
BITMAP
0000
0000
0000
0000
01E0
0610
7808
0008
0008
0008
0008
0010
0020
00C0
0700
0000
ENDCHAR

STARTCHAR A4C5
ENCODING 42181
SWIDTH 960 0
DWIDTH 16 0
BBX 16 16 0 -4
BITMAP
0000
0004
0012
0009
0784
1840
E020
0020
0020
0020
0020
0040
0080
0300
0C00
0000
ENDCHAR

STARTCHAR A4C6
ENCODING 42182
SWIDTH 960 0
DWIDTH 16 0
BBX 16 16 0 -4
BITMAP
0000
0000
0000
0078
03C0
3C80
0080
0100
0100
0100
0200
0200
0200
0100
00FC
0000
ENDCHAR

STARTCHAR A4C7
ENCODING 42183
SWIDTH 960 0
DWIDTH 16 0
BBX 16 16 0 -4
BITMAP
0000
0004
0002
01D1
0F08
F204
0200
0400
0400
0400
0800
0800
0800
0400
03F8
0000
ENDCHAR

STARTCHAR A4C8
ENCODING 42184
SWIDTH 960 0
DWIDTH 16 0
BBX 16 16 0 -4
BITMAP
0000
0000
0200
0200
0200
0200
0260
0380
0C00
1000
2000
2000
2000
2000
1000
0FF8
ENDCHAR

STARTCHAR A4C9
ENCODING 42185
SWIDTH 960 0
DWIDTH 16 0
BBX 16 16 0 -4
BITMAP
0000
0004
0402
0409
0404
0402
04C0
0700
1800
2000
4000
4000
4000
4000
2000
1FF8
ENDCHAR

STARTCHAR A4CA
ENCODING 42186
SWIDTH 960 0
DWIDTH 16 0
BBX 16 16 0 -4
BITMAP
0000
0200
0200
0380
3C10
0408
0808
0810
1080
1080
2080
47E0
0890
0888
0480
0300
ENDCHAR

STARTCHAR A4CB
ENCODING 42187
SWIDTH 960 0
DWIDTH 16 0
BBX 16 16 0 -4
BITMAP
0000
0000
2000
11FC
1004
1008
1000
2000
2000
2000
4000
4100
5200
5200
31FE
1000
ENDCHAR

STARTCHAR A4CC
ENCODING 42188
SWIDTH 960 0
DWIDTH 16 0
BBX 16 16 0 -4
BITMAP
0000
0000
0800
0800
25E0
2610
2C08
3408
2408
6408
5408
54F0
4918
5524
20C0
0000
ENDCHAR

STARTCHAR A4CD
ENCODING 42189
SWIDTH 960 0
DWIDTH 16 0
BBX 16 16 0 -4
BITMAP
0000
0800
0800
0800
0EF0
7908
0A08
0C08
0808
1808
2808
49F8
CA18
2A14
19E2
0800
ENDCHAR

STARTCHAR A4CE
ENCODING 42190
SWIDTH 960 0
DWIDTH 16 0
BBX 16 16 0 -4
BITMAP
0000
0000
0000
0000
07E0
1910
2108
4204
4204
4204
4404
4404
2808
1010
0060
0180
ENDCHAR

STARTCHAR A4CF
ENCODING 42191
SWIDTH 960 0
DWIDTH 16 0
BBX 16 16 0 -4
BITMAP
0000
0080
2040
1040
1048
2070
23C0
2040
4040
4040
4040
4040
53F0
5448
5444
2380
ENDCHAR

STARTCHAR A4D0
ENCODING 42192
SWIDTH 960 0
DWIDTH 16 0
BBX 16 16 0 -4
BITMAP
0000
0008
2084
1052
1048
2074
23C0
2040
4040
4040
4040
4040
53F0
5448
5444
2380
ENDCHAR

STARTCHAR A4D1
ENCODING 42193
SWIDTH 960 0
DWIDTH 16 0
BBX 16 16 0 -4
BITMAP
0000
000C
2092
1052
104C
2070
23C0
2040
4040
4040
4040
4040
53F8
5444
5442
2380
ENDCHAR

STARTCHAR A4D2
ENCODING 42194
SWIDTH 960 0
DWIDTH 16 0
BBX 16 16 0 -4
BITMAP
0000
0000
0000
0600
3A20
0430
0828
0824
1028
1020
2020
2020
2040
2040
1080
0F00
ENDCHAR

STARTCHAR A4D3
ENCODING 42195
SWIDTH 960 0
DWIDTH 16 0
BBX 16 16 0 -4
BITMAP
0000
0008
0004
0C12
7448
0864
1050
1048
2050
2040
4040
4080
4080
4080
2100
1E00
ENDCHAR

STARTCHAR A4D4
ENCODING 42196
SWIDTH 960 0
DWIDTH 16 0
BBX 16 16 0 -4
BITMAP
0000
000C
0012
0C12
744C
0860
1050
1048
2050
2040
4040
4080
4080
4080
2100
1E00
ENDCHAR

STARTCHAR A4D5
ENCODING 42197
SWIDTH 960 0
DWIDTH 16 0
BBX 16 16 0 -4
BITMAP
0000
0400
0780
0080
0100
0600
0200
0100
0080
03E0
0C90
1088
7084
088C
0480
0300
ENDCHAR

STARTCHAR A4D6
ENCODING 42198
SWIDTH 960 0
DWIDTH 16 0
BBX 16 16 0 -4
BITMAP
0000
0408
0784
0092
0108
0604
0200
0100
0080
03E0
0C90
1088
7084
088C
0480
0300
ENDCHAR

STARTCHAR A4D7
ENCODING 42199
SWIDTH 960 0
DWIDTH 16 0
BBX 16 16 0 -4
BITMAP
0000
040C
0792
0092
010C
0600
0200
0100
0080
03E0
0C90
1088
7084
088C
0480
0300
ENDCHAR

STARTCHAR A4D8
ENCODING 42200
SWIDTH 960 0
DWIDTH 16 0
BBX 16 16 0 -4
BITMAP
0000
0000
0000
0000
0000
0000
0400
0A00
11C0
E030
000E
0000
0000
0000
0000
0000
ENDCHAR

STARTCHAR A4D9
ENCODING 42201
SWIDTH 960 0
DWIDTH 16 0
BBX 16 16 0 -4
BITMAP
0000
0000
0010
0008
0024
0010
0808
1400
2380
C060
001C
0000
0000
0000
0000
0000
ENDCHAR

STARTCHAR A4DA
ENCODING 42202
SWIDTH 960 0
DWIDTH 16 0
BBX 16 16 0 -4
BITMAP
0000
0000
000C
0012
0012
000C
0800
1400
2380
C060
001C
0000
0000
0000
0000
0000
ENDCHAR

STARTCHAR A4DB
ENCODING 42203
SWIDTH 960 0
DWIDTH 16 0
BBX 16 16 0 -4
BITMAP
0000
0000
2070
13C0
1040
1040
1078
27C0
2040
2040
4040
43F0
5448
5444
3480
1300
ENDCHAR

STARTCHAR A4DC
ENCODING 42204
SWIDTH 960 0
DWIDTH 16 0
BBX 16 16 0 -4
BITMAP
0000
0008
4004
20E2
2788
2084
2082
40F0
4F80
4080
4080
43E0
5490
5488
3480
1300
ENDCHAR

STARTCHAR A4DD
ENCODING 42205
SWIDTH 960 0
DWIDTH 16 0
BBX 16 16 0 -4
BITMAP
0000
000C
4012
20F2
278C
2080
2080
40F0
4F80
4080
4080
43E0
5490
5488
3480
1300
ENDCHAR

STARTCHAR A4DE
ENCODING 42206
SWIDTH 960 0
DWIDTH 16 0
BBX 16 16 0 -4
BITMAP
0000
0100
0100
0100
01E0
0F00
0100
0170
3F80
0100
0100
0100
0FC0
1120
1110
0E00
ENDCHAR

STARTCHAR A4DF
ENCODING 42207
SWIDTH 960 0
DWIDTH 16 0
BBX 16 16 0 -4
BITMAP
0000
0000
0100
1E80
0080
0110
0110
0110
1FD0
2220
4230
4C48
3084
0100
0200
0000
ENDCHAR

STARTCHAR A4E0
ENCODING 42208
SWIDTH 960 0
DWIDTH 16 0
BBX 16 16 0 -4
BITMAP
0000
0200
0200
0200
03C0
3E00
020C
0E0A
120C
1208
0C08
0408
0408
0404
0404
03F8
ENDCHAR

STARTCHAR A4E1
ENCODING 42209
SWIDTH 960 0
DWIDTH 16 0
BBX 16 16 0 -4
BITMAP
0000
0000
0000
0840
0840
0840
0FF0
0888
1484
2282
2102
2282
2404
1808
0010
0020
ENDCHAR

STARTCHAR A4E2
ENCODING 42210
SWIDTH 960 0
DWIDTH 16 0
BBX 16 16 0 -4
BITMAP
0000
0200
0200
1200
0FC0
0240
0280
0400
0400
3FE0
0408
0408
0404
0404
0204
01F8
ENDCHAR

STARTCHAR A4E3
ENCODING 42211
SWIDTH 960 0
DWIDTH 16 0
BBX 16 16 0 -4
BITMAP
0000
0000
0100
0080
1E80
11F0
0B08
0C08
7470
0400
0200
0100
0080
0080
0000
0000
ENDCHAR

STARTCHAR A4E4
ENCODING 42212
SWIDTH 960 0
DWIDTH 16 0
BBX 16 16 0 -4
BITMAP
0000
0100
0080
1C80
2380
2078
1184
0E04
1C08
E410
0260
0200
0100
0100
0080
0080
ENDCHAR

STARTCHAR A4E5
ENCODING 42213
SWIDTH 960 0
DWIDTH 16 0
BBX 16 16 0 -4
BITMAP
0000
0000
0100
12E0
1490
2588
2688
2488
2488
2C90
2A90
11E0
0200
0400
0000
0000
ENDCHAR

STARTCHAR A4E6
ENCODING 42214
SWIDTH 960 0
DWIDTH 16 0
BBX 16 16 0 -4
BITMAP
0000
0000
4100
2280
24F0
2788
2488
4488
4488
4C88
4C88
5288
31F0
0100
0200
0400
ENDCHAR

STARTCHAR A4E7
ENCODING 42215
SWIDTH 960 0
DWIDTH 16 0
BBX 16 16 0 -4
BITMAP
0000
0100
0100
0100
01E0
0100
0100
0100
0100
0F80
1160
1110
0E00
0000
0000
0000
ENDCHAR

STARTCHAR A4E8
ENCODING 42216
SWIDTH 960 0
DWIDTH 16 0
BBX 16 16 0 -4
BITMAP
0000
0100
0100
0100
01F0
0100
0100
0100
0100
0100
1FC0
2120
2110
1108
0E00
0000
ENDCHAR

STARTCHAR A4E9
ENCODING 42217
SWIDTH 960 0
DWIDTH 16 0
BBX 16 16 0 -4
BITMAP
0000
0000
0800
0600
0200
0400
0000
21E0
2610
2808
3008
2008
2008
0030
00C0
0000
ENDCHAR

STARTCHAR A4EA
ENCODING 42218
SWIDTH 960 0
DWIDTH 16 0
BBX 16 16 0 -4
BITMAP
0000
0000
1000
09C0
0A20
0C20
0820
0820
0820
0820
0820
0840
0840
0080
0100
0000
ENDCHAR

STARTCHAR A4EB
ENCODING 42219
SWIDTH 960 0
DWIDTH 16 0
BBX 16 16 0 -4
BITMAP
0000
0000
0180
3E40
0080
0100
0100
02F0
0708
0808
1008
2388
0448
0450
03E0
0000
ENDCHAR

STARTCHAR A4EC
ENCODING 42220
SWIDTH 960 0
DWIDTH 16 0
BBX 16 16 0 -4
BITMAP
0000
0000
0800
0800
0E60
78A0
0920
0A20
0C40
0840
1840
2840
2844
6848
1830
0800
ENDCHAR

STARTCHAR A4ED
ENCODING 42221
SWIDTH 960 0
DWIDTH 16 0
BBX 16 16 0 -4
BITMAP
0000
0000
0000
1F80
0080
0100
0200
07F0
0808
1004
2004
0004
0008
0030
00C0
0000
ENDCHAR

STARTCHAR A4EE
ENCODING 42222
SWIDTH 960 0
DWIDTH 16 0
BBX 16 16 0 -4
BITMAP
0000
0800
0800
0800
0DE0
7A10
0C08
0808
1808
2808
6810
1860
0980
0000
0000
0000
ENDCHAR

STARTCHAR A4EF
ENCODING 42223
SWIDTH 960 0
DWIDTH 16 0
BBX 16 16 0 -4
BITMAP
0000
0000
0800
0800
0E00
7800
0BC0
0C30
0808
1808
2808
4808
2810
1820
08C0
0000
ENDCHAR

STARTCHAR A4F0
ENCODING 42224
SWIDTH 960 0
DWIDTH 16 0
BBX 16 16 0 -4
BITMAP
0000
0000
0180
0E80
0080
0100
01F0
0608
0A04
1404
2404
49C4
4A28
5228
21F0
0000
ENDCHAR

STARTCHAR A4F1
ENCODING 42225
SWIDTH 960 0
DWIDTH 16 0
BBX 16 16 0 -4
BITMAP
0000
0000
01C0
0EC0
0100
03F0
0008
0008
0108
0290
01E0
0200
0800
123C
2142
2084
ENDCHAR

STARTCHAR A4F2
ENCODING 42226
SWIDTH 960 0
DWIDTH 16 0
BBX 16 16 0 -4
BITMAP
0000
0200
0200
03C0
3E00
0400
0580
0AB0
0CC8
1090
20E0
0380
0480
0880
0800
07F8
ENDCHAR

STARTCHAR A4F3
ENCODING 42227
SWIDTH 960 0
DWIDTH 16 0
BBX 16 16 0 -4
BITMAP
0000
0000
0100
0100
0200
0200
02C0
0540
0640
0440
0844
0844
0848
1048
1030
0000
ENDCHAR

STARTCHAR A5A1
ENCODING 42401
SWIDTH 960 0
DWIDTH 16 0
BBX 16 16 0 -4
BITMAP
0000
0000
1FF8
0008
0130
00C0
0080
0080
0080
0080
0100
0200
0400
0000
0000
0000
ENDCHAR

STARTCHAR A5A2
ENCODING 42402
SWIDTH 960 0
DWIDTH 16 0
BBX 16 16 0 -4
BITMAP
0000
0000
0000
3FFC
0004
0008
0010
0160
0080
0080
0080
0080
0100
0100
0200
0400
ENDCHAR

STARTCHAR A5A3
ENCODING 42403
SWIDTH 960 0
DWIDTH 16 0
BBX 16 16 0 -4
BITMAP
0000
0040
0040
0080
0100
0300
0500
0900
1100
0100
0100
0100
0100
0000
0000
0000
ENDCHAR

STARTCHAR A5A4
ENCODING 42404
SWIDTH 960 0
DWIDTH 16 0
BBX 16 16 0 -4
BITMAP
0000
0000
0040
0040
0080
0080
0100
0300
0500
0900
1100
2100
0100
0100
0100
0100
ENDCHAR

STARTCHAR A5A5
ENCODING 42405
SWIDTH 960 0
DWIDTH 16 0
BBX 16 16 0 -4
BITMAP
0000
0100
0100
1FF8
1008
1008
1010
0010
0020
0020
0040
0180
0600
0000
0000
0000
ENDCHAR

STARTCHAR A5A6
ENCODING 42406
SWIDTH 960 0
DWIDTH 16 0
BBX 16 16 0 -4
BITMAP
0000
0000
0100
0100
0100
3FFC
2004
2004
2008
0008
0010
0010
0020
0040
0180
0600
ENDCHAR

STARTCHAR A5A7
ENCODING 42407
SWIDTH 960 0
DWIDTH 16 0
BBX 16 16 0 -4
BITMAP
0000
0000
0000
1FFC
0080
0080
0080
0080
0080
0080
3FFE
0000
0000
0000
0000
0000
ENDCHAR

STARTCHAR A5A8
ENCODING 42408
SWIDTH 960 0
DWIDTH 16 0
BBX 16 16 0 -4
BITMAP
0000
0000
0000
0000
0000
3FFC
0080
0080
0080
0080
0080
0080
7FFE
0000
0000
0000
ENDCHAR

STARTCHAR A5A9
ENCODING 42409
SWIDTH 960 0
DWIDTH 16 0
BBX 16 16 0 -4
BITMAP
0000
0080
0080
0080
3FFC
0180
0280
0480
0880
1080
2080
0280
0100
0000
0000
0000
ENDCHAR

STARTCHAR A5AA
ENCODING 42410
SWIDTH 960 0
DWIDTH 16 0
BBX 16 16 0 -4
BITMAP
0000
0000
0080
0080
0080
0080
7FFE
0080
0180
0280
0480
0880
1080
2080
4280
0100
ENDCHAR

STARTCHAR A5AB
ENCODING 42411
SWIDTH 960 0
DWIDTH 16 0
BBX 16 16 0 -4
BITMAP
0000
0000
0200
0200
0200
3FE0
0220
0220
0220
0420
0420
0820
0820
1040
2140
4080
ENDCHAR

STARTCHAR A5AC
ENCODING 42412
SWIDTH 960 0
DWIDTH 16 0
BBX 16 16 0 -4
BITMAP
0000
0004
0102
0109
0104
3FF2
0110
0110
0110
0210
0210
0410
0410
0820
10A0
2040
ENDCHAR

STARTCHAR A5AD
ENCODING 42413
SWIDTH 960 0
DWIDTH 16 0
BBX 16 16 0 -4
BITMAP
0000
0000
0800
0400
0400
02E0
1F00
0200
0200
0170
3F80
0080
0080
0040
0040
0020
ENDCHAR

STARTCHAR A5AE
ENCODING 42414
SWIDTH 960 0
DWIDTH 16 0
BBX 16 16 0 -4
BITMAP
0000
0004
0802
0411
0408
02E4
1F00
0200
0200
0170
3F80
0080
0080
0040
0040
0020
ENDCHAR

STARTCHAR A5AF
ENCODING 42415
SWIDTH 960 0
DWIDTH 16 0
BBX 16 16 0 -4
BITMAP
0000
0000
0100
0100
0100
01F8
0208
0210
0410
0820
1020
0040
0080
0100
0600
1800
ENDCHAR

STARTCHAR A5B0
ENCODING 42416
SWIDTH 960 0
DWIDTH 16 0
BBX 16 16 0 -4
BITMAP
0000
0004
0202
0211
0208
03E4
0420
0420
0840
1040
2080
0080
0100
0200
0C00
3000
ENDCHAR

STARTCHAR A5B1
ENCODING 42417
SWIDTH 960 0
DWIDTH 16 0
BBX 16 16 0 -4
BITMAP
0000
0000
0400
0400
0400
0FFC
0840
1040
2080
0080
0100
0100
0200
0400
0800
1000
ENDCHAR

STARTCHAR A5B2
ENCODING 42418
SWIDTH 960 0
DWIDTH 16 0
BBX 16 16 0 -4
BITMAP
0000
0004
1002
1009
1004
3FF2
2080
4080
8080
0100
0100
0200
0200
0400
0800
1000
ENDCHAR

STARTCHAR A5B3
ENCODING 42419
SWIDTH 960 0
DWIDTH 16 0
BBX 16 16 0 -4
BITMAP
0000
0000
0000
0000
0000
1FF8
0008
0008
0010
0010
0010
1FF8
0000
0000
0000
0000
ENDCHAR

STARTCHAR A5B4
ENCODING 42420
SWIDTH 960 0
DWIDTH 16 0
BBX 16 16 0 -4
BITMAP
0000
0004
0002
0009
0004
3FF2
0010
0010
0020
0020
0020
3FF0
0000
0000
0000
0000
ENDCHAR

STARTCHAR A5B5
ENCODING 42421
SWIDTH 960 0
DWIDTH 16 0
BBX 16 16 0 -4
BITMAP
0000
0000
0040
0440
0440
0440
0440
7FFE
0440
0440
0440
0440
0440
0080
0080
0100
ENDCHAR

STARTCHAR A5B6
ENCODING 42422
SWIDTH 960 0
DWIDTH 16 0
BBX 16 16 0 -4
BITMAP
0000
0004
0002
0089
0884
0882
0880
7FFC
0880
0880
0880
0880
0880
0100
0100
0200
ENDCHAR

STARTCHAR A5B7
ENCODING 42423
SWIDTH 960 0
DWIDTH 16 0
BBX 16 16 0 -4
BITMAP
0000
0000
0000
1800
0400
0200
3008
0810
0420
0040
0080
0100
0200
2400
1800
0000
ENDCHAR

STARTCHAR A5B8
ENCODING 42424
SWIDTH 960 0
DWIDTH 16 0
BBX 16 16 0 -4
BITMAP
0000
0004
0002
1809
0404
0202
3008
0810
0420
0040
0080
0100
0200
2400
1800
0000
ENDCHAR

STARTCHAR A5B9
ENCODING 42425
SWIDTH 960 0
DWIDTH 16 0
BBX 16 16 0 -4
BITMAP
0000
0000
0000
0000
3FF0
0010
0020
0020
0040
0040
00A0
0110
0208
0C04
3000
0000
ENDCHAR

STARTCHAR A5BA
ENCODING 42426
SWIDTH 960 0
DWIDTH 16 0
BBX 16 16 0 -4
BITMAP
0000
0008
0004
0012
0008
3FE4
0020
0040
0040
0080
0080
0140
0220
0410
1808
6004
ENDCHAR

STARTCHAR A5BB
ENCODING 42427
SWIDTH 960 0
DWIDTH 16 0
BBX 16 16 0 -4
BITMAP
0000
0000
0400
0400
0400
0400
07F8
3C08
0410
0420
0400
0400
0400
0400
0400
03FC
ENDCHAR

STARTCHAR A5BC
ENCODING 42428
SWIDTH 960 0
DWIDTH 16 0
BBX 16 16 0 -4
BITMAP
0000
0004
0802
0809
0804
0802
0FC0
7840
0880
0900
0800
0800
0800
0800
07F0
0000
ENDCHAR

STARTCHAR A5BD
ENCODING 42429
SWIDTH 960 0
DWIDTH 16 0
BBX 16 16 0 -4
BITMAP
0000
0000
0000
0020
2010
1010
0810
0420
0420
0040
0040
0080
0100
0200
0C00
3000
ENDCHAR

STARTCHAR A5BE
ENCODING 42430
SWIDTH 960 0
DWIDTH 16 0
BBX 16 16 0 -4
BITMAP
0000
0008
0004
0012
2048
1024
0820
0440
0440
0040
0080
0080
0100
0200
0400
1800
ENDCHAR

STARTCHAR A5BF
ENCODING 42431
SWIDTH 960 0
DWIDTH 16 0
BBX 16 16 0 -4
BITMAP
0000
0000
0400
0400
07E0
0820
1020
2040
4840
0480
0280
0100
0280
0400
1800
6000
ENDCHAR

STARTCHAR A5C0
ENCODING 42432
SWIDTH 960 0
DWIDTH 16 0
BBX 16 16 0 -4
BITMAP
0000
0004
0002
0809
0804
0FC2
1040
1080
2080
4900
0500
0200
0500
0800
1000
6000
ENDCHAR

STARTCHAR A5C1
ENCODING 42433
SWIDTH 960 0
DWIDTH 16 0
BBX 16 16 0 -4
BITMAP
0000
0000
0000
01F0
1F00
0100
0100
7FFE
0100
0100
0200
0200
0400
0400
0800
1000
ENDCHAR

STARTCHAR A5C2
ENCODING 42434
SWIDTH 960 0
DWIDTH 16 0
BBX 16 16 0 -4
BITMAP
0000
0004
0002
0011
01C8
3E04
0200
0200
7FFC
0200
0200
0400
0400
0800
1000
2000
ENDCHAR

STARTCHAR A5C3
ENCODING 42435
SWIDTH 960 0
DWIDTH 16 0
BBX 16 16 0 -4
BITMAP
0000
0000
0400
0210
2110
1020
0820
0040
0040
0080
0100
0600
1800
0000
0000
0000
ENDCHAR

STARTCHAR A5C4
ENCODING 42436
SWIDTH 960 0
DWIDTH 16 0
BBX 16 16 0 -4
BITMAP
0000
0000
0000
0400
0210
2110
1110
0820
0820
0040
0080
0100
0200
0400
1800
2000
ENDCHAR

STARTCHAR A5C5
ENCODING 42437
SWIDTH 960 0
DWIDTH 16 0
BBX 16 16 0 -4
BITMAP
0000
0004
0002
0811
0448
4244
2240
1080
1080
0100
0200
0400
0400
1800
6000
0000
ENDCHAR

STARTCHAR A5C6
ENCODING 42438
SWIDTH 960 0
DWIDTH 16 0
BBX 16 16 0 -4
BITMAP
0000
0000
0000
1FF8
0000
0000
7FFE
0100
0100
0200
0200
0400
0400
0800
1000
2000
ENDCHAR

STARTCHAR A5C7
ENCODING 42439
SWIDTH 960 0
DWIDTH 16 0
BBX 16 16 0 -4
BITMAP
0000
0004
0002
0011
1FC8
0004
0000
7FF8
0080
0080
0100
0100
0200
0400
0800
1000
ENDCHAR

STARTCHAR A5C8
ENCODING 42440
SWIDTH 960 0
DWIDTH 16 0
BBX 16 16 0 -4
BITMAP
0000
0000
0400
0400
0400
0400
0600
0500
0480
0440
0420
0400
0400
0400
0400
0400
ENDCHAR

STARTCHAR A5C9
ENCODING 42441
SWIDTH 960 0
DWIDTH 16 0
BBX 16 16 0 -4
BITMAP
0000
0004
0402
0409
0404
0402
0600
0500
0480
0440
0420
0400
0400
0400
0400
0400
ENDCHAR

STARTCHAR A5CA
ENCODING 42442
SWIDTH 960 0
DWIDTH 16 0
BBX 16 16 0 -4
BITMAP
0000
0000
0100
0100
0100
0100
3FFC
0100
0100
0100
0100
0200
0200
0200
0400
0800
ENDCHAR

STARTCHAR A5CB
ENCODING 42443
SWIDTH 960 0
DWIDTH 16 0
BBX 16 16 0 -4
BITMAP
0000
0000
0000
0000
0000
0000
1FF8
0000
0000
0000
0000
3FFC
0000
0000
0000
0000
ENDCHAR

STARTCHAR A5CC
ENCODING 42444
SWIDTH 960 0
DWIDTH 16 0
BBX 16 16 0 -4
BITMAP
0000
0000
0000
0FF8
0008
0008
0210
0110
00A0
0040
0040
00A0
0110
0208
0400
1800
ENDCHAR

STARTCHAR A5CD
ENCODING 42445
SWIDTH 960 0
DWIDTH 16 0
BBX 16 16 0 -4
BITMAP
0000
0200
0100
0080
0000
1F80
0080
0100
0200
0540
0920
1110
2100
0100
0100
0100
ENDCHAR

STARTCHAR A5CE
ENCODING 42446
SWIDTH 960 0
DWIDTH 16 0
BBX 16 16 0 -4
BITMAP
0000
0000
0000
0010
0010
0010
0020
0020
0040
0040
0080
0100
0200
0400
0800
1000
ENDCHAR

STARTCHAR A5CF
ENCODING 42447
SWIDTH 960 0
DWIDTH 16 0
BBX 16 16 0 -4
BITMAP
0000
0000
0000
0000
0000
0440
0440
0420
0820
0810
1010
1008
2004
4000
0000
0000
ENDCHAR

STARTCHAR A5D0
ENCODING 42448
SWIDTH 960 0
DWIDTH 16 0
BBX 16 16 0 -4
BITMAP
0000
0004
0002
0009
0004
0002
0840
0840
0820
0820
1010
1008
2004
4000
0000
0000
ENDCHAR

STARTCHAR A5D1
ENCODING 42449
SWIDTH 960 0
DWIDTH 16 0
BBX 16 16 0 -4
BITMAP
0000
0006
0009
0009
0006
0000
0840
0840
0820
0820
1010
1008
2004
4000
0000
0000
ENDCHAR

STARTCHAR A5D2
ENCODING 42450
SWIDTH 960 0
DWIDTH 16 0
BBX 16 16 0 -4
BITMAP
0000
0000
0000
0800
0800
0810
0860
0980
0E00
0800
0800
0800
0800
07F8
0000
0000
ENDCHAR

STARTCHAR A5D3
ENCODING 42451
SWIDTH 960 0
DWIDTH 16 0
BBX 16 16 0 -4
BITMAP
0000
0004
0002
0009
2004
2002
2040
2180
2600
3800
2000
2000
2000
2000
1F80
0000
ENDCHAR

STARTCHAR A5D4
ENCODING 42452
SWIDTH 960 0
DWIDTH 16 0
BBX 16 16 0 -4
BITMAP
0000
0006
0009
0009
2006
2000
2040
2180
2600
3800
2000
2000
2000
2000
1FC0
0000
ENDCHAR

STARTCHAR A5D5
ENCODING 42453
SWIDTH 960 0
DWIDTH 16 0
BBX 16 16 0 -4
BITMAP
0000
0000
0000
3FFC
0004
0008
0008
0010
0020
0040
0080
0100
0200
0400
0800
1000
ENDCHAR

STARTCHAR A5D6
ENCODING 42454
SWIDTH 960 0
DWIDTH 16 0
BBX 16 16 0 -4
BITMAP
0000
0004
0002
0009
0004
7FF2
0010
0020
0020
0040
0040
0080
0100
0200
0400
0800
ENDCHAR

STARTCHAR A5D7
ENCODING 42455
SWIDTH 960 0
DWIDTH 16 0
BBX 16 16 0 -4
BITMAP
0000
0006
0009
0009
0006
7FF0
0010
0020
0020
0040
0040
0080
0100
0200
0400
0800
ENDCHAR

STARTCHAR A5D8
ENCODING 42456
SWIDTH 960 0
DWIDTH 16 0
BBX 16 16 0 -4
BITMAP
0000
0000
0000
0000
0000
1800
2400
4300
00C0
0030
000E
0000
0000
0000
0000
0000
ENDCHAR

STARTCHAR A5D9
ENCODING 42457
SWIDTH 960 0
DWIDTH 16 0
BBX 16 16 0 -4
BITMAP
0000
0008
0004
0012
0008
1804
2400
4300
00C0
0030
000C
0000
0000
0000
0000
0000
ENDCHAR

STARTCHAR A5DA
ENCODING 42458
SWIDTH 960 0
DWIDTH 16 0
BBX 16 16 0 -4
BITMAP
0000
0000
0006
0009
0009
1806
2400
4300
00C0
0030
000C
0000
0000
0000
0000
0000
ENDCHAR

STARTCHAR A5DB
ENCODING 42459
SWIDTH 960 0
DWIDTH 16 0
BBX 16 16 0 -4
BITMAP
0000
0000
0100
0100
0100
0100
3FFC
0100
0100
0920
0910
0908
1108
2100
0300
0100
ENDCHAR

STARTCHAR A5DC
ENCODING 42460
SWIDTH 960 0
DWIDTH 16 0
BBX 16 16 0 -4
BITMAP
0000
0004
0002
0089
0084
0082
3FFC
0080
0080
0490
0488
0484
0884
1080
0180
0080
ENDCHAR

STARTCHAR A5DD
ENCODING 42461
SWIDTH 960 0
DWIDTH 16 0
BBX 16 16 0 -4
BITMAP
0000
0006
0009
0089
0086
0080
3FF8
0080
0080
0890
0888
0884
1084
2080
0180
0080
ENDCHAR

STARTCHAR A5DE
ENCODING 42462
SWIDTH 960 0
DWIDTH 16 0
BBX 16 16 0 -4
BITMAP
0000
0000
0000
0000
0000
0000
3FF8
0008
0010
0220
0140
0080
0040
0000
0000
0000
ENDCHAR

STARTCHAR A5DF
ENCODING 42463
SWIDTH 960 0
DWIDTH 16 0
BBX 16 16 0 -4
BITMAP
0000
0000
0000
0E00
0180
0040
0000
0E00
0180
0040
0000
0E00
0180
0040
0020
0000
ENDCHAR

STARTCHAR A5E0
ENCODING 42464
SWIDTH 960 0
DWIDTH 16 0
BBX 16 16 0 -4
BITMAP
0000
0000
0200
0200
0200
0400
0400
0400
0800
0840
1020
1030
23C8
7C08
0000
0000
ENDCHAR

STARTCHAR A5E1
ENCODING 42465
SWIDTH 960 0
DWIDTH 16 0
BBX 16 16 0 -4
BITMAP
0000
0000
0000
0020
0010
0020
0420
0240
0180
0080
0140
0220
0400
0800
1000
0000
ENDCHAR

STARTCHAR A5E2
ENCODING 42466
SWIDTH 960 0
DWIDTH 16 0
BBX 16 16 0 -4
BITMAP
0000
0000
0000
03E0
3E00
0200
0200
03FC
7E00
0200
0200
0200
0200
0200
01FC
0000
ENDCHAR

STARTCHAR A5E3
ENCODING 42467
SWIDTH 960 0
DWIDTH 16 0
BBX 16 16 0 -4
BITMAP
0000
0000
0800
0800
07F8
3C08
0110
0120
0080
0080
0040
0040
0020
0000
0000
0000
ENDCHAR

STARTCHAR A5E4
ENCODING 42468
SWIDTH 960 0
DWIDTH 16 0
BBX 16 16 0 -4
BITMAP
0000
0000
1000
0800
0800
0400
05FC
7E04
0208
0110
0100
0080
0080
0040
0040
0020
ENDCHAR

STARTCHAR A5E5
ENCODING 42469
SWIDTH 960 0
DWIDTH 16 0
BBX 16 16 0 -4
BITMAP
0000
0000
0000
0FF0
0010
0010
0010
0020
0020
3FFC
0000
0000
0000
0000
0000
0000
ENDCHAR

STARTCHAR A5E6
ENCODING 42470
SWIDTH 960 0
DWIDTH 16 0
BBX 16 16 0 -4
BITMAP
0000
0000
0000
0000
1FF8
0008
0008
0008
0010
0010
0010
7FFE
0000
0000
0000
0000
ENDCHAR

STARTCHAR A5E7
ENCODING 42471
SWIDTH 960 0
DWIDTH 16 0
BBX 16 16 0 -4
BITMAP
0000
0000
0000
1FF8
0008
0008
1FF8
0008
0008
1FF8
0008
0000
0000
0000
0000
0000
ENDCHAR

STARTCHAR A5E8
ENCODING 42472
SWIDTH 960 0
DWIDTH 16 0
BBX 16 16 0 -4
BITMAP
0000
0000
0000
0000
3FFC
0004
0004
0004
3FFC
0004
0004
0004
3FFC
0004
0000
0000
ENDCHAR

STARTCHAR A5E9
ENCODING 42473
SWIDTH 960 0
DWIDTH 16 0
BBX 16 16 0 -4
BITMAP
0000
0000
0000
0FF0
0000
0000
3FF8
0008
0008
0010
0010
0020
0040
0080
0300
0C00
ENDCHAR

STARTCHAR A5EA
ENCODING 42474
SWIDTH 960 0
DWIDTH 16 0
BBX 16 16 0 -4
BITMAP
0000
0000
0040
0440
0440
0440
0440
0440
0440
0440
0440
0040
0080
0080
0300
0C00
ENDCHAR

STARTCHAR A5EB
ENCODING 42475
SWIDTH 960 0
DWIDTH 16 0
BBX 16 16 0 -4
BITMAP
0000
0000
0480
0480
0480
0480
0480
0480
0482
0484
0888
0890
10A0
20C0
4000
0000
ENDCHAR

STARTCHAR A5EC
ENCODING 42476
SWIDTH 960 0
DWIDTH 16 0
BBX 16 16 0 -4
BITMAP
0000
0000
0000
1000
1000
1004
1008
1010
1020
1040
1080
1100
1200
1C00
0000
0000
ENDCHAR

STARTCHAR A5ED
ENCODING 42477
SWIDTH 960 0
DWIDTH 16 0
BBX 16 16 0 -4
BITMAP
0000
0000
0000
2000
1FF8
1008
1008
1010
0810
0810
0810
0FF8
0800
0000
0000
0000
ENDCHAR

STARTCHAR A5EE
ENCODING 42478
SWIDTH 960 0
DWIDTH 16 0
BBX 16 16 0 -4
BITMAP
0000
0000
1FF0
1010
1010
1010
0010
0020
0020
0040
0080
0100
0200
0000
0000
0000
ENDCHAR

STARTCHAR A5EF
ENCODING 42479
SWIDTH 960 0
DWIDTH 16 0
BBX 16 16 0 -4
BITMAP
0000
0000
0000
1FF8
1008
1008
1008
1008
1008
0010
0010
0020
0020
0040
0080
0100
ENDCHAR

STARTCHAR A5F0
ENCODING 42480
SWIDTH 960 0
DWIDTH 16 0
BBX 16 16 0 -4
BITMAP
0000
0000
0080
0080
0080
1FF0
1080
1080
1080
1080
7FF8
0080
0080
0080
0080
0080
ENDCHAR

STARTCHAR A5F1
ENCODING 42481
SWIDTH 960 0
DWIDTH 16 0
BBX 16 16 0 -4
BITMAP
0000
0000
0000
0000
0000
3FF0
0020
02C0
0100
0100
0100
0100
7FFC
0000
0000
0000
ENDCHAR

STARTCHAR A5F2
ENCODING 42482
SWIDTH 960 0
DWIDTH 16 0
BBX 16 16 0 -4
BITMAP
0000
0000
0000
0000
1FF0
0010
0010
7FF8
0020
0020
0040
0040
0080
0100
0200
0400
ENDCHAR

STARTCHAR A5F3
ENCODING 42483
SWIDTH 960 0
DWIDTH 16 0
BBX 16 16 0 -4
BITMAP
0000
0000
0000
1002
0804
0408
0010
0020
0040
0080
0100
0200
2400
1800
0000
0000
ENDCHAR

STARTCHAR A5F4
ENCODING 42484
SWIDTH 960 0
DWIDTH 16 0
BBX 16 16 0 -4
BITMAP
0000
0004
0102
0109
0104
3FF2
2010
2010
2010
0010
0020
0040
0080
0100
0200
0400
ENDCHAR

STARTCHAR A5F5
ENCODING 42485
SWIDTH 960 0
DWIDTH 16 0
BBX 16 16 0 -4
BITMAP
0000
0000
0000
0100
0100
0100
0FE0
0120
0120
0220
0220
0220
0540
0880
0000
0000
ENDCHAR

STARTCHAR A5F6
ENCODING 42486
SWIDTH 960 0
DWIDTH 16 0
BBX 16 16 0 -4
BITMAP
0000
0000
0000
0400
0400
0400
0FE0
1080
2080
0100
0100
0200
0400
0800
0000
0000
ENDCHAR

STARTCHAR A6A1
ENCODING 42657
SWIDTH 960 0
DWIDTH 16 0
BBX 16 16 0 -4
BITMAP
0000
0000
0100
0280
0280
0440
0440
0820
0FE0
1010
1010
2008
701C
0000
0000
0000
ENDCHAR

STARTCHAR A6A2
ENCODING 42658
SWIDTH 960 0
DWIDTH 16 0
BBX 16 16 0 -4
BITMAP
0000
0000
7FF0
2008
2008
2008
2010
3FE0
2010
2008
2008
2008
7FF0
0000
0000
0000
ENDCHAR

STARTCHAR A6A3
ENCODING 42659
SWIDTH 960 0
DWIDTH 16 0
BBX 16 16 0 -4
BITMAP
0000
0000
7FFC
2004
2004
2000
2000
2000
2000
2000
2000
2000
7000
0000
0000
0000
ENDCHAR

STARTCHAR A6A4
ENCODING 42660
SWIDTH 960 0
DWIDTH 16 0
BBX 16 16 0 -4
BITMAP
0000
0000
0100
0280
0440
0440
0820
0820
1010
1010
2008
2008
7FFC
0000
0000
0000
ENDCHAR

STARTCHAR A6A5
ENCODING 42661
SWIDTH 960 0
DWIDTH 16 0
BBX 16 16 0 -4
BITMAP
0000
0000
7FFE
2002
2002
2010
3FF0
2010
2000
2000
2002
2002
7FFE
0000
0000
0000
ENDCHAR

STARTCHAR A6A6
ENCODING 42662
SWIDTH 960 0
DWIDTH 16 0
BBX 16 16 0 -4
BITMAP
0000
0000
3FFC
2008
2010
0020
0040
0080
0100
0200
0404
0804
1FFC
0000
0000
0000
ENDCHAR

STARTCHAR A6A7
ENCODING 42663
SWIDTH 960 0
DWIDTH 16 0
BBX 16 16 0 -4
BITMAP
0000
0000
700E
2004
2004
2004
2004
3FFC
2004
2004
2004
2004
700E
0000
0000
0000
ENDCHAR

STARTCHAR A6A8
ENCODING 42664
SWIDTH 960 0
DWIDTH 16 0
BBX 16 16 0 -4
BITMAP
0000
0000
0FF0
1008
2004
2004
2814
2FF4
2814
2004
2004
1008
0FF0
0000
0000
0000
ENDCHAR

STARTCHAR A6A9
ENCODING 42665
SWIDTH 960 0
DWIDTH 16 0
BBX 16 16 0 -4
BITMAP
0000
0000
01C0
0080
0080
0080
0080
0080
0080
0080
0080
0080
01C0
0000
0000
0000
ENDCHAR

STARTCHAR A6AA
ENCODING 42666
SWIDTH 960 0
DWIDTH 16 0
BBX 16 16 0 -4
BITMAP
0000
0000
71C0
2100
2200
2400
2800
3800
2400
2200
2100
2080
70E0
0000
0000
0000
ENDCHAR

STARTCHAR A6AB
ENCODING 42667
SWIDTH 960 0
DWIDTH 16 0
BBX 16 16 0 -4
BITMAP
0000
0000
0100
0280
0280
0440
0440
0820
0820
1010
1010
2008
701C
0000
0000
0000
ENDCHAR

STARTCHAR A6AC
ENCODING 42668
SWIDTH 960 0
DWIDTH 16 0
BBX 16 16 0 -4
BITMAP
0000
0000
6003
3006
280A
2412
2222
2142
2082
2002
2002
2002
7007
0000
0000
0000
ENDCHAR

STARTCHAR A6AD
ENCODING 42669
SWIDTH 960 0
DWIDTH 16 0
BBX 16 16 0 -4
BITMAP
0000
0000
600E
3004
2804
2404
2204
2104
2084
2044
2024
2014
700C
0006
0000
0000
ENDCHAR

STARTCHAR A6AE
ENCODING 42670
SWIDTH 960 0
DWIDTH 16 0
BBX 16 16 0 -4
BITMAP
0000
0000
3FFC
2004
2004
0810
0FF0
0810
0000
2004
2004
3FFC
0000
0000
0000
0000
ENDCHAR

STARTCHAR A6AF
ENCODING 42671
SWIDTH 960 0
DWIDTH 16 0
BBX 16 16 0 -4
BITMAP
0000
0000
07C0
0820
1010
2008
2008
2008
2008
2008
1010
0820
07C0
0000
0000
0000
ENDCHAR

STARTCHAR A6B0
ENCODING 42672
SWIDTH 960 0
DWIDTH 16 0
BBX 16 16 0 -4
BITMAP
0000
0000
3FFC
1008
1008
1008
1008
1008
1008
1008
1008
1008
381C
0000
0000
0000
ENDCHAR

STARTCHAR A6B1
ENCODING 42673
SWIDTH 960 0
DWIDTH 16 0
BBX 16 16 0 -4
BITMAP
0000
0000
7FF0
2008
2004
2004
2008
3FF0
2000
2000
2000
2000
7000
0000
0000
0000
ENDCHAR

STARTCHAR A6B2
ENCODING 42674
SWIDTH 960 0
DWIDTH 16 0
BBX 16 16 0 -4
BITMAP
0000
0000
7FFC
2004
1004
0800
0400
0200
0400
0800
1004
2004
7FFC
0000
0000
0000
ENDCHAR

STARTCHAR A6B3
ENCODING 42675
SWIDTH 960 0
DWIDTH 16 0
BBX 16 16 0 -4
BITMAP
0000
0000
3FFE
2082
2082
0080
0080
0080
0080
0080
0080
0080
01C0
0000
0000
0000
ENDCHAR

STARTCHAR A6B4
ENCODING 42676
SWIDTH 960 0
DWIDTH 16 0
BBX 16 16 0 -4
BITMAP
0000
0000
0060
0690
0910
0100
0100
0100
0100
0100
0100
0100
0380
0000
0000
0000
ENDCHAR

STARTCHAR A6B5
ENCODING 42677
SWIDTH 960 0
DWIDTH 16 0
BBX 16 16 0 -4
BITMAP
0000
0000
00E0
0040
03F8
0444
0842
0842
0842
0444
03F8
0040
00E0
0000
0000
0000
ENDCHAR

STARTCHAR A6B6
ENCODING 42678
SWIDTH 960 0
DWIDTH 16 0
BBX 16 16 0 -4
BITMAP
0000
0000
701C
1010
0820
0440
0280
0100
0280
0440
0820
1010
701C
0000
0000
0000
ENDCHAR

STARTCHAR A6B7
ENCODING 42679
SWIDTH 960 0
DWIDTH 16 0
BBX 16 16 0 -4
BITMAP
0000
0000
41C2
2084
2084
2084
2084
2084
2084
1FF8
0080
0080
01C0
0000
0000
0000
ENDCHAR

STARTCHAR A6B8
ENCODING 42680
SWIDTH 960 0
DWIDTH 16 0
BBX 16 16 0 -4
BITMAP
0000
0000
0FE0
1010
2008
2008
2008
2008
2008
1010
4824
4444
7C7C
0000
0000
0000
ENDCHAR

STARTCHAR A6C1
ENCODING 42689
SWIDTH 960 0
DWIDTH 16 0
BBX 16 16 0 -4
BITMAP
0000
0000
0000
0000
0740
08C0
1040
1040
1040
1040
1040
08D0
0720
0000
0000
0000
ENDCHAR

STARTCHAR A6C2
ENCODING 42690
SWIDTH 960 0
DWIDTH 16 0
BBX 16 16 0 -4
BITMAP
0000
0000
0780
0840
0840
0880
0F00
08C0
0820
0820
0820
0C40
0B80
0800
0800
0800
ENDCHAR

STARTCHAR A6C3
ENCODING 42691
SWIDTH 960 0
DWIDTH 16 0
BBX 16 16 0 -4
BITMAP
0000
0000
0000
0000
0C10
1220
2220
0140
0140
0140
0180
0180
0100
0100
0100
0100
ENDCHAR

STARTCHAR A6C4
ENCODING 42692
SWIDTH 960 0
DWIDTH 16 0
BBX 16 16 0 -4
BITMAP
0000
0000
0380
0440
0200
0100
02C0
0420
0820
0820
0820
0420
03C0
0000
0000
0000
ENDCHAR

STARTCHAR A6C5
ENCODING 42693
SWIDTH 960 0
DWIDTH 16 0
BBX 16 16 0 -4
BITMAP
0000
0000
0000
0000
01C0
0220
0200
0100
00C0
0100
0200
0220
01C0
0000
0000
0000
ENDCHAR

STARTCHAR A6C6
ENCODING 42694
SWIDTH 960 0
DWIDTH 16 0
BBX 16 16 0 -4
BITMAP
0000
0000
0180
0230
0460
0380
0100
0200
0200
0400
0400
0200
01F0
0010
0010
01E0
ENDCHAR

STARTCHAR A6C7
ENCODING 42695
SWIDTH 960 0
DWIDTH 16 0
BBX 16 16 0 -4
BITMAP
0000
0000
0000
0000
11C0
2A20
0420
0420
0420
0420
0420
0420
0420
0020
0020
0020
ENDCHAR

STARTCHAR A6C8
ENCODING 42696
SWIDTH 960 0
DWIDTH 16 0
BBX 16 16 0 -4
BITMAP
0000
0000
0380
0440
0820
0820
0820
0FE0
0820
0820
0820
0440
0380
0000
0000
0000
ENDCHAR

STARTCHAR A6C9
ENCODING 42697
SWIDTH 960 0
DWIDTH 16 0
BBX 16 16 0 -4
BITMAP
0000
0000
0000
0000
0180
0080
0080
0080
0080
0080
0080
00A0
00C0
0000
0000
0000
ENDCHAR

STARTCHAR A6CA
ENCODING 42698
SWIDTH 960 0
DWIDTH 16 0
BBX 16 16 0 -4
BITMAP
0000
0000
0000
0000
1830
0840
0880
0D00
0A00
0900
0880
0840
1C70
0000
0000
0000
ENDCHAR

STARTCHAR A6CB
ENCODING 42699
SWIDTH 960 0
DWIDTH 16 0
BBX 16 16 0 -4
BITMAP
0000
0000
0E00
0200
0100
0300
0280
0280
0280
0440
0450
0850
1020
0000
0000
0000
ENDCHAR

STARTCHAR A6CC
ENCODING 42700
SWIDTH 960 0
DWIDTH 16 0
BBX 16 16 0 -4
BITMAP
0000
0000
0000
0000
0840
0840
0840
0840
0840
0840
0840
0CD0
0B20
0800
0800
0800
ENDCHAR

STARTCHAR A6CD
ENCODING 42701
SWIDTH 960 0
DWIDTH 16 0
BBX 16 16 0 -4
BITMAP
0000
0000
0000
0000
1820
0810
0820
0420
0420
0240
0240
0280
0100
0000
0000
0000
ENDCHAR

STARTCHAR A6CE
ENCODING 42702
SWIDTH 960 0
DWIDTH 16 0
BBX 16 16 0 -4
BITMAP
0000
0000
0300
0400
03C0
0200
0400
03C0
0200
0400
0400
0400
03E0
0010
0010
01E0
ENDCHAR

STARTCHAR A6CF
ENCODING 42703
SWIDTH 960 0
DWIDTH 16 0
BBX 16 16 0 -4
BITMAP
0000
0000
0000
0000
0780
0840
1020
1020
1020
1020
1020
0840
0780
0000
0000
0000
ENDCHAR

STARTCHAR A6D0
ENCODING 42704
SWIDTH 960 0
DWIDTH 16 0
BBX 16 16 0 -4
BITMAP
0000
0000
0000
0000
1FFC
0220
0220
0220
0220
0220
0220
0428
0810
0000
0000
0000
ENDCHAR

STARTCHAR A6D1
ENCODING 42705
SWIDTH 960 0
DWIDTH 16 0
BBX 16 16 0 -4
BITMAP
0000
0000
0000
0000
0780
0840
1020
1020
1020
1020
1820
1440
1380
1000
1000
1000
ENDCHAR

STARTCHAR A6D2
ENCODING 42706
SWIDTH 960 0
DWIDTH 16 0
BBX 16 16 0 -4
BITMAP
0000
0000
0000
0000
07F0
0840
1020
1020
1020
1020
1020
0840
0780
0000
0000
0000
ENDCHAR

STARTCHAR A6D3
ENCODING 42707
SWIDTH 960 0
DWIDTH 16 0
BBX 16 16 0 -4
BITMAP
0000
0000
0000
0000
07C0
0900
0100
0100
0100
0100
0100
0140
0080
0000
0000
0000
ENDCHAR

STARTCHAR A6D4
ENCODING 42708
SWIDTH 960 0
DWIDTH 16 0
BBX 16 16 0 -4
BITMAP
0000
0000
0000
0000
0840
1420
0420
0420
0420
0420
0420
0420
03C0
0000
0000
0000
ENDCHAR

STARTCHAR A6D5
ENCODING 42709
SWIDTH 960 0
DWIDTH 16 0
BBX 16 16 0 -4
BITMAP
0000
0000
0100
0100
07C0
0920
1110
1110
1110
1110
1110
0920
07C0
0100
0100
0100
ENDCHAR

STARTCHAR A6D6
ENCODING 42710
SWIDTH 960 0
DWIDTH 16 0
BBX 16 16 0 -4
BITMAP
0000
0000
0C10
1420
0240
0280
0280
0100
0280
0280
0480
0480
0850
0860
0000
0000
ENDCHAR

STARTCHAR A6D7
ENCODING 42711
SWIDTH 960 0
DWIDTH 16 0
BBX 16 16 0 -4
BITMAP
0000
0000
0100
0100
1940
2920
0920
0920
0920
0920
0920
0920
07C0
0100
0100
0100
ENDCHAR

STARTCHAR A6D8
ENCODING 42712
SWIDTH 960 0
DWIDTH 16 0
BBX 16 16 0 -4
BITMAP
0000
0000
0000
0000
0440
0820
1110
1110
1110
1110
1110
1290
0C60
0000
0000
0000
ENDCHAR

STARTCHAR A7A1
ENCODING 42913
SWIDTH 960 0
DWIDTH 16 0
BBX 16 16 0 -4
BITMAP
0000
0000
0080
0140
0140
0220
0220
0410
07F0
0808
0808
1004
380E
0000
0000
0000
ENDCHAR

STARTCHAR A7A2
ENCODING 42914
SWIDTH 960 0
DWIDTH 16 0
BBX 16 16 0 -4
BITMAP
0000
0000
7FFC
2004
2004
2000
2000
3FF0
2008
2004
2004
2008
7FF0
0000
0000
0000
ENDCHAR

STARTCHAR A7A3
ENCODING 42915
SWIDTH 960 0
DWIDTH 16 0
BBX 16 16 0 -4
BITMAP
0000
0000
7FF0
2008
2004
2004
2008
3FF0
2008
2004
2004
2008
7FF0
0000
0000
0000
ENDCHAR

STARTCHAR A7A4
ENCODING 42916
SWIDTH 960 0
DWIDTH 16 0
BBX 16 16 0 -4
BITMAP
0000
0000
7FFC
2004
2004
2000
2000
2000
2000
2000
2000
2000
7000
0000
0000
0000
ENDCHAR

STARTCHAR A7A5
ENCODING 42917
SWIDTH 960 0
DWIDTH 16 0
BBX 16 16 0 -4
BITMAP
0000
0000
1FFC
0408
0408
0408
0408
0408
0808
0808
1008
3FFC
2004
0000
0000
0000
ENDCHAR

STARTCHAR A7A6
ENCODING 42918
SWIDTH 960 0
DWIDTH 16 0
BBX 16 16 0 -4
BITMAP
0000
0000
7FFE
2002
2002
2000
2010
3FF0
2010
2000
2002
2002
7FFE
0000
0000
0000
ENDCHAR

STARTCHAR A7A7
ENCODING 42919
SWIDTH 960 0
DWIDTH 16 0
BBX 16 16 0 -4
BITMAP
0000
0810
0000
7FFE
2002
2002
2010
3FF0
2010
2000
2002
2002
7FFE
0000
0000
0000
ENDCHAR

STARTCHAR A7A8
ENCODING 42920
SWIDTH 960 0
DWIDTH 16 0
BBX 16 16 0 -4
BITMAP
0000
0000
4384
A10A
1110
0920
07C0
0540
0920
0920
1110
2108
C386
0000
0000
0000
ENDCHAR

STARTCHAR A7A9
ENCODING 42921
SWIDTH 960 0
DWIDTH 16 0
BBX 16 16 0 -4
BITMAP
0000
0000
17F0
1808
1004
0004
0008
00F0
0008
2004
2004
1008
0FF0
0000
0000
0000
ENDCHAR

STARTCHAR A7AA
ENCODING 42922
SWIDTH 960 0
DWIDTH 16 0
BBX 16 16 0 -4
BITMAP
0000
0000
700C
2018
2028
2048
2088
2108
2208
2408
2808
3008
601C
0000
0000
0000
ENDCHAR

STARTCHAR A7AB
ENCODING 42923
SWIDTH 960 0
DWIDTH 16 0
BBX 16 16 0 -4
BITMAP
0000
0440
744C
2398
2028
2048
2088
2108
2208
2408
2808
3008
601C
0000
0000
0000
ENDCHAR

STARTCHAR A7AC
ENCODING 42924
SWIDTH 960 0
DWIDTH 16 0
BBX 16 16 0 -4
BITMAP
0000
0000
7060
2080
2100
2200
3C00
2200
2100
2080
2040
2020
7038
0000
0000
0000
ENDCHAR

STARTCHAR A7AD
ENCODING 42925
SWIDTH 960 0
DWIDTH 16 0
BBX 16 16 0 -4
BITMAP
0000
0000
1FF8
0810
0810
0810
0810
0810
0810
0810
0810
4810
3038
0000
0000
0000
ENDCHAR

STARTCHAR A7AE
ENCODING 42926
SWIDTH 960 0
DWIDTH 16 0
BBX 16 16 0 -4
BITMAP
0000
0000
C006
600C
5014
4824
4444
4284
4104
4004
4004
4004
E00E
0000
0000
0000
ENDCHAR

STARTCHAR A7AF
ENCODING 42927
SWIDTH 960 0
DWIDTH 16 0
BBX 16 16 0 -4
BITMAP
0000
0000
700E
2004
2004
2004
2004
3FFC
2004
2004
2004
2004
700E
0000
0000
0000
ENDCHAR

STARTCHAR A7B0
ENCODING 42928
SWIDTH 960 0
DWIDTH 16 0
BBX 16 16 0 -4
BITMAP
0000
0000
07C0
0820
1010
2008
2008
2008
2008
2008
1010
0820
07C0
0000
0000
0000
ENDCHAR

STARTCHAR A7B1
ENCODING 42929
SWIDTH 960 0
DWIDTH 16 0
BBX 16 16 0 -4
BITMAP
0000
0000
3FFC
1008
1008
1008
1008
1008
1008
1008
1008
1008
381C
0000
0000
0000
ENDCHAR

STARTCHAR A7B2
ENCODING 42930
SWIDTH 960 0
DWIDTH 16 0
BBX 16 16 0 -4
BITMAP
0000
0000
7FF0
2008
2004
2004
2008
3FF0
2000
2000
2000
2000
7000
0000
0000
0000
ENDCHAR

STARTCHAR A7B3
ENCODING 42931
SWIDTH 960 0
DWIDTH 16 0
BBX 16 16 0 -4
BITMAP
0000
0000
0FE8
1018
2008
2000
2000
2000
2000
2004
2004
1008
0FF0
0000
0000
0000
ENDCHAR

STARTCHAR A7B4
ENCODING 42932
SWIDTH 960 0
DWIDTH 16 0
BBX 16 16 0 -4
BITMAP
0000
0000
3FFE
2082
2082
0080
0080
0080
0080
0080
0080
0080
03E0
0000
0000
0000
ENDCHAR

STARTCHAR A7B5
ENCODING 42933
SWIDTH 960 0
DWIDTH 16 0
BBX 16 16 0 -4
BITMAP
0000
0000
701C
2008
1008
0810
0420
0220
0140
0080
0100
1200
0C00
0000
0000
0000
ENDCHAR

STARTCHAR A7B6
ENCODING 42934
SWIDTH 960 0
DWIDTH 16 0
BBX 16 16 0 -4
BITMAP
0000
0000
380E
0808
0410
0220
0140
0080
0140
0220
0410
0808
380E
0000
0000
0000
ENDCHAR

STARTCHAR A7B7
ENCODING 42935
SWIDTH 960 0
DWIDTH 16 0
BBX 16 16 0 -4
BITMAP
0000
0000
01C0
0080
0FF8
1084
2082
2082
2082
1084
0FF8
0080
01C0
0000
0000
0000
ENDCHAR

STARTCHAR A7B8
ENCODING 42936
SWIDTH 960 0
DWIDTH 16 0
BBX 16 16 0 -4
BITMAP
0000
0000
381C
1008
1008
1008
1008
1008
1008
1008
1008
1008
3FFC
0002
0002
0000
ENDCHAR

STARTCHAR A7B9
ENCODING 42937
SWIDTH 960 0
DWIDTH 16 0
BBX 16 16 0 -4
BITMAP
0000
0000
1C1C
0808
0808
0808
0808
0808
0418
03E8
0008
0008
001C
0000
0000
0000
ENDCHAR

STARTCHAR A7BA
ENCODING 42938
SWIDTH 960 0
DWIDTH 16 0
BBX 16 16 0 -4
BITMAP
0000
0000
739C
2108
2108
2108
2108
2108
2108
2108
2108
2108
7FFC
0000
0000
0000
ENDCHAR

STARTCHAR A7BB
ENCODING 42939
SWIDTH 960 0
DWIDTH 16 0
BBX 16 16 0 -4
BITMAP
0000
0000
739C
2108
2108
2108
2108
2108
2108
2108
2108
2108
7FFC
0004
0004
0000
ENDCHAR

STARTCHAR A7BC
ENCODING 42940
SWIDTH 960 0
DWIDTH 16 0
BBX 16 16 0 -4
BITMAP
0000
0000
3E00
2400
0400
0400
07F8
0404
0402
0402
0402
0404
0FF8
0000
0000
0000
ENDCHAR

STARTCHAR A7BD
ENCODING 42941
SWIDTH 960 0
DWIDTH 16 0
BBX 16 16 0 -4
BITMAP
0000
0000
700E
2004
2004
2004
3F04
2084
2044
2044
2044
2084
7F0E
0000
0000
0000
ENDCHAR

STARTCHAR A7BE
ENCODING 42942
SWIDTH 960 0
DWIDTH 16 0
BBX 16 16 0 -4
BITMAP
0000
0000
1C00
0800
0800
0800
0FF0
0808
0804
0804
0804
0808
1FF0
0000
0000
0000
ENDCHAR

STARTCHAR A7BF
ENCODING 42943
SWIDTH 960 0
DWIDTH 16 0
BBX 16 16 0 -4
BITMAP
0000
0000
2FF0
3008
2004
0002
0002
01FE
0002
0002
2004
1008
0FF0
0000
0000
0000
ENDCHAR

STARTCHAR A7C0
ENCODING 42944
SWIDTH 960 0
DWIDTH 16 0
BBX 16 16 0 -4
BITMAP
0000
0000
71F0
2208
2404
2404
2404
3C04
2404
2404
2404
2208
71F0
0000
0000
0000
ENDCHAR

STARTCHAR A7C1
ENCODING 42945
SWIDTH 960 0
DWIDTH 16 0
BBX 16 16 0 -4
BITMAP
0000
0000
03FE
0404
0804
0804
0404
03FC
0024
00C4
0304
0404
1C0E
0000
0000
0000
ENDCHAR

STARTCHAR A7D1
ENCODING 42961
SWIDTH 960 0
DWIDTH 16 0
BBX 16 16 0 -4
BITMAP
0000
0000
0000
0000
0780
0840
0040
0F40
10C0
1040
1040
08D0
0720
0000
0000
0000
ENDCHAR

STARTCHAR A7D2
ENCODING 42962
SWIDTH 960 0
DWIDTH 16 0
BBX 16 16 0 -4
BITMAP
0000
0010
03E0
0400
0800
0BC0
0C20
0810
0810
0810
0810
0420
03C0
0000
0000
0000
ENDCHAR

STARTCHAR A7D3
ENCODING 42963
SWIDTH 960 0
DWIDTH 16 0
BBX 16 16 0 -4
BITMAP
0000
0000
0000
0000
1F80
0840
0840
0840
0F80
0840
0820
0820
1FC0
0000
0000
0000
ENDCHAR

STARTCHAR A7D4
ENCODING 42964
SWIDTH 960 0
DWIDTH 16 0
BBX 16 16 0 -4
BITMAP
0000
0000
0000
0000
1FF0
0810
0800
0800
0800
0800
0800
0800
1C00
0000
0000
0000
ENDCHAR

STARTCHAR A7D5
ENCODING 42965
SWIDTH 960 0
DWIDTH 16 0
BBX 16 16 0 -4
BITMAP
0000
0000
0000
0000
07F8
0210
0210
0210
0210
0410
0410
0810
1FF8
1008
0000
0000
ENDCHAR

STARTCHAR A7D6
ENCODING 42966
SWIDTH 960 0
DWIDTH 16 0
BBX 16 16 0 -4
BITMAP
0000
0000
0000
0000
0780
0840
1020
1020
1FE0
1000
1000
0820
07C0
0000
0000
0000
ENDCHAR

STARTCHAR A7D7
ENCODING 42967
SWIDTH 960 0
DWIDTH 16 0
BBX 16 16 0 -4
BITMAP
0000
0000
0480
0000
0780
0840
1020
1020
1FE0
1000
1000
0820
07C0
0000
0000
0000
ENDCHAR

STARTCHAR A7D8
ENCODING 42968
SWIDTH 960 0
DWIDTH 16 0
BBX 16 16 0 -4
BITMAP
0000
0000
0000
0000
3398
0920
0920
0540
07C0
0920
0920
1110
2388
0000
0000
0000
ENDCHAR

STARTCHAR A7D9
ENCODING 42969
SWIDTH 960 0
DWIDTH 16 0
BBX 16 16 0 -4
BITMAP
0000
0000
0000
0000
0BC0
0C20
0820
0020
01C0
0020
0020
0820
07C0
0000
0000
0000
ENDCHAR

STARTCHAR A7DA
ENCODING 42970
SWIDTH 960 0
DWIDTH 16 0
BBX 16 16 0 -4
BITMAP
0000
0000
0000
0000
3870
1020
1060
10A0
1120
1220
1420
1820
3070
0000
0000
0000
ENDCHAR

STARTCHAR A7DB
ENCODING 42971
SWIDTH 960 0
DWIDTH 16 0
BBX 16 16 0 -4
BITMAP
0000
0000
0480
0300
3870
1020
1060
10A0
1120
1220
1420
1820
3070
0000
0000
0000
ENDCHAR

STARTCHAR A7DC
ENCODING 42972
SWIDTH 960 0
DWIDTH 16 0
BBX 16 16 0 -4
BITMAP
0000
0000
0000
0000
1C60
0880
0880
0900
0E00
0900
0880
0890
1C60
0000
0000
0000
ENDCHAR

STARTCHAR A7DD
ENCODING 42973
SWIDTH 960 0
DWIDTH 16 0
BBX 16 16 0 -4
BITMAP
0000
0000
0000
0000
0FF8
0410
0410
0410
0410
0410
1410
0838
0000
0000
0000
0000
ENDCHAR

STARTCHAR A7DE
ENCODING 42974
SWIDTH 960 0
DWIDTH 16 0
BBX 16 16 0 -4
BITMAP
0000
0000
0000
0000
3838
1010
1830
1450
1450
1290
1290
1110
3838
0000
0000
0000
ENDCHAR

STARTCHAR A7DF
ENCODING 42975
SWIDTH 960 0
DWIDTH 16 0
BBX 16 16 0 -4
BITMAP
0000
0000
0000
0000
1C38
0810
0810
0810
0FF0
0810
0810
0810
1C38
0000
0000
0000
ENDCHAR

STARTCHAR A7E0
ENCODING 42976
SWIDTH 960 0
DWIDTH 16 0
BBX 16 16 0 -4
BITMAP
0000
0000
0000
0000
0700
0880
1040
1040
1040
1040
1040
0880
0700
0000
0000
0000
ENDCHAR

STARTCHAR A7E1
ENCODING 42977
SWIDTH 960 0
DWIDTH 16 0
BBX 16 16 0 -4
BITMAP
0000
0000
0000
0000
1FF0
0820
0820
0820
0820
0820
0820
0820
1C70
0000
0000
0000
ENDCHAR

STARTCHAR A7E2
ENCODING 42978
SWIDTH 960 0
DWIDTH 16 0
BBX 16 16 0 -4
BITMAP
0000
0000
0000
0000
0000
0B80
1C40
0820
0820
0820
0820
0C40
0B80
0800
0800
1C00
ENDCHAR

STARTCHAR A7E3
ENCODING 42979
SWIDTH 960 0
DWIDTH 16 0
BBX 16 16 0 -4
BITMAP
0000
0000
0000
0000
0780
0840
1040
1000
1000
1000
1020
0840
0780
0000
0000
0000
ENDCHAR

STARTCHAR A7E4
ENCODING 42980
SWIDTH 960 0
DWIDTH 16 0
BBX 16 16 0 -4
BITMAP
0000
0000
0000
0000
1FF8
1108
0100
0100
0100
0100
0100
0100
0380
0000
0000
0000
ENDCHAR

STARTCHAR A7E5
ENCODING 42981
SWIDTH 960 0
DWIDTH 16 0
BBX 16 16 0 -4
BITMAP
0000
0000
0000
0000
1C70
0820
0820
0840
0440
0480
0280
0100
0100
0200
1400
0800
ENDCHAR

STARTCHAR A7E6
ENCODING 42982
SWIDTH 960 0
DWIDTH 16 0
BBX 16 16 0 -4
BITMAP
0000
0000
0100
0100
0D60
1390
1110
1110
1110
1110
1110
1390
0D60
0100
0100
0380
ENDCHAR

STARTCHAR A7E7
ENCODING 42983
SWIDTH 960 0
DWIDTH 16 0
BBX 16 16 0 -4
BITMAP
0000
0000
0000
0000
1C70
0820
0440
0280
0100
0280
0440
0820
1C70
0000
0000
0000
ENDCHAR

STARTCHAR A7E8
ENCODING 42984
SWIDTH 960 0
DWIDTH 16 0
BBX 16 16 0 -4
BITMAP
0000
0000
0000
0000
1C70
0820
0820
0820
0820
0820
0820
0820
1FF0
0010
0000
0000
ENDCHAR

STARTCHAR A7E9
ENCODING 42985
SWIDTH 960 0
DWIDTH 16 0
BBX 16 16 0 -4
BITMAP
0000
0000
0000
0000
0E60
0420
0420
0420
03E0
0020
0020
0020
0070
0000
0000
0000
ENDCHAR

STARTCHAR A7EA
ENCODING 42986
SWIDTH 960 0
DWIDTH 16 0
BBX 16 16 0 -4
BITMAP
0000
0000
0000
0000
3BB8
1110
1110
1110
1110
1110
1110
1110
3FF8
0000
0000
0000
ENDCHAR

STARTCHAR A7EB
ENCODING 42987
SWIDTH 960 0
DWIDTH 16 0
BBX 16 16 0 -4
BITMAP
0000
0000
0000
0000
3BB8
1110
1110
1110
1110
1110
1110
1110
3FF8
0008
0000
0000
ENDCHAR

STARTCHAR A7EC
ENCODING 42988
SWIDTH 960 0
DWIDTH 16 0
BBX 16 16 0 -4
BITMAP
0000
0000
0000
0000
3C00
2800
0800
0800
0FC0
0820
0820
0820
1FC0
0000
0000
0000
ENDCHAR

STARTCHAR A7ED
ENCODING 42989
SWIDTH 960 0
DWIDTH 16 0
BBX 16 16 0 -4
BITMAP
0000
0000
0000
0000
381C
1008
1008
1008
1F08
1088
1088
1088
3F1C
0000
0000
0000
ENDCHAR

STARTCHAR A7EE
ENCODING 42990
SWIDTH 960 0
DWIDTH 16 0
BBX 16 16 0 -4
BITMAP
0000
0000
0000
0000
1C00
0800
0800
0800
0FC0
0820
0820
0820
1FC0
0000
0000
0000
ENDCHAR

STARTCHAR A7EF
ENCODING 42991
SWIDTH 960 0
DWIDTH 16 0
BBX 16 16 0 -4
BITMAP
0000
0000
0000
0000
0780
0040
0020
0020
01E0
0020
0820
0840
0780
0000
0000
0000
ENDCHAR

STARTCHAR A7F0
ENCODING 42992
SWIDTH 960 0
DWIDTH 16 0
BBX 16 16 0 -4
BITMAP
0000
0000
0000
0000
38C0
1120
1210
1210
1E10
1210
1210
1120
38C0
0000
0000
0000
ENDCHAR

STARTCHAR A7F1
ENCODING 42993
SWIDTH 960 0
DWIDTH 16 0
BBX 16 16 0 -4
BITMAP
0000
0000
0000
0000
01F8
0210
0210
0210
01F0
0090
0110
0510
0238
0000
0000
0000
ENDCHAR

STARTCHAR A8A1
ENCODING 43169
SWIDTH 960 0
DWIDTH 16 0
BBX 16 16 0 -4
BITMAP
0000
0000
0000
0FC0
0000
0000
0340
04C0
0840
0840
0840
0840
0840
07A0
0000
0000
ENDCHAR

STARTCHAR A8A2
ENCODING 43170
SWIDTH 960 0
DWIDTH 16 0
BBX 16 16 0 -4
BITMAP
0000
0000
0040
0080
0100
0000
01A0
0260
0420
0420
0420
0420
03D0
0000
0000
0000
ENDCHAR

STARTCHAR A8A3
ENCODING 43171
SWIDTH 960 0
DWIDTH 16 0
BBX 16 16 0 -4
BITMAP
0000
0000
0440
0280
0100
0000
0340
04C0
0840
0840
0840
0840
0840
07A0
0000
0000
ENDCHAR

STARTCHAR A8A4
ENCODING 43172
SWIDTH 960 0
DWIDTH 16 0
BBX 16 16 0 -4
BITMAP
0000
0000
0200
0100
0080
0000
0340
04C0
0840
0840
0840
0840
0840
07A0
0000
0000
ENDCHAR

STARTCHAR A8A5
ENCODING 43173
SWIDTH 960 0
DWIDTH 16 0
BBX 16 16 0 -4
BITMAP
0000
0000
0000
07C0
0000
0000
0380
0440
0820
0FE0
0800
0800
0420
03C0
0000
0000
ENDCHAR

STARTCHAR A8A6
ENCODING 43174
SWIDTH 960 0
DWIDTH 16 0
BBX 16 16 0 -4
BITMAP
0000
0000
0080
0100
0200
0000
0380
0440
0820
0FE0
0800
0800
0420
03C0
0000
0000
ENDCHAR

STARTCHAR A8A7
ENCODING 43175
SWIDTH 960 0
DWIDTH 16 0
BBX 16 16 0 -4
BITMAP
0000
0000
0000
0440
0280
0100
0380
0440
0820
0FE0
0800
0800
0420
03C0
0000
0000
ENDCHAR

STARTCHAR A8A8
ENCODING 43176
SWIDTH 960 0
DWIDTH 16 0
BBX 16 16 0 -4
BITMAP
0000
0000
0200
0100
0080
0000
0380
0440
0820
0FE0
0800
0800
0420
03C0
0000
0000
ENDCHAR

STARTCHAR A8A9
ENCODING 43177
SWIDTH 960 0
DWIDTH 16 0
BBX 16 16 0 -4
BITMAP
0000
0000
0000
0380
0000
0000
0100
0100
0100
0100
0100
0100
0100
0100
0000
0000
ENDCHAR

STARTCHAR A8AA
ENCODING 43178
SWIDTH 960 0
DWIDTH 16 0
BBX 16 16 0 -4
BITMAP
0000
0000
0080
0100
0200
0000
0100
0100
0100
0100
0100
0100
0100
0100
0000
0000
ENDCHAR

STARTCHAR A8AB
ENCODING 43179
SWIDTH 960 0
DWIDTH 16 0
BBX 16 16 0 -4
BITMAP
0000
0000
0440
0280
0100
0000
0100
0100
0100
0100
0100
0100
0100
0100
0000
0000
ENDCHAR

STARTCHAR A8AC
ENCODING 43180
SWIDTH 960 0
DWIDTH 16 0
BBX 16 16 0 -4
BITMAP
0000
0000
0200
0100
0080
0000
0100
0100
0100
0100
0100
0100
0100
0100
0000
0000
ENDCHAR

STARTCHAR A8AD
ENCODING 43181
SWIDTH 960 0
DWIDTH 16 0
BBX 16 16 0 -4
BITMAP
0000
0000
0000
07C0
0000
0000
0380
0440
0820
0820
0820
0820
0440
0380
0000
0000
ENDCHAR

STARTCHAR A8AE
ENCODING 43182
SWIDTH 960 0
DWIDTH 16 0
BBX 16 16 0 -4
BITMAP
0000
0000
0080
0100
0200
0000
0380
0440
0820
0820
0820
0820
0440
0380
0000
0000
ENDCHAR

STARTCHAR A8AF
ENCODING 43183
SWIDTH 960 0
DWIDTH 16 0
BBX 16 16 0 -4
BITMAP
0000
0000
0220
0140
0080
0000
01C0
0220
0410
0410
0410
0410
0220
01C0
0000
0000
ENDCHAR

STARTCHAR A8B0
ENCODING 43184
SWIDTH 960 0
DWIDTH 16 0
BBX 16 16 0 -4
BITMAP
0000
0000
0100
0080
0040
0000
01C0
0220
0410
0410
0410
0410
0220
01C0
0000
0000
ENDCHAR

STARTCHAR A8B1
ENCODING 43185
SWIDTH 960 0
DWIDTH 16 0
BBX 16 16 0 -4
BITMAP
0000
0000
0000
07F0
0000
0000
0410
0410
0410
0410
0410
0410
0230
01D0
0000
0000
ENDCHAR

STARTCHAR A8B2
ENCODING 43186
SWIDTH 960 0
DWIDTH 16 0
BBX 16 16 0 -4
BITMAP
0000
0000
0040
0080
0100
0000
0410
0410
0410
0410
0410
0410
0230
01D0
0000
0000
ENDCHAR

STARTCHAR A8B3
ENCODING 43187
SWIDTH 960 0
DWIDTH 16 0
BBX 16 16 0 -4
BITMAP
0000
0000
0440
0280
0100
0000
0820
0820
0820
0820
0820
0820
0460
03A0
0000
0000
ENDCHAR

STARTCHAR A8B4
ENCODING 43188
SWIDTH 960 0
DWIDTH 16 0
BBX 16 16 0 -4
BITMAP
0000
0000
0200
0100
0080
0000
0820
0820
0820
0820
0820
0820
0460
03A0
0000
0000
ENDCHAR

STARTCHAR A8B5
ENCODING 43189
SWIDTH 960 0
DWIDTH 16 0
BBX 16 16 0 -4
BITMAP
0000
0000
07F0
0000
0140
0000
0410
0410
0410
0410
0410
0410
0230
01D0
0000
0000
ENDCHAR

STARTCHAR A8B6
ENCODING 43190
SWIDTH 960 0
DWIDTH 16 0
BBX 16 16 0 -4
BITMAP
0000
0080
0100
0200
0000
0280
0820
0820
0820
0820
0820
0820
0460
03A0
0000
0000
ENDCHAR

STARTCHAR A8B7
ENCODING 43191
SWIDTH 960 0
DWIDTH 16 0
BBX 16 16 0 -4
BITMAP
0000
0440
0280
0100
0000
0280
0820
0820
0820
0820
0820
0820
0460
03A0
0000
0000
ENDCHAR

STARTCHAR A8B8
ENCODING 43192
SWIDTH 960 0
DWIDTH 16 0
BBX 16 16 0 -4
BITMAP
0000
0200
0100
0080
0000
0280
0820
0820
0820
0820
0820
0820
0460
03A0
0000
0000
ENDCHAR

STARTCHAR A8B9
ENCODING 43193
SWIDTH 960 0
DWIDTH 16 0
BBX 16 16 0 -4
BITMAP
0000
0000
0000
0000
0280
0000
0820
0820
0820
0820
0820
0820
0460
03A0
0000
0000
ENDCHAR

STARTCHAR A8BA
ENCODING 43194
SWIDTH 960 0
DWIDTH 16 0
BBX 16 16 0 -4
BITMAP
0000
0000
0000
0100
0280
0440
0380
0440
0820
0FE0
0800
0800
0420
03C0
0000
0000
ENDCHAR

STARTCHAR A8C5
ENCODING 43205
SWIDTH 960 0
DWIDTH 16 0
BBX 16 16 0 -4
BITMAP
0000
0000
0800
0800
1000
3FFC
0004
0004
0004
0004
0004
0004
0004
0008
0088
0050
ENDCHAR

STARTCHAR A8C6
ENCODING 43206
SWIDTH 960 0
DWIDTH 16 0
BBX 16 16 0 -4
BITMAP
0000
0000
0400
0400
0800
1FFC
0004
0004
0108
0088
0050
0020
0050
0188
0600
1800
ENDCHAR

STARTCHAR A8C7
ENCODING 43207
SWIDTH 960 0
DWIDTH 16 0
BBX 16 16 0 -4
BITMAP
0000
0000
0000
0000
0000
3FFC
2004
2004
2004
2004
2004
2004
2004
0000
0000
0000
ENDCHAR

STARTCHAR A8C8
ENCODING 43208
SWIDTH 960 0
DWIDTH 16 0
BBX 16 16 0 -4
BITMAP
0000
0000
0000
3FFE
1000
1000
1000
1000
1000
1000
1000
1000
1000
1000
0FFE
0000
ENDCHAR

STARTCHAR A8C9
ENCODING 43209
SWIDTH 960 0
DWIDTH 16 0
BBX 16 16 0 -4
BITMAP
0000
0000
0200
0200
0400
0FFC
0084
0084
0084
0084
0104
0104
0204
0408
0888
1050
ENDCHAR

STARTCHAR A8CA
ENCODING 43210
SWIDTH 960 0
DWIDTH 16 0
BBX 16 16 0 -4
BITMAP
0000
0000
0100
0100
0100
0100
7FFC
0100
0100
0200
0200
0400
0810
1FF8
0004
0000
ENDCHAR

STARTCHAR A8CB
ENCODING 43211
SWIDTH 960 0
DWIDTH 16 0
BBX 16 16 0 -4
BITMAP
0000
0000
0000
1FE0
0020
0040
0040
00FC
0004
0004
0004
0004
0004
0008
0088
0050
ENDCHAR

STARTCHAR A8CC
ENCODING 43212
SWIDTH 960 0
DWIDTH 16 0
BBX 16 16 0 -4
BITMAP
0000
0000
0100
1100
1100
1100
1FFC
0104
0104
0104
0204
0204
0204
0404
0808
1028
ENDCHAR

STARTCHAR A8CD
ENCODING 43213
SWIDTH 960 0
DWIDTH 16 0
BBX 16 16 0 -4
BITMAP
0000
0000
0000
0220
0220
0440
0440
0880
0880
1100
0880
0880
0440
0440
0220
0220
ENDCHAR

STARTCHAR A8CE
ENCODING 43214
SWIDTH 960 0
DWIDTH 16 0
BBX 16 16 0 -4
BITMAP
0000
0000
0000
7FFE
0200
0200
0400
0FF8
0008
0008
0008
0008
0008
0008
0010
0050
ENDCHAR

STARTCHAR A8CF
ENCODING 43215
SWIDTH 960 0
DWIDTH 16 0
BBX 16 16 0 -4
BITMAP
0000
0000
0000
3FFE
1000
1000
1000
1000
1000
1000
1000
1000
1000
1000
2000
4000
ENDCHAR

STARTCHAR A8D0
ENCODING 43216
SWIDTH 960 0
DWIDTH 16 0
BBX 16 16 0 -4
BITMAP
0000
0000
0020
0420
0420
0420
0420
0420
0420
0860
09A0
0E20
0020
0020
0020
0020
ENDCHAR

STARTCHAR A8D1
ENCODING 43217
SWIDTH 960 0
DWIDTH 16 0
BBX 16 16 0 -4
BITMAP
0000
0000
0080
0080
0080
0100
0100
0200
0200
0400
0200
0200
0100
0100
0080
0040
ENDCHAR

STARTCHAR A8D2
ENCODING 43218
SWIDTH 960 0
DWIDTH 16 0
BBX 16 16 0 -4
BITMAP
0000
0000
0000
7FFE
0100
0100
0100
0100
0100
0100
0100
0100
0100
0100
0100
0100
ENDCHAR

STARTCHAR A8D3
ENCODING 43219
SWIDTH 960 0
DWIDTH 16 0
BBX 16 16 0 -4
BITMAP
0000
0000
0100
0100
1110
1110
1110
1110
1110
1110
1FF0
0100
0100
0100
7FFE
0000
ENDCHAR

STARTCHAR A8D4
ENCODING 43220
SWIDTH 960 0
DWIDTH 16 0
BBX 16 16 0 -4
BITMAP
0000
0000
0020
0040
0080
0120
0240
0480
0980
1280
0480
0880
1080
2080
0080
0080
ENDCHAR

STARTCHAR A8D5
ENCODING 43221
SWIDTH 960 0
DWIDTH 16 0
BBX 16 16 0 -4
BITMAP
0000
0000
0000
07FC
0004
0004
07FC
0400
0400
0400
0400
0400
0400
0800
0800
1000
ENDCHAR

STARTCHAR A8D6
ENCODING 43222
SWIDTH 960 0
DWIDTH 16 0
BBX 16 16 0 -4
BITMAP
0000
0000
0000
07F0
0410
0410
0410
0510
0490
0450
0410
0410
0410
0410
07F0
0000
ENDCHAR

STARTCHAR A8D7
ENCODING 43223
SWIDTH 960 0
DWIDTH 16 0
BBX 16 16 0 -4
BITMAP
0000
0000
0000
0FF8
0208
0208
0208
0208
0208
0210
0290
0260
0200
0200
0200
0200
ENDCHAR

STARTCHAR A8D8
ENCODING 43224
SWIDTH 960 0
DWIDTH 16 0
BBX 16 16 0 -4
BITMAP
0000
0000
0100
0100
0100
7FFE
0200
0200
07F8
0008
0008
0010
0010
0010
0020
00A0
ENDCHAR

STARTCHAR A8D9
ENCODING 43225
SWIDTH 960 0
DWIDTH 16 0
BBX 16 16 0 -4
BITMAP
0000
0000
0200
0200
0200
0200
0400
0400
0400
0800
0800
1020
2010
7FF0
0008
0000
ENDCHAR

STARTCHAR A8DA
ENCODING 43226
SWIDTH 960 0
DWIDTH 16 0
BBX 16 16 0 -4
BITMAP
0000
0000
1008
0810
0420
0240
0080
0080
0080
0080
0080
0080
0080
0080
0080
0080
ENDCHAR

STARTCHAR A8DB
ENCODING 43227
SWIDTH 960 0
DWIDTH 16 0
BBX 16 16 0 -4
BITMAP
0000
0000
0000
7FFE
0080
0080
0780
0800
1000
1000
1000
1000
1004
0808
07F0
0000
ENDCHAR

STARTCHAR A8DC
ENCODING 43228
SWIDTH 960 0
DWIDTH 16 0
BBX 16 16 0 -4
BITMAP
0000
0000
0100
0100
0100
7FFE
0100
0100
0F00
1000
2000
2000
2000
2010
1020
0FC0
ENDCHAR

STARTCHAR A8DD
ENCODING 43229
SWIDTH 960 0
DWIDTH 16 0
BBX 16 16 0 -4
BITMAP
0000
0000
0000
0840
0840
0840
7FFE
0840
0840
0840
0880
0880
0900
0800
07F0
0000
ENDCHAR

STARTCHAR A8DE
ENCODING 43230
SWIDTH 960 0
DWIDTH 16 0
BBX 16 16 0 -4
BITMAP
0000
0000
0000
7FFE
1100
1100
1100
1FFC
0104
0104
0104
0204
0204
0408
0808
1010
ENDCHAR

STARTCHAR A8DF
ENCODING 43231
SWIDTH 960 0
DWIDTH 16 0
BBX 16 16 0 -4
BITMAP
0000
0000
0000
1C00
0400
0400
0400
0200
0200
0200
0100
0100
0080
0040
0020
0018
ENDCHAR

STARTCHAR A8E0
ENCODING 43232
SWIDTH 960 0
DWIDTH 16 0
BBX 16 16 0 -4
BITMAP
0000
0000
0200
0200
0420
0420
0840
0840
1F80
0100
0200
0420
0810
1FF8
0004
0000
ENDCHAR

STARTCHAR A8E1
ENCODING 43233
SWIDTH 960 0
DWIDTH 16 0
BBX 16 16 0 -4
BITMAP
0000
0000
0000
0000
0FF8
0008
0010
0210
0120
00A0
0040
0060
0090
0108
0200
0400
ENDCHAR

STARTCHAR A8E2
ENCODING 43234
SWIDTH 960 0
DWIDTH 16 0
BBX 16 16 0 -4
BITMAP
0000
0000
3FF0
0810
0810
0810
1020
1020
1FFE
0002
0002
0002
0004
0004
0008
0010
ENDCHAR

STARTCHAR A8E3
ENCODING 43235
SWIDTH 960 0
DWIDTH 16 0
BBX 16 16 0 -4
BITMAP
0000
0000
0800
0800
0800
0800
1000
1000
1000
1FFC
0004
0004
0004
0008
0008
0010
ENDCHAR

STARTCHAR A8E4
ENCODING 43236
SWIDTH 960 0
DWIDTH 16 0
BBX 16 16 0 -4
BITMAP
0000
0000
0100
0100
0100
0100
7FFE
0140
0140
0140
0240
0240
0240
0440
0840
303C
ENDCHAR

STARTCHAR A8E5
ENCODING 43237
SWIDTH 960 0
DWIDTH 16 0
BBX 16 16 0 -4
BITMAP
0000
0000
0000
0100
0100
0100
0200
0200
0400
0400
0800
1000
2000
3FFC
0000
0000
ENDCHAR

STARTCHAR A8E6
ENCODING 43238
SWIDTH 960 0
DWIDTH 16 0
BBX 16 16 0 -4
BITMAP
0000
0000
0000
0240
0240
0240
0240
0240
0240
0240
0240
0240
0442
0442
0842
303E
ENDCHAR

STARTCHAR A8E7
ENCODING 43239
SWIDTH 960 0
DWIDTH 16 0
BBX 16 16 0 -4
BITMAP
0000
0000
0100
0100
0100
0100
0100
0100
0100
0100
0100
0100
0100
0100
0100
0100
ENDCHAR

STARTCHAR A8E8
ENCODING 43240
SWIDTH 960 0
DWIDTH 16 0
BBX 16 16 0 -4
BITMAP
0000
0000
0008
0008
0010
0810
0420
0220
0140
00C0
0080
0140
0120
0210
0408
1800
ENDCHAR

STARTCHAR A8E9
ENCODING 43241
SWIDTH 960 0
DWIDTH 16 0
BBX 16 16 0 -4
BITMAP
0000
0000
0000
0000
0008
1008
1008
1008
1008
1008
2008
2078
3F88
0008
0000
0000
ENDCHAR

STARTCHAR A9A4
ENCODING 43428
SWIDTH 960 0
DWIDTH 16 0
BBX 16 16 0 -4
BITMAP
0000
0000
0000
0000
0000
0000
0000
0000
FFFF
0000
0000
0000
0000
0000
0000
0000
ENDCHAR

STARTCHAR A9A5
ENCODING 43429
SWIDTH 960 0
DWIDTH 16 0
BBX 16 16 0 -4
BITMAP
0000
0000
0000
0000
0000
0000
0000
0000
FFFF
FFFF
0000
0000
0000
0000
0000
0000
ENDCHAR

STARTCHAR A9A6
ENCODING 43430
SWIDTH 960 0
DWIDTH 16 0
BBX 16 16 0 -4
BITMAP
0000
0100
0100
0100
0100
0100
0100
0100
0100
0100
0100
0100
0100
0100
0100
0100
ENDCHAR

STARTCHAR A9A7
ENCODING 43431
SWIDTH 960 0
DWIDTH 16 0
BBX 16 16 0 -4
BITMAP
0000
0180
0180
0180
0180
0180
0180
0180
0180
0180
0180
0180
0180
0180
0180
0180
ENDCHAR

STARTCHAR A9A8
ENCODING 43432
SWIDTH 960 0
DWIDTH 16 0
BBX 16 16 0 -4
BITMAP
0000
0000
0000
0000
0000
0000
0000
0000
F3CF
0000
0000
0000
0000
0000
0000
0000
ENDCHAR

STARTCHAR A9A9
ENCODING 43433
SWIDTH 960 0
DWIDTH 16 0
BBX 16 16 0 -4
BITMAP
0000
0000
0000
0000
0000
0000
0000
0000
F3CF
F3CF
0000
0000
0000
0000
0000
0000
ENDCHAR

STARTCHAR A9AA
ENCODING 43434
SWIDTH 960 0
DWIDTH 16 0
BBX 16 16 0 -4
BITMAP
0000
0100
0100
0100
0100
0000
0000
0100
0100
0100
0100
0000
0000
0100
0100
0100
ENDCHAR

STARTCHAR A9AB
ENCODING 43435
SWIDTH 960 0
DWIDTH 16 0
BBX 16 16 0 -4
BITMAP
0000
0180
0180
0180
0180
0000
0000
0180
0180
0180
0180
0000
0000
0180
0180
0180
ENDCHAR

STARTCHAR A9AC
ENCODING 43436
SWIDTH 960 0
DWIDTH 16 0
BBX 16 16 0 -4
BITMAP
0000
0000
0000
0000
0000
0000
0000
0000
CE73
0000
0000
0000
0000
0000
0000
0000
ENDCHAR

STARTCHAR A9AD
ENCODING 43437
SWIDTH 960 0
DWIDTH 16 0
BBX 16 16 0 -4
BITMAP
0000
0000
0000
0000
0000
0000
0000
0000
CE73
CE73
0000
0000
0000
0000
0000
0000
ENDCHAR

STARTCHAR A9AE
ENCODING 43438
SWIDTH 960 0
DWIDTH 16 0
BBX 16 16 0 -4
BITMAP
0000
0100
0100
0000
0000
0100
0100
0100
0000
0000
0100
0100
0100
0000
0000
0100
ENDCHAR

STARTCHAR A9AF
ENCODING 43439
SWIDTH 960 0
DWIDTH 16 0
BBX 16 16 0 -4
BITMAP
0000
0180
0180
0000
0000
0180
0180
0180
0000
0000
0180
0180
0180
0000
0000
0180
ENDCHAR

STARTCHAR A9B0
ENCODING 43440
SWIDTH 960 0
DWIDTH 16 0
BBX 16 16 0 -4
BITMAP
0000
0000
0000
0000
0000
0000
0000
0000
01FF
0100
0100
0100
0100
0100
0100
0100
ENDCHAR

STARTCHAR A9B1
ENCODING 43441
SWIDTH 960 0
DWIDTH 16 0
BBX 16 16 0 -4
BITMAP
0000
0000
0000
0000
0000
0000
0000
0000
01FF
01FF
0100
0100
0100
0100
0100
0100
ENDCHAR

STARTCHAR A9B2
ENCODING 43442
SWIDTH 960 0
DWIDTH 16 0
BBX 16 16 0 -4
BITMAP
0000
0000
0000
0000
0000
0000
0000
0000
01FF
0180
0180
0180
0180
0180
0180
0180
ENDCHAR

STARTCHAR A9B3
ENCODING 43443
SWIDTH 960 0
DWIDTH 16 0
BBX 16 16 0 -4
BITMAP
0000
0000
0000
0000
0000
0000
0000
0000
01FF
01FF
0180
0180
0180
0180
0180
0180
ENDCHAR

STARTCHAR A9B4
ENCODING 43444
SWIDTH 960 0
DWIDTH 16 0
BBX 16 16 0 -4
BITMAP
0000
0000
0000
0000
0000
0000
0000
0000
FF00
0100
0100
0100
0100
0100
0100
0100
ENDCHAR

STARTCHAR A9B5
ENCODING 43445
SWIDTH 960 0
DWIDTH 16 0
BBX 16 16 0 -4
BITMAP
0000
0000
0000
0000
0000
0000
0000
0000
FF00
FF00
0100
0100
0100
0100
0100
0100
ENDCHAR

STARTCHAR A9B6
ENCODING 43446
SWIDTH 960 0
DWIDTH 16 0
BBX 16 16 0 -4
BITMAP
0000
0000
0000
0000
0000
0000
0000
0000
FF80
0180
0180
0180
0180
0180
0180
0180
ENDCHAR

STARTCHAR A9B7
ENCODING 43447
SWIDTH 960 0
DWIDTH 16 0
BBX 16 16 0 -4
BITMAP
0000
0000
0000
0000
0000
0000
0000
0000
FF80
FF80
0180
0180
0180
0180
0180
0180
ENDCHAR

STARTCHAR A9B8
ENCODING 43448
SWIDTH 960 0
DWIDTH 16 0
BBX 16 16 0 -4
BITMAP
0000
0100
0100
0100
0100
0100
0100
0100
01FF
0000
0000
0000
0000
0000
0000
0000
ENDCHAR

STARTCHAR A9B9
ENCODING 43449
SWIDTH 960 0
DWIDTH 16 0
BBX 16 16 0 -4
BITMAP
0000
0100
0100
0100
0100
0100
0100
0100
01FF
01FF
0000
0000
0000
0000
0000
0000
ENDCHAR

STARTCHAR A9BA
ENCODING 43450
SWIDTH 960 0
DWIDTH 16 0
BBX 16 16 0 -4
BITMAP
0000
0180
0180
0180
0180
0180
0180
0180
01FF
0000
0000
0000
0000
0000
0000
0000
ENDCHAR

STARTCHAR A9BB
ENCODING 43451
SWIDTH 960 0
DWIDTH 16 0
BBX 16 16 0 -4
BITMAP
0000
0180
0180
0180
0180
0180
0180
0180
01FF
01FF
0000
0000
0000
0000
0000
0000
ENDCHAR

STARTCHAR A9BC
ENCODING 43452
SWIDTH 960 0
DWIDTH 16 0
BBX 16 16 0 -4
BITMAP
0000
0100
0100
0100
0100
0100
0100
0100
FF00
0000
0000
0000
0000
0000
0000
0000
ENDCHAR

STARTCHAR A9BD
ENCODING 43453
SWIDTH 960 0
DWIDTH 16 0
BBX 16 16 0 -4
BITMAP
0000
0100
0100
0100
0100
0100
0100
0100
FF00
FF00
0000
0000
0000
0000
0000
0000
ENDCHAR

STARTCHAR A9BE
ENCODING 43454
SWIDTH 960 0
DWIDTH 16 0
BBX 16 16 0 -4
BITMAP
0000
0180
0180
0180
0180
0180
0180
0180
FF80
0000
0000
0000
0000
0000
0000
0000
ENDCHAR

STARTCHAR A9BF
ENCODING 43455
SWIDTH 960 0
DWIDTH 16 0
BBX 16 16 0 -4
BITMAP
0000
0180
0180
0180
0180
0180
0180
0180
FF80
FF80
0000
0000
0000
0000
0000
0000
ENDCHAR

STARTCHAR A9C0
ENCODING 43456
SWIDTH 960 0
DWIDTH 16 0
BBX 16 16 0 -4
BITMAP
0000
0100
0100
0100
0100
0100
0100
0100
01FF
0100
0100
0100
0100
0100
0100
0100
ENDCHAR

STARTCHAR A9C1
ENCODING 43457
SWIDTH 960 0
DWIDTH 16 0
BBX 16 16 0 -4
BITMAP
0000
0100
0100
0100
0100
0100
0100
0100
01FF
01FF
0100
0100
0100
0100
0100
0100
ENDCHAR

STARTCHAR A9C2
ENCODING 43458
SWIDTH 960 0
DWIDTH 16 0
BBX 16 16 0 -4
BITMAP
0000
0180
0180
0180
0180
0180
0180
0180
01FF
0100
0100
0100
0100
0100
0100
0100
ENDCHAR

STARTCHAR A9C3
ENCODING 43459
SWIDTH 960 0
DWIDTH 16 0
BBX 16 16 0 -4
BITMAP
0000
0100
0100
0100
0100
0100
0100
0100
01FF
0180
0180
0180
0180
0180
0180
0180
ENDCHAR

STARTCHAR A9C4
ENCODING 43460
SWIDTH 960 0
DWIDTH 16 0
BBX 16 16 0 -4
BITMAP
0000
0180
0180
0180
0180
0180
0180
0180
01FF
0180
0180
0180
0180
0180
0180
0180
ENDCHAR

STARTCHAR A9C5
ENCODING 43461
SWIDTH 960 0
DWIDTH 16 0
BBX 16 16 0 -4
BITMAP
0000
0180
0180
0180
0180
0180
0180
0180
01FF
01FF
0100
0100
0100
0100
0100
0100
ENDCHAR

STARTCHAR A9C6
ENCODING 43462
SWIDTH 960 0
DWIDTH 16 0
BBX 16 16 0 -4
BITMAP
0000
0100
0100
0100
0100
0100
0100
0100
01FF
01FF
0180
0180
0180
0180
0180
0180
ENDCHAR

STARTCHAR A9C7
ENCODING 43463
SWIDTH 960 0
DWIDTH 16 0
BBX 16 16 0 -4
BITMAP
0000
0180
0180
0180
0180
0180
0180
0180
01FF
01FF
0180
0180
0180
0180
0180
0180
ENDCHAR

STARTCHAR A9C8
ENCODING 43464
SWIDTH 960 0
DWIDTH 16 0
BBX 16 16 0 -4
BITMAP
0000
0100
0100
0100
0100
0100
0100
0100
FF00
0100
0100
0100
0100
0100
0100
0100
ENDCHAR

STARTCHAR A9C9
ENCODING 43465
SWIDTH 960 0
DWIDTH 16 0
BBX 16 16 0 -4
BITMAP
0000
0100
0100
0100
0100
0100
0100
0100
FF00
FF00
0100
0100
0100
0100
0100
0100
ENDCHAR

STARTCHAR A9CA
ENCODING 43466
SWIDTH 960 0
DWIDTH 16 0
BBX 16 16 0 -4
BITMAP
0000
0180
0180
0180
0180
0180
0180
0180
FF80
0100
0100
0100
0100
0100
0100
0100
ENDCHAR

STARTCHAR A9CB
ENCODING 43467
SWIDTH 960 0
DWIDTH 16 0
BBX 16 16 0 -4
BITMAP
0000
0100
0100
0100
0100
0100
0100
0100
FF00
0180
0180
0180
0180
0180
0180
0180
ENDCHAR

STARTCHAR A9CC
ENCODING 43468
SWIDTH 960 0
DWIDTH 16 0
BBX 16 16 0 -4
BITMAP
0000
0180
0180
0180
0180
0180
0180
0180
FF80
0180
0180
0180
0180
0180
0180
0180
ENDCHAR

STARTCHAR A9CD
ENCODING 43469
SWIDTH 960 0
DWIDTH 16 0
BBX 16 16 0 -4
BITMAP
0000
0180
0180
0180
0180
0180
0180
0180
FF80
FF80
0100
0100
0100
0100
0100
0100
ENDCHAR

STARTCHAR A9CE
ENCODING 43470
SWIDTH 960 0
DWIDTH 16 0
BBX 16 16 0 -4
BITMAP
0000
0100
0100
0100
0100
0100
0100
0100
FF00
FF80
0180
0180
0180
0180
0180
0180
ENDCHAR

STARTCHAR A9CF
ENCODING 43471
SWIDTH 960 0
DWIDTH 16 0
BBX 16 16 0 -4
BITMAP
0000
0180
0180
0180
0180
0180
0180
0180
FF80
FF80
0180
0180
0180
0180
0180
0180
ENDCHAR

STARTCHAR A9D0
ENCODING 43472
SWIDTH 960 0
DWIDTH 16 0
BBX 16 16 0 -4
BITMAP
0000
0000
0000
0000
0000
0000
0000
0000
FFFF
0100
0100
0100
0100
0100
0100
0100
ENDCHAR

STARTCHAR A9D1
ENCODING 43473
SWIDTH 960 0
DWIDTH 16 0
BBX 16 16 0 -4
BITMAP
0000
0000
0000
0000
0000
0000
0000
0000
FFFF
FF00
0100
0100
0100
0100
0100
0100
ENDCHAR

STARTCHAR A9D2
ENCODING 43474
SWIDTH 960 0
DWIDTH 16 0
BBX 16 16 0 -4
BITMAP
0000
0000
0000
0000
0000
0000
0000
0000
FFFF
01FF
0100
0100
0100
0100
0100
0100
ENDCHAR

STARTCHAR A9D3
ENCODING 43475
SWIDTH 960 0
DWIDTH 16 0
BBX 16 16 0 -4
BITMAP
0000
0000
0000
0000
0000
0000
0000
0000
FFFF
FFFF
0100
0100
0100
0100
0100
0100
ENDCHAR

STARTCHAR A9D4
ENCODING 43476
SWIDTH 960 0
DWIDTH 16 0
BBX 16 16 0 -4
BITMAP
0000
0000
0000
0000
0000
0000
0000
0000
FFFF
0180
0180
0180
0180
0180
0180
0180
ENDCHAR

STARTCHAR A9D5
ENCODING 43477
SWIDTH 960 0
DWIDTH 16 0
BBX 16 16 0 -4
BITMAP
0000
0000
0000
0000
0000
0000
0000
0000
FFFF
FF80
0180
0180
0180
0180
0180
0180
ENDCHAR

STARTCHAR A9D6
ENCODING 43478
SWIDTH 960 0
DWIDTH 16 0
BBX 16 16 0 -4
BITMAP
0000
0000
0000
0000
0000
0000
0000
0000
FFFF
01FF
0180
0180
0180
0180
0180
0180
ENDCHAR

STARTCHAR A9D7
ENCODING 43479
SWIDTH 960 0
DWIDTH 16 0
BBX 16 16 0 -4
BITMAP
0000
0000
0000
0000
0000
0000
0000
0000
FFFF
FFFF
0180
0180
0180
0180
0180
0180
ENDCHAR

STARTCHAR A9D8
ENCODING 43480
SWIDTH 960 0
DWIDTH 16 0
BBX 16 16 0 -4
BITMAP
0000
0100
0100
0100
0100
0100
0100
0100
FFFF
0000
0000
0000
0000
0000
0000
0000
ENDCHAR

STARTCHAR A9D9
ENCODING 43481
SWIDTH 960 0
DWIDTH 16 0
BBX 16 16 0 -4
BITMAP
0000
0100
0100
0100
0100
0100
0100
0100
FFFF
FF00
0000
0000
0000
0000
0000
0000
ENDCHAR

STARTCHAR A9DA
ENCODING 43482
SWIDTH 960 0
DWIDTH 16 0
BBX 16 16 0 -4
BITMAP
0000
0100
0100
0100
0100
0100
0100
0100
FFFF
01FF
0000
0000
0000
0000
0000
0000
ENDCHAR

STARTCHAR A9DB
ENCODING 43483
SWIDTH 960 0
DWIDTH 16 0
BBX 16 16 0 -4
BITMAP
0000
0100
0100
0100
0100
0100
0100
0100
FFFF
FFFF
0000
0000
0000
0000
0000
0000
ENDCHAR

STARTCHAR A9DC
ENCODING 43484
SWIDTH 960 0
DWIDTH 16 0
BBX 16 16 0 -4
BITMAP
0000
0180
0180
0180
0180
0180
0180
0180
FFFF
0000
0000
0000
0000
0000
0000
0000
ENDCHAR

STARTCHAR A9DD
ENCODING 43485
SWIDTH 960 0
DWIDTH 16 0
BBX 16 16 0 -4
BITMAP
0000
0180
0180
0180
0180
0180
0180
0180
FFFF
FF80
0000
0000
0000
0000
0000
0000
ENDCHAR

STARTCHAR A9DE
ENCODING 43486
SWIDTH 960 0
DWIDTH 16 0
BBX 16 16 0 -4
BITMAP
0000
0180
0180
0180
0180
0180
0180
0180
FFFF
01FF
0000
0000
0000
0000
0000
0000
ENDCHAR

STARTCHAR A9DF
ENCODING 43487
SWIDTH 960 0
DWIDTH 16 0
BBX 16 16 0 -4
BITMAP
0000
0180
0180
0180
0180
0180
0180
0180
FFFF
FFFF
0000
0000
0000
0000
0000
0000
ENDCHAR

STARTCHAR A9E0
ENCODING 43488
SWIDTH 960 0
DWIDTH 16 0
BBX 16 16 0 -4
BITMAP
0000
0100
0100
0100
0100
0100
0100
0100
FFFF
0100
0100
0100
0100
0100
0100
0100
ENDCHAR

STARTCHAR A9E1
ENCODING 43489
SWIDTH 960 0
DWIDTH 16 0
BBX 16 16 0 -4
BITMAP
0000
0100
0100
0100
0100
0100
0100
0100
FFFF
FF00
0100
0100
0100
0100
0100
0100
ENDCHAR

STARTCHAR A9E2
ENCODING 43490
SWIDTH 960 0
DWIDTH 16 0
BBX 16 16 0 -4
BITMAP
0000
0100
0100
0100
0100
0100
0100
0100
FFFF
01FF
0100
0100
0100
0100
0100
0100
ENDCHAR

STARTCHAR A9E3
ENCODING 43491
SWIDTH 960 0
DWIDTH 16 0
BBX 16 16 0 -4
BITMAP
0000
0100
0100
0100
0100
0100
0100
0100
FFFF
FFFF
0100
0100
0100
0100
0100
0100
ENDCHAR

STARTCHAR A9E4
ENCODING 43492
SWIDTH 960 0
DWIDTH 16 0
BBX 16 16 0 -4
BITMAP
0000
0180
0180
0180
0180
0180
0180
0180
FFFF
0100
0100
0100
0100
0100
0100
0100
ENDCHAR

STARTCHAR A9E5
ENCODING 43493
SWIDTH 960 0
DWIDTH 16 0
BBX 16 16 0 -4
BITMAP
0000
0100
0100
0100
0100
0100
0100
0100
FFFF
0180
0180
0180
0180
0180
0180
0180
ENDCHAR

STARTCHAR A9E6
ENCODING 43494
SWIDTH 960 0
DWIDTH 16 0
BBX 16 16 0 -4
BITMAP
0000
0180
0180
0180
0180
0180
0180
0180
FFFF
0180
0180
0180
0180
0180
0180
0180
ENDCHAR

STARTCHAR A9E7
ENCODING 43495
SWIDTH 960 0
DWIDTH 16 0
BBX 16 16 0 -4
BITMAP
0000
0180
0180
0180
0180
0180
0180
0180
FFFF
FF00
0100
0100
0100
0100
0100
0100
ENDCHAR

STARTCHAR A9E8
ENCODING 43496
SWIDTH 960 0
DWIDTH 16 0
BBX 16 16 0 -4
BITMAP
0000
0180
0180
0180
0180
0180
0180
0180
FFFF
01FF
0100
0100
0100
0100
0100
0100
ENDCHAR

STARTCHAR A9E9
ENCODING 43497
SWIDTH 960 0
DWIDTH 16 0
BBX 16 16 0 -4
BITMAP
0000
0100
0100
0100
0100
0100
0100
0100
FFFF
FF80
0180
0180
0180
0180
0180
0180
ENDCHAR

STARTCHAR A9EA
ENCODING 43498
SWIDTH 960 0
DWIDTH 16 0
BBX 16 16 0 -4
BITMAP
0000
0100
0100
0100
0100
0100
0100
0100
FFFF
01FF
0180
0180
0180
0180
0180
0180
ENDCHAR

STARTCHAR A9EB
ENCODING 43499
SWIDTH 960 0
DWIDTH 16 0
BBX 16 16 0 -4
BITMAP
0000
0180
0180
0180
0180
0180
0180
0180
FFFF
FFFF
0100
0100
0100
0100
0100
0100
ENDCHAR

STARTCHAR A9EC
ENCODING 43500
SWIDTH 960 0
DWIDTH 16 0
BBX 16 16 0 -4
BITMAP
0000
0100
0100
0100
0100
0100
0100
0100
FFFF
FFFF
0180
0180
0180
0180
0180
0180
ENDCHAR

STARTCHAR A9ED
ENCODING 43501
SWIDTH 960 0
DWIDTH 16 0
BBX 16 16 0 -4
BITMAP
0000
0180
0180
0180
0180
0180
0180
0180
FFFF
FF80
0180
0180
0180
0180
0180
0180
ENDCHAR

STARTCHAR A9EE
ENCODING 43502
SWIDTH 960 0
DWIDTH 16 0
BBX 16 16 0 -4
BITMAP
0000
0180
0180
0180
0180
0180
0180
0180
FFFF
01FF
0180
0180
0180
0180
0180
0180
ENDCHAR

STARTCHAR A9EF
ENCODING 43503
SWIDTH 960 0
DWIDTH 16 0
BBX 16 16 0 -4
BITMAP
0000
0180
0180
0180
0180
0180
0180
0180
FFFF
FFFF
0180
0180
0180
0180
0180
0180
ENDCHAR

STARTCHAR B0A1
ENCODING 45217
SWIDTH 960 0
DWIDTH 16 0
BBX 16 16 0 -4
BITMAP
0000
0000
0FFE
E904
A904
AA04
AA74
AC54
AA54
AA54
A954
E974
0D04
0A04
0804
0814
ENDCHAR

STARTCHAR B0A2
ENCODING 45218
SWIDTH 960 0
DWIDTH 16 0
BBX 16 16 0 -4
BITMAP
0000
0000
7FFE
4408
4808
4808
51E8
4928
4928
4528
4528
4528
69E8
5008
4008
4028
ENDCHAR

STARTCHAR B0A3
ENCODING 45219
SWIDTH 960 0
DWIDTH 16 0
BBX 16 16 0 -4
BITMAP
0000
1040
1040
1090
1108
13FC
FC00
1100
11F8
1240
1040
17FC
1840
E040
00A0
0110
ENDCHAR

STARTCHAR B0A4
ENCODING 45220
SWIDTH 960 0
DWIDTH 16 0
BBX 16 16 0 -4
BITMAP
0000
1040
1040
1090
1108
FBFC
1000
1100
15F8
1A40
3040
D7FE
1040
1040
10A0
5110
ENDCHAR

STARTCHAR B0A5
ENCODING 45221
SWIDTH 960 0
DWIDTH 16 0
BBX 16 16 0 -4
BITMAP
0000
0090
0090
0090
7FFE
4890
4890
4908
4910
4890
4890
4860
7860
0090
0108
0204
ENDCHAR

STARTCHAR B0A6
ENCODING 45222
SWIDTH 960 0
DWIDTH 16 0
BBX 16 16 0 -4
BITMAP
0000
0040
0040
0090
7908
4BFC
4800
4900
4BF8
4C40
4840
4FFC
7840
0040
00A0
0110
ENDCHAR

STARTCHAR B0A7
ENCODING 45223
SWIDTH 960 0
DWIDTH 16 0
BBX 16 16 0 -4
BITMAP
0000
0200
0100
7FFC
0000
1FF0
1010
1010
1FF0
0480
0C88
1450
2460
C420
0510
060E
ENDCHAR

STARTCHAR B0A8
ENCODING 45224
SWIDTH 960 0
DWIDTH 16 0
BBX 16 16 0 -4
BITMAP
0000
0020
1020
2124
7D24
45FC
4400
45FC
7C04
4404
45FC
4500
4500
7D02
0102
00FE
ENDCHAR

STARTCHAR B0A9
ENCODING 45225
SWIDTH 960 0
DWIDTH 16 0
BBX 16 16 0 -4
BITMAP
0000
0100
0080
3FFC
2000
A7F0
6410
27F0
2000
2F78
6948
AF78
2080
2888
4888
8FF8
ENDCHAR

STARTCHAR B0AA
ENCODING 45226
SWIDTH 960 0
DWIDTH 16 0
BBX 16 16 0 -4
BITMAP
0000
0820
FFFE
0820
43F8
2208
23F8
0208
E3F8
2100
23FC
2444
2A44
22A4
2A04
33D4
ENDCHAR

STARTCHAR B0AB
ENCODING 45227
SWIDTH 960 0
DWIDTH 16 0
BBX 16 16 0 -4
BITMAP
0000
2018
21E0
2040
3C40
53FC
90E0
1150
FE4C
1040
17FE
1090
2910
24A0
4060
8190
ENDCHAR

STARTCHAR B0AC
ENCODING 45228
SWIDTH 960 0
DWIDTH 16 0
BBX 16 16 0 -4
BITMAP
0000
0440
0440
7FFC
0440
0440
0020
0820
0440
0440
0280
0100
0280
0440
1820
601C
ENDCHAR

STARTCHAR B0AD
ENCODING 45229
SWIDTH 960 0
DWIDTH 16 0
BBX 16 16 0 -4
BITMAP
0000
0000
01F8
7D08
11F8
1108
21F8
2000
7DFC
A410
27FE
2410
2490
3C50
2010
0050
ENDCHAR

STARTCHAR B0AE
ENCODING 45230
SWIDTH 960 0
DWIDTH 16 0
BBX 16 16 0 -4
BITMAP
0000
0078
3F80
1110
0920
7FFE
4202
8204
3FF8
0400
07F0
0A20
0940
0880
1140
2220
ENDCHAR

STARTCHAR B0AF
ENCODING 45231
SWIDTH 960 0
DWIDTH 16 0
BBX 16 16 0 -4
BITMAP
0000
0000
7A10
4920
4800
57FC
60A0
5110
4A0C
4800
4BF8
6AA8
52A8
42A8
42A8
4FFE
ENDCHAR

STARTCHAR B0B0
ENCODING 45232
SWIDTH 960 0
DWIDTH 16 0
BBX 16 16 0 -4
BITMAP
0000
2840
2820
FFFC
2904
3904
1040
7C40
57FE
5488
7C88
1110
FED0
1020
1050
1088
ENDCHAR

STARTCHAR B0B1
ENCODING 45233
SWIDTH 960 0
DWIDTH 16 0
BBX 16 16 0 -4
BITMAP
0000
1000
1FFE
2000
5FF8
8000
3FF8
0208
3FE8
2228
0408
FFF8
0888
1908
060A
0D8A
ENDCHAR

STARTCHAR B0B2
ENCODING 45234
SWIDTH 960 0
DWIDTH 16 0
BBX 16 16 0 -4
BITMAP
0000
0200
0100
7FFC
4004
4204
0200
0200
FFFE
0420
0820
1840
0680
0100
02C0
0C20
ENDCHAR

STARTCHAR B0B3
ENCODING 45235
SWIDTH 960 0
DWIDTH 16 0
BBX 16 16 0 -4
BITMAP
0000
0840
0840
0840
13FC
10A0
3110
3248
5FFE
9248
13F8
1248
13F8
1042
1042
103E
ENDCHAR

STARTCHAR B0B4
ENCODING 45236
SWIDTH 960 0
DWIDTH 16 0
BBX 16 16 0 -4
BITMAP
0000
1040
1020
1000
13FC
FE04
1244
1040
1840
17FE
3088
D110
1090
1060
1090
5108
ENDCHAR

STARTCHAR B0B5
ENCODING 45237
SWIDTH 960 0
DWIDTH 16 0
BBX 16 16 0 -4
BITMAP
0000
0040
0020
79FC
4800
4888
4850
4BFE
7800
49FC
4904
4904
49FC
7904
0104
01FC
ENDCHAR

STARTCHAR B0B6
ENCODING 45238
SWIDTH 960 0
DWIDTH 16 0
BBX 16 16 0 -4
BITMAP
0000
0100
2108
2108
3FF8
0000
3FFC
2000
2FF8
2080
2080
3FFC
2080
2080
4080
8080
ENDCHAR

STARTCHAR B0B7
ENCODING 45239
SWIDTH 960 0
DWIDTH 16 0
BBX 16 16 0 -4
BITMAP
0000
0040
3C20
2400
25FC
2504
3D44
2440
27FE
2488
3C88
2490
2450
2420
4450
9488
ENDCHAR

STARTCHAR B0B8
ENCODING 45240
SWIDTH 960 0
DWIDTH 16 0
BBX 16 16 0 -4
BITMAP
0000
0100
7FFC
4104
0200
7FFC
0420
0C40
0380
1C70
0100
FFFE
0380
0540
0920
711C
ENDCHAR

STARTCHAR B0B9
ENCODING 45241
SWIDTH 960 0
DWIDTH 16 0
BBX 16 16 0 -4
BITMAP
0000
0040
3C20
2400
27FE
2400
3CF0
2490
2490
2490
3C90
2490
2490
4492
5512
8A0E
ENDCHAR

STARTCHAR B0BA
ENCODING 45242
SWIDTH 960 0
DWIDTH 16 0
BBX 16 16 0 -4
BITMAP
0000
3FF8
2008
3FF8
2008
3FF8
0000
0600
78FC
4084
4084
4084
46A4
5894
6088
0080
ENDCHAR

STARTCHAR B0BB
ENCODING 45243
SWIDTH 960 0
DWIDTH 16 0
BBX 16 16 0 -4
BITMAP
0000
0100
0100
3FF8
2108
2108
FFFE
0100
0280
1C70
E00E
3FF8
2448
2448
2448
FFFE
ENDCHAR

STARTCHAR B0BC
ENCODING 45244
SWIDTH 960 0
DWIDTH 16 0
BBX 16 16 0 -4
BITMAP
0000
0000
0000
7C7C
4444
4444
4444
4444
4444
4444
47C4
4004
4004
4004
7FFC
0000
ENDCHAR

STARTCHAR B0BD
ENCODING 45245
SWIDTH 960 0
DWIDTH 16 0
BBX 16 16 0 -4
BITMAP
0000
0840
0840
0840
7F7E
0880
3F08
0848
FF48
1048
1E50
1250
2220
2250
5488
8906
ENDCHAR

STARTCHAR B0BE
ENCODING 45246
SWIDTH 960 0
DWIDTH 16 0
BBX 16 16 0 -4
BITMAP
0000
0840
0840
7E40
0840
3EFE
0908
FE48
1050
1E20
2250
4A88
8506
0000
2488
2244
ENDCHAR

STARTCHAR B0BF
ENCODING 45247
SWIDTH 960 0
DWIDTH 16 0
BBX 16 16 0 -4
BITMAP
0000
1000
2000
7DDC
4444
7C44
4554
7CCC
1044
FE44
28CC
5554
9244
7C44
1044
1154
ENDCHAR

STARTCHAR B0C0
ENCODING 45248
SWIDTH 960 0
DWIDTH 16 0
BBX 16 16 0 -4
BITMAP
0000
2000
1018
11E0
FC40
0840
1040
13FE
3440
5840
9440
10A0
10A0
1110
1208
1406
ENDCHAR

STARTCHAR B0C1
ENCODING 45249
SWIDTH 960 0
DWIDTH 16 0
BBX 16 16 0 -4
BITMAP
0000
1210
1210
1210
3FA0
223E
6FE4
6224
BFE4
2424
27A8
2490
2490
28A8
3348
2086
ENDCHAR

STARTCHAR B0C2
ENCODING 45250
SWIDTH 960 0
DWIDTH 16 0
BBX 16 16 0 -4
BITMAP
0000
0200
0400
1FF0
1110
1550
1110
1FF0
1110
1550
1110
0100
FFFE
0280
0440
1820
ENDCHAR

STARTCHAR B0C3
ENCODING 45251
SWIDTH 960 0
DWIDTH 16 0
BBX 16 16 0 -4
BITMAP
0000
1080
1100
17FC
1444
5D54
5444
57FC
9444
1554
1404
1040
1FFE
10A0
1110
1608
ENDCHAR

STARTCHAR B0C4
ENCODING 45252
SWIDTH 960 0
DWIDTH 16 0
BBX 16 16 0 -4
BITMAP
0000
0080
4100
27FC
1444
8554
4444
27FC
0C44
1554
2404
E040
2FFE
20A0
2110
2608
ENDCHAR

STARTCHAR B0C5
ENCODING 45253
SWIDTH 960 0
DWIDTH 16 0
BBX 16 16 0 -4
BITMAP
0000
0820
0820
7FFC
0820
0820
1FF0
1110
1110
1110
1FF0
1000
1000
1004
1004
0FFC
ENDCHAR

STARTCHAR B0C6
ENCODING 45254
SWIDTH 960 0
DWIDTH 16 0
BBX 16 16 0 -4
BITMAP
0000
1004
13C4
1244
1254
FE54
13D4
1114
1914
17D4
3154
D154
1244
1244
1544
5894
ENDCHAR

STARTCHAR B0C7
ENCODING 45255
SWIDTH 960 0
DWIDTH 16 0
BBX 16 16 0 -4
BITMAP
0000
1010
1090
1090
1090
FC90
1090
1490
1890
1090
3090
D110
1108
1100
1204
5402
ENDCHAR

STARTCHAR B0C8
ENCODING 45256
SWIDTH 960 0
DWIDTH 16 0
BBX 16 16 0 -4
BITMAP
0000
0000
0020
0120
7920
4920
4920
4920
4920
4920
4920
4A10
7A10
0210
0408
0804
ENDCHAR

STARTCHAR B0C9
ENCODING 45257
SWIDTH 960 0
DWIDTH 16 0
BBX 16 16 0 -4
BITMAP
0000
0000
0000
7BF8
4A48
4A48
4A48
4A48
4A48
4BF8
4A00
4A00
7A00
0202
0202
01FE
ENDCHAR

STARTCHAR B0CA
ENCODING 45258
SWIDTH 960 0
DWIDTH 16 0
BBX 16 16 0 -4
BITMAP
0000
1040
1F7C
28A0
4510
0000
3FF8
2108
2108
2108
3FF8
2000
2000
2004
2004
1FFC
ENDCHAR

STARTCHAR B0CB
ENCODING 45259
SWIDTH 960 0
DWIDTH 16 0
BBX 16 16 0 -4
BITMAP
0000
0000
0040
0440
0440
0440
0440
0440
0440
0820
0820
0820
1010
1010
2008
4006
ENDCHAR

STARTCHAR B0CC
ENCODING 45260
SWIDTH 960 0
DWIDTH 16 0
BBX 16 16 0 -4
BITMAP
0000
0080
0040
1FFE
1000
9000
57FC
3444
1444
3444
57FC
9400
1400
2402
2402
43FE
ENDCHAR

STARTCHAR B0CD
ENCODING 45261
SWIDTH 960 0
DWIDTH 16 0
BBX 16 16 0 -4
BITMAP
0000
0000
0000
3FF8
2108
2108
2108
2108
3FF8
2000
2000
2000
2004
2004
2004
1FFC
ENDCHAR

STARTCHAR B0CE
ENCODING 45262
SWIDTH 960 0
DWIDTH 16 0
BBX 16 16 0 -4
BITMAP
0000
1080
10A0
1090
FC80
13FE
1080
1480
19F8
3108
D188
1250
1220
1450
1488
5906
ENDCHAR

STARTCHAR B0CF
ENCODING 45263
SWIDTH 960 0
DWIDTH 16 0
BBX 16 16 0 -4
BITMAP
0000
0040
7C50
4448
4440
47FE
7C80
1080
10F8
5D08
5188
5150
5120
5E50
7288
C506
ENDCHAR

STARTCHAR B0D0
ENCODING 45264
SWIDTH 960 0
DWIDTH 16 0
BBX 16 16 0 -4
BITMAP
0000
2800
2800
FFFC
2924
3924
1124
7D24
55FC
5500
7D00
1100
FF00
1102
1102
10FE
ENDCHAR

STARTCHAR B0D1
ENCODING 45265
SWIDTH 960 0
DWIDTH 16 0
BBX 16 16 0 -4
BITMAP
0000
1000
1000
11FC
1124
FF24
1124
1124
15FC
1900
3100
D100
1100
1102
1102
50FE
ENDCHAR

STARTCHAR B0D2
ENCODING 45266
SWIDTH 960 0
DWIDTH 16 0
BBX 16 16 0 -4
BITMAP
0000
1000
1000
11FC
FF24
1124
7D24
1124
FFFC
1100
3100
5900
5500
9102
1102
10FE
ENDCHAR

STARTCHAR B0D3
ENCODING 45267
SWIDTH 960 0
DWIDTH 16 0
BBX 16 16 0 -4
BITMAP
0000
1000
11FC
1104
1124
1124
7D24
1124
1124
1124
1524
1924
6020
0050
0088
0306
ENDCHAR

STARTCHAR B0D4
ENCODING 45268
SWIDTH 960 0
DWIDTH 16 0
BBX 16 16 0 -4
BITMAP
0000
1FF0
0100
7FFC
4924
2200
7F78
2248
3E48
0878
7F48
4948
7F78
0848
7F48
0888
ENDCHAR

STARTCHAR B0D5
ENCODING 45269
SWIDTH 960 0
DWIDTH 16 0
BBX 16 16 0 -4
BITMAP
0000
0000
3FF8
2448
2448
3FF8
0100
0100
3FF8
0100
0100
FFFE
0200
0420
0810
1FF8
ENDCHAR

STARTCHAR B0D6
ENCODING 45270
SWIDTH 960 0
DWIDTH 16 0
BBX 16 16 0 -4
BITMAP
0000
0440
0420
0C70
3288
0100
0280
0C60
3018
DFF6
1110
1110
1FF0
1000
1004
1004
ENDCHAR

STARTCHAR B0D7
ENCODING 45271
SWIDTH 960 0
DWIDTH 16 0
BBX 16 16 0 -4
BITMAP
0000
0200
0400
0800
3FF8
2008
2008
2008
2008
3FF8
2008
2008
2008
2008
3FF8
0000
ENDCHAR

STARTCHAR B0D8
ENCODING 45272
SWIDTH 960 0
DWIDTH 16 0
BBX 16 16 0 -4
BITMAP
0000
1000
1020
1040
1080
FDFC
1104
3104
3904
5504
51FC
9104
1104
1104
1104
11FC
ENDCHAR

STARTCHAR B0D9
ENCODING 45273
SWIDTH 960 0
DWIDTH 16 0
BBX 16 16 0 -4
BITMAP
0000
0000
FFFE
0100
0200
0400
1FF0
1010
1010
1010
1FF0
1010
1010
1010
1010
1FF0
ENDCHAR

STARTCHAR B0DA
ENCODING 45274
SWIDTH 960 0
DWIDTH 16 0
BBX 16 16 0 -4
BITMAP
0000
1000
17FC
14A4
14A4
FFFC
1040
1040
1BF8
3040
D040
1FFE
1080
1110
1208
57FC
ENDCHAR

STARTCHAR B0DB
ENCODING 45275
SWIDTH 960 0
DWIDTH 16 0
BBX 16 16 0 -4
BITMAP
0000
0800
0800
0FFE
1040
1080
33F8
5208
9208
1208
13F8
1208
1208
1208
1208
13F8
ENDCHAR

STARTCHAR B0DC
ENCODING 45276
SWIDTH 960 0
DWIDTH 16 0
BBX 16 16 0 -4
BITMAP
0000
0040
7C40
4440
5440
54FE
5488
5508
5688
5490
5450
5420
1020
2850
4488
8306
ENDCHAR

STARTCHAR B0DD
ENCODING 45277
SWIDTH 960 0
DWIDTH 16 0
BBX 16 16 0 -4
BITMAP
0000
0000
06FC
7820
0820
08FC
7E20
0820
08FC
FF20
0820
09FE
0820
1020
1020
2020
ENDCHAR

STARTCHAR B0DE
ENCODING 45278
SWIDTH 960 0
DWIDTH 16 0
BBX 16 16 0 -4
BITMAP
0000
0020
1C40
71FC
1124
1124
FDFC
3124
3944
55FC
50A0
9120
17FE
1020
1020
1020
ENDCHAR

STARTCHAR B0DF
ENCODING 45279
SWIDTH 960 0
DWIDTH 16 0
BBX 16 16 0 -4
BITMAP
0000
0000
0200
F97C
2010
2FD0
2010
2490
FAFC
2110
2110
2290
2290
3C50
E410
08FE
ENDCHAR

STARTCHAR B0E0
ENCODING 45280
SWIDTH 960 0
DWIDTH 16 0
BBX 16 16 0 -4
BITMAP
0000
0100
0100
FD7C
2110
2510
2510
2510
F57C
2510
2910
2110
2210
3A10
E210
04FE
ENDCHAR

STARTCHAR B0E1
ENCODING 45281
SWIDTH 960 0
DWIDTH 16 0
BBX 16 16 0 -4
BITMAP
0000
2100
223C
27A4
24A4
FEA4
25C6
2480
3FBC
E4A4
26A4
25A4
2498
2490
28A8
B2C6
ENDCHAR

STARTCHAR B0E2
ENCODING 45282
SWIDTH 960 0
DWIDTH 16 0
BBX 16 16 0 -4
BITMAP
0000
1000
101C
11E0
1100
FD00
11FC
1104
1D44
3144
D128
1110
1110
1128
1244
5482
ENDCHAR

STARTCHAR B0E3
ENCODING 45283
SWIDTH 960 0
DWIDTH 16 0
BBX 16 16 0 -4
BITMAP
0000
0800
1078
3E48
2248
3248
2A86
2200
FEF8
2248
3248
2A48
2230
2228
2248
4A84
ENDCHAR

STARTCHAR B0E4
ENCODING 45284
SWIDTH 960 0
DWIDTH 16 0
BBX 16 16 0 -4
BITMAP
0000
0000
2BFE
2820
2440
45FC
4304
8124
7D24
2524
2524
2524
2524
2450
2488
4D06
ENDCHAR

STARTCHAR B0E5
ENCODING 45285
SWIDTH 960 0
DWIDTH 16 0
BBX 16 16 0 -4
BITMAP
0000
1000
101C
11E0
1100
FD00
11FC
3104
3944
5544
5128
9110
1110
1128
1244
1482
ENDCHAR

STARTCHAR B0E6
ENCODING 45286
SWIDTH 960 0
DWIDTH 16 0
BBX 16 16 0 -4
BITMAP
0000
0800
481C
49E0
4900
4900
7DFC
4104
4144
7944
4928
4910
4910
4928
4A44
8C82
ENDCHAR

STARTCHAR B0E7
ENCODING 45287
SWIDTH 960 0
DWIDTH 16 0
BBX 16 16 0 -4
BITMAP
0000
1020
10A0
10A0
1090
FD10
1108
1208
1DFE
3888
D088
1088
1088
1088
1108
5228
ENDCHAR

STARTCHAR B0E8
ENCODING 45288
SWIDTH 960 0
DWIDTH 16 0
BBX 16 16 0 -4
BITMAP
0000
1040
1040
1248
1150
FC40
13FC
1040
1840
3040
D7FE
1040
1040
1040
1040
5040
ENDCHAR

STARTCHAR B0E9
ENCODING 45289
SWIDTH 960 0
DWIDTH 16 0
BBX 16 16 0 -4
BITMAP
0000
0840
0840
0A48
1150
1040
37FC
3040
5040
9040
1FFE
1040
1040
1040
1040
1040
ENDCHAR

STARTCHAR B0EA
ENCODING 45290
SWIDTH 960 0
DWIDTH 16 0
BBX 16 16 0 -4
BITMAP
0000
2008
2048
F9BE
5654
5454
5554
FD7E
2548
2548
3D48
E57E
2548
2AA8
5398
8008
ENDCHAR

STARTCHAR B0EB
ENCODING 45291
SWIDTH 960 0
DWIDTH 16 0
BBX 16 16 0 -4
BITMAP
0000
0100
2108
1110
0920
0100
3FF8
0100
0100
0100
FFFE
0100
0100
0100
0100
0100
ENDCHAR

STARTCHAR B0EC
ENCODING 45292
SWIDTH 960 0
DWIDTH 16 0
BBX 16 16 0 -4
BITMAP
0000
0200
0200
0200
0200
3FE0
0220
0220
1228
1228
2224
4422
0420
0820
10A0
2040
ENDCHAR

STARTCHAR B0ED
ENCODING 45293
SWIDTH 960 0
DWIDTH 16 0
BBX 16 16 0 -4
BITMAP
0000
0020
1020
1124
20A8
44A8
7C20
09FC
1020
2020
7C20
03FE
0020
1C20
6020
0020
ENDCHAR

STARTCHAR B0EE
ENCODING 45294
SWIDTH 960 0
DWIDTH 16 0
BBX 16 16 0 -4
BITMAP
0000
0800
087C
0844
7F48
0848
0850
3E50
0848
0844
7F44
0844
0864
1054
2048
4040
ENDCHAR

STARTCHAR B0EF
ENCODING 45295
SWIDTH 960 0
DWIDTH 16 0
BBX 16 16 0 -4
BITMAP
0000
0800
087C
7F48
0850
3E58
0844
7F64
0858
1140
3FF0
D110
1110
1110
1150
0120
ENDCHAR

STARTCHAR B0F0
ENCODING 45296
SWIDTH 960 0
DWIDTH 16 0
BBX 16 16 0 -4
BITMAP
0000
1100
113E
1122
17E4
F924
1128
37E8
3924
5122
97E2
1122
1132
122C
1220
1420
ENDCHAR

STARTCHAR B0F1
ENCODING 45297
SWIDTH 960 0
DWIDTH 16 0
BBX 16 16 0 -4
BITMAP
0000
1040
1020
13FC
1088
FC50
13FE
3242
3820
57FE
5080
90F8
1088
1088
1088
1128
ENDCHAR

STARTCHAR B0F2
ENCODING 45298
SWIDTH 960 0
DWIDTH 16 0
BBX 16 16 0 -4
BITMAP
0000
0040
7820
49FC
4888
4850
7BFE
4A42
4820
4BFE
7880
48F8
4888
4888
4888
9928
ENDCHAR

STARTCHAR B0F3
ENCODING 45299
SWIDTH 960 0
DWIDTH 16 0
BBX 16 16 0 -4
BITMAP
0000
0100
213E
2122
47E4
4924
F128
27E8
4124
F922
07E2
0122
3922
C22C
0220
0420
ENDCHAR

STARTCHAR B0F4
ENCODING 45300
SWIDTH 960 0
DWIDTH 16 0
BBX 16 16 0 -4
BITMAP
0000
1040
1040
13FC
1040
FBF8
1040
17FC
30A0
3950
5248
95F6
1040
17FC
1040
1040
ENDCHAR

STARTCHAR B0F5
ENCODING 45301
SWIDTH 960 0
DWIDTH 16 0
BBX 16 16 0 -4
BITMAP
0000
0040
0020
7DFC
1088
1050
13FE
3E42
2420
67FE
A480
24F8
2488
3C88
0088
0128
ENDCHAR

STARTCHAR B0F6
ENCODING 45302
SWIDTH 960 0
DWIDTH 16 0
BBX 16 16 0 -4
BITMAP
0000
1020
1020
1020
1020
7DFC
5420
5420
55FC
5420
7C20
13FE
1020
1420
FC20
0020
ENDCHAR

STARTCHAR B0F7
ENCODING 45303
SWIDTH 960 0
DWIDTH 16 0
BBX 16 16 0 -4
BITMAP
0000
0080
2040
23F8
3D10
20A0
47FC
7C84
9040
17FC
7900
11F0
1110
1510
1910
1250
ENDCHAR

STARTCHAR B0F8
ENCODING 45304
SWIDTH 960 0
DWIDTH 16 0
BBX 16 16 0 -4
BITMAP
0000
0880
0840
0BF8
1110
10A0
17FC
3484
5040
97FC
1100
11F0
1110
1110
1110
1250
ENDCHAR

STARTCHAR B0F9
ENCODING 45305
SWIDTH 960 0
DWIDTH 16 0
BBX 16 16 0 -4
BITMAP
0000
0080
4040
27FC
1110
00A0
07FC
E484
2040
27FC
2100
21F0
2110
2910
3110
2250
ENDCHAR

STARTCHAR B0FA
ENCODING 45306
SWIDTH 960 0
DWIDTH 16 0
BBX 16 16 0 -4
BITMAP
0000
0440
0440
7FFC
0440
0400
0FF0
1010
2F90
4890
0890
0F90
0830
0804
0804
07FC
ENDCHAR

STARTCHAR B0FB
ENCODING 45307
SWIDTH 960 0
DWIDTH 16 0
BBX 16 16 0 -4
BITMAP
0000
0080
3C80
2500
25F8
2608
3C08
25E8
2528
2528
3DE8
2508
2518
2502
4502
94FE
ENDCHAR

STARTCHAR B0FC
ENCODING 45308
SWIDTH 960 0
DWIDTH 16 0
BBX 16 16 0 -4
BITMAP
0000
0400
0400
0800
0FF0
1010
2010
5F90
1090
1090
1F90
1010
1060
1004
1004
0FFC
ENDCHAR

STARTCHAR B0FD
ENCODING 45309
SWIDTH 960 0
DWIDTH 16 0
BBX 16 16 0 -4
BITMAP
0000
0200
0100
7FFC
0800
17F0
2410
37F0
5080
9FFC
12A0
1490
0510
0CA0
1440
6520
ENDCHAR

STARTCHAR B0FE
ENCODING 45310
SWIDTH 960 0
DWIDTH 16 0
BBX 16 16 0 -4
BITMAP
0000
0004
7F04
0104
3F24
0124
0124
FFA4
0824
88A4
4924
2A24
4924
8884
0804
2814
ENDCHAR

STARTCHAR B1A1
ENCODING 45473
SWIDTH 960 0
DWIDTH 16 0
BBX 16 16 0 -4
BITMAP
0000
0820
FFFE
0850
47FC
2040
07FC
8444
4FFC
1444
27FC
E444
2010
2FFE
2210
2110
ENDCHAR

STARTCHAR B1A2
ENCODING 45474
SWIDTH 960 0
DWIDTH 16 0
BBX 16 16 0 -4
BITMAP
0000
1FF0
0100
7FFC
4104
5D74
0100
1D70
0800
0FF0
1010
2F90
4890
0F90
0834
0804
ENDCHAR

STARTCHAR B1A3
ENCODING 45475
SWIDTH 960 0
DWIDTH 16 0
BBX 16 16 0 -4
BITMAP
0000
0800
0BF8
0A08
1208
1208
33F8
3040
5040
9FFE
1040
10E0
1150
1248
1446
1840
ENDCHAR

STARTCHAR B1A4
ENCODING 45476
SWIDTH 960 0
DWIDTH 16 0
BBX 16 16 0 -4
BITMAP
0000
1000
17F0
2410
2410
67F0
A080
3FFC
21C0
22A0
2C9C
2080
0100
3FF8
0100
0100
ENDCHAR

STARTCHAR B1A5
ENCODING 45477
SWIDTH 960 0
DWIDTH 16 0
BBX 16 16 0 -4
BITMAP
0000
2080
2080
2080
3DFC
2504
4A04
45F4
A114
2114
21F4
2104
250C
2902
3102
20FE
ENDCHAR

STARTCHAR B1A6
ENCODING 45478
SWIDTH 960 0
DWIDTH 16 0
BBX 16 16 0 -4
BITMAP
0000
0200
0100
7FFC
4004
4004
0000
3FF8
0100
0100
0100
1FF0
0100
0120
0100
7FFC
ENDCHAR

STARTCHAR B1A7
ENCODING 45479
SWIDTH 960 0
DWIDTH 16 0
BBX 16 16 0 -4
BITMAP
0000
1080
1080
1080
11FC
FD04
1204
15F4
1114
1D14
31F4
D104
110C
1102
1102
50FE
ENDCHAR

STARTCHAR B1A8
ENCODING 45480
SWIDTH 960 0
DWIDTH 16 0
BBX 16 16 0 -4
BITMAP
0000
1000
11F8
1108
1108
FD28
1110
1100
11F8
1D08
3190
D150
1120
1150
1188
5106
ENDCHAR

STARTCHAR B1A9
ENCODING 45481
SWIDTH 960 0
DWIDTH 16 0
BBX 16 16 0 -4
BITMAP
0000
1FF0
1010
1FF0
1010
1FF0
0440
7FFC
0440
FFFE
0440
0920
3550
C38E
0920
1110
ENDCHAR

STARTCHAR B1AA
ENCODING 45482
SWIDTH 960 0
DWIDTH 16 0
BBX 16 16 0 -4
BITMAP
0000
0840
1040
2240
D480
48FC
3104
2A04
CC84
1444
2404
CC04
1404
6404
0444
2828
ENDCHAR

STARTCHAR B1AB
ENCODING 45483
SWIDTH 960 0
DWIDTH 16 0
BBX 16 16 0 -4
BITMAP
0000
0840
0840
0E40
147C
2884
7F04
AAF4
2A94
3E94
2AF4
2A84
3E8C
0080
0E82
707E
ENDCHAR

STARTCHAR B1AC
ENCODING 45484
SWIDTH 960 0
DWIDTH 16 0
BBX 16 16 0 -4
BITMAP
0000
13F8
1208
13F8
1608
5BF8
5110
57FC
9110
1FFE
1110
1248
2D56
28E0
4150
8248
ENDCHAR

STARTCHAR B1AD
ENCODING 45485
SWIDTH 960 0
DWIDTH 16 0
BBX 16 16 0 -4
BITMAP
0000
1000
1000
17FC
1020
FC20
1040
3040
38D0
5548
5244
9442
1840
1040
1040
1040
ENDCHAR

STARTCHAR B1AE
ENCODING 45486
SWIDTH 960 0
DWIDTH 16 0
BBX 16 16 0 -4
BITMAP
0000
0020
0040
7DFC
1124
1124
21FC
2124
3D44
65FC
A4A0
2520
27FE
2420
3C20
0020
ENDCHAR

STARTCHAR B1AF
ENCODING 45487
SWIDTH 960 0
DWIDTH 16 0
BBX 16 16 0 -4
BITMAP
0000
0480
7CF8
0480
0480
7CF8
0480
0480
7CF8
0480
0000
2A10
2908
28A4
4824
07E0
ENDCHAR

STARTCHAR B1B0
ENCODING 45488
SWIDTH 960 0
DWIDTH 16 0
BBX 16 16 0 -4
BITMAP
0000
0100
0200
1FF0
1110
1110
1FF0
1110
1210
1FF0
0500
0900
FFFE
0100
0100
0100
ENDCHAR

STARTCHAR B1B1
ENCODING 45489
SWIDTH 960 0
DWIDTH 16 0
BBX 16 16 0 -4
BITMAP
0000
0480
0480
0480
0488
04B0
7CC0
0480
0480
0480
0480
0480
0480
1C84
6484
047C
ENDCHAR

STARTCHAR B1B2
ENCODING 45490
SWIDTH 960 0
DWIDTH 16 0
BBX 16 16 0 -4
BITMAP
0000
0480
7CFC
0480
7CFC
0480
7CFC
0680
0400
3FF8
0900
1FF0
0100
FFFE
0100
0100
ENDCHAR

STARTCHAR B1B3
ENCODING 45491
SWIDTH 960 0
DWIDTH 16 0
BBX 16 16 0 -4
BITMAP
0000
0440
0444
7C78
0442
1C42
E43E
0000
1FF0
1010
1FF0
1010
1FF0
1010
1010
1050
ENDCHAR

STARTCHAR B1B4
ENCODING 45492
SWIDTH 960 0
DWIDTH 16 0
BBX 16 16 0 -4
BITMAP
0000
0000
1FF0
1010
1110
1110
1110
1110
1110
1110
1110
1110
1210
0240
0420
0810
ENDCHAR

STARTCHAR B1B5
ENCODING 45493
SWIDTH 960 0
DWIDTH 16 0
BBX 16 16 0 -4
BITMAP
0000
1000
1000
11FC
3D04
2124
4124
BD24
1124
1124
7D24
1124
1124
1450
1888
1104
ENDCHAR

STARTCHAR B1B6
ENCODING 45494
SWIDTH 960 0
DWIDTH 16 0
BBX 16 16 0 -4
BITMAP
0000
0880
0840
17FC
1000
2208
3110
5020
9FFE
1000
13F8
1208
1208
1208
1208
13F8
ENDCHAR

STARTCHAR B1B7
ENCODING 45495
SWIDTH 960 0
DWIDTH 16 0
BBX 16 16 0 -4
BITMAP
0000
0000
45FC
2904
1124
2924
4924
8924
0924
1924
2924
4924
8840
0850
0888
5104
ENDCHAR

STARTCHAR B1B8
ENCODING 45496
SWIDTH 960 0
DWIDTH 16 0
BBX 16 16 0 -4
BITMAP
0000
0400
0400
0FF0
1020
2440
4380
0440
1830
E00E
1FF0
1110
1110
1FF0
1110
1110
ENDCHAR

STARTCHAR B1B9
ENCODING 45497
SWIDTH 960 0
DWIDTH 16 0
BBX 16 16 0 -4
BITMAP
0000
0400
0FF0
1420
23C0
0420
F81E
1FF0
1110
1FF0
1110
1FF0
0200
2910
28A8
4824
ENDCHAR

STARTCHAR B1BA
ENCODING 45498
SWIDTH 960 0
DWIDTH 16 0
BBX 16 16 0 -4
BITMAP
0000
1080
1040
17FC
1000
9510
58A0
3000
17FE
1000
13F8
1208
2A08
4608
8208
03F8
ENDCHAR

STARTCHAR B1BB
ENCODING 45499
SWIDTH 960 0
DWIDTH 16 0
BBX 16 16 0 -4
BITMAP
0000
2020
1020
0820
01FC
FD24
0928
1120
35F8
5908
9588
1150
1250
1220
1250
1488
ENDCHAR

STARTCHAR B1BC
ENCODING 45500
SWIDTH 960 0
DWIDTH 16 0
BBX 16 16 0 -4
BITMAP
0000
0100
0100
7FFC
0280
0540
0920
37D8
C106
0920
0820
7FFC
0820
0820
0820
1020
ENDCHAR

STARTCHAR B1BD
ENCODING 45501
SWIDTH 960 0
DWIDTH 16 0
BBX 16 16 0 -4
BITMAP
0000
0440
0440
FFFE
0440
0540
0100
7FFC
0380
0540
0920
1110
2FE8
C106
0100
0100
ENDCHAR

STARTCHAR B1BE
ENCODING 45502
SWIDTH 960 0
DWIDTH 16 0
BBX 16 16 0 -4
BITMAP
0000
0100
0100
0100
0100
7FFC
0540
0540
0540
0920
0920
1110
27C8
4106
8100
0100
ENDCHAR

STARTCHAR B1BF
ENCODING 45503
SWIDTH 960 0
DWIDTH 16 0
BBX 16 16 0 -4
BITMAP
0000
0840
0840
1F7C
28A0
4510
0100
7FFC
0380
0540
0920
1110
2FE8
C106
0100
0100
ENDCHAR

STARTCHAR B1C0
ENCODING 45504
SWIDTH 960 0
DWIDTH 16 0
BBX 16 16 0 -4
BITMAP
0000
0100
2108
2108
3FF8
0000
3EF8
2288
2288
3EF8
2288
2288
3EF8
2288
2288
4AA8
ENDCHAR

STARTCHAR B1C1
ENCODING 45505
SWIDTH 960 0
DWIDTH 16 0
BBX 16 16 0 -4
BITMAP
0000
1000
17BC
24A4
4CA4
F4A4
17BC
24A4
44A4
FCA4
07BC
04A4
3CA4
C4A4
08C4
1294
ENDCHAR

STARTCHAR B1C2
ENCODING 45506
SWIDTH 960 0
DWIDTH 16 0
BBX 16 16 0 -4
BITMAP
0000
0000
FFFE
0080
0360
1D18
E106
3FF8
2108
2108
3FF8
2108
2108
3FF8
2108
4128
ENDCHAR

STARTCHAR B1C3
ENCODING 45507
SWIDTH 960 0
DWIDTH 16 0
BBX 16 16 0 -4
BITMAP
0000
0000
FFFE
0400
0800
1FF0
2810
C810
0FF0
0108
0110
7DA0
0540
0920
1110
610E
ENDCHAR

STARTCHAR B1C4
ENCODING 45508
SWIDTH 960 0
DWIDTH 16 0
BBX 16 16 0 -4
BITMAP
0000
0040
7A44
4A44
4BFC
4800
7BBC
12A4
12A4
13BC
5AA4
52A4
53BC
5AA4
E2A4
04A4
ENDCHAR

STARTCHAR B1C5
ENCODING 45509
SWIDTH 960 0
DWIDTH 16 0
BBX 16 16 0 -4
BITMAP
0000
0410
4220
2140
2FF8
0220
0220
E220
2FFC
2220
2220
2220
2220
2420
5820
8FFE
ENDCHAR

STARTCHAR B1C6
ENCODING 45510
SWIDTH 960 0
DWIDTH 16 0
BBX 16 16 0 -4
BITMAP
0000
0000
4FF8
2000
27F0
0410
0410
E7F0
2000
2FF8
2888
2FF8
2888
2FF8
5000
8FFE
ENDCHAR

STARTCHAR B1C7
ENCODING 45511
SWIDTH 960 0
DWIDTH 16 0
BBX 16 16 0 -4
BITMAP
0000
0100
1FF0
1210
1110
1090
1FF0
0000
3FF8
2108
3FF8
2108
3FF8
0000
FFFE
0440
ENDCHAR

STARTCHAR B1C8
ENCODING 45512
SWIDTH 960 0
DWIDTH 16 0
BBX 16 16 0 -4
BITMAP
0000
0080
2080
2080
2080
2088
2090
3EA0
20C0
2080
2080
2080
2084
2684
3884
207C
ENDCHAR

STARTCHAR B1C9
ENCODING 45513
SWIDTH 960 0
DWIDTH 16 0
BBX 16 16 0 -4
BITMAP
0000
0000
3E7C
2244
2248
3E48
0848
FFD0
0848
7F44
4144
5D44
5564
5D58
4140
7F40
ENDCHAR

STARTCHAR B1CA
ENCODING 45514
SWIDTH 960 0
DWIDTH 16 0
BBX 16 16 0 -4
BITMAP
0000
0820
0820
1F7C
28A0
4510
007C
7F80
0100
0178
3F80
0100
017C
7F80
0102
0102
ENDCHAR

STARTCHAR B1CB
ENCODING 45515
SWIDTH 960 0
DWIDTH 16 0
BBX 16 16 0 -4
BITMAP
0000
0840
0840
1040
13FC
2244
4A48
8A40
13F0
3210
5310
92A0
1440
14A0
1490
1908
ENDCHAR

STARTCHAR B1CC
ENCODING 45516
SWIDTH 960 0
DWIDTH 16 0
BBX 16 16 0 -4
BITMAP
0000
0040
7C80
11F8
7D08
11F8
1508
F9F8
0000
7FFC
0400
0800
1FF0
2810
C810
0810
ENDCHAR

STARTCHAR B1CD
ENCODING 45517
SWIDTH 960 0
DWIDTH 16 0
BBX 16 16 0 -4
BITMAP
0000
0820
FFFE
0920
0200
3FF0
2490
2310
2490
3FF0
0000
2088
3E90
20E4
2684
3884
ENDCHAR

STARTCHAR B1CE
ENCODING 45518
SWIDTH 960 0
DWIDTH 16 0
BBX 16 16 0 -4
BITMAP
0000
0440
FFFE
0440
4920
2A20
0C3E
7F44
49A4
4924
5D24
6B28
4910
4928
4944
4B82
ENDCHAR

STARTCHAR B1CF
ENCODING 45519
SWIDTH 960 0
DWIDTH 16 0
BBX 16 16 0 -4
BITMAP
0000
2080
2080
2098
3EE0
2080
2284
2C84
307C
0100
0100
FFFE
0100
0100
0100
0100
ENDCHAR

STARTCHAR B1D0
ENCODING 45520
SWIDTH 960 0
DWIDTH 16 0
BBX 16 16 0 -4
BITMAP
0000
2080
2098
3EE0
2080
2E88
3078
0000
7FFE
1080
1E80
2298
52E0
0C80
0884
1084
ENDCHAR

STARTCHAR B1D1
ENCODING 45521
SWIDTH 960 0
DWIDTH 16 0
BBX 16 16 0 -4
BITMAP
0000
0080
2080
2098
3EE0
2080
2088
2E88
3078
0200
1140
5088
5104
9612
1810
67F0
ENDCHAR

STARTCHAR B1D2
ENCODING 45522
SWIDTH 960 0
DWIDTH 16 0
BBX 16 16 0 -4
BITMAP
0000
0038
03C0
7D00
0100
0100
3FF8
2108
2108
2108
2108
2108
2128
0110
0100
0100
ENDCHAR

STARTCHAR B1D3
ENCODING 45523
SWIDTH 960 0
DWIDTH 16 0
BBX 16 16 0 -4
BITMAP
0000
0100
0080
3FFC
2000
2440
2440
2440
2448
2770
2440
2440
2442
2542
4642
843E
ENDCHAR

STARTCHAR B1D4
ENCODING 45524
SWIDTH 960 0
DWIDTH 16 0
BBX 16 16 0 -4
BITMAP
0000
0100
0080
3FFC
2000
AFF8
6888
2FF8
2888
2FF8
6000
BFFE
2410
2410
4410
8810
ENDCHAR

STARTCHAR B1D5
ENCODING 45525
SWIDTH 960 0
DWIDTH 16 0
BBX 16 16 0 -4
BITMAP
0000
2000
13FC
0804
4084
4084
5FF4
4084
4184
4284
4484
4884
5084
4084
4284
4114
ENDCHAR

STARTCHAR B1D6
ENCODING 45526
SWIDTH 960 0
DWIDTH 16 0
BBX 16 16 0 -4
BITMAP
0000
0820
4920
2A20
2C20
087E
7F44
4984
4944
5D44
5B44
6928
4910
4928
4B48
4084
ENDCHAR

STARTCHAR B1D7
ENCODING 45527
SWIDTH 960 0
DWIDTH 16 0
BBX 16 16 0 -4
BITMAP
0000
0820
4920
2A20
083E
7F44
4944
5DA8
6B10
4928
4346
0820
FFFE
0820
0820
1020
ENDCHAR

STARTCHAR B1D8
ENCODING 45528
SWIDTH 960 0
DWIDTH 16 0
BBX 16 16 0 -4
BITMAP
0000
0200
0100
0120
0120
0820
4840
4848
4844
4882
8900
0A00
0C10
1810
2810
47F0
ENDCHAR

STARTCHAR B1D9
ENCODING 45529
SWIDTH 960 0
DWIDTH 16 0
BBX 16 16 0 -4
BITMAP
0000
0040
0020
3E00
23FC
2200
2288
3E50
23FE
2020
3E20
33FC
5220
9220
1E20
0020
ENDCHAR

STARTCHAR B1DA
ENCODING 45530
SWIDTH 960 0
DWIDTH 16 0
BBX 16 16 0 -4
BITMAP
0000
0020
3E10
22FE
2244
3E28
21FE
3E10
52FE
9210
1E90
0080
1FF8
0080
0080
7FFC
ENDCHAR

STARTCHAR B1DB
ENCODING 45531
SWIDTH 960 0
DWIDTH 16 0
BBX 16 16 0 -4
BITMAP
0000
0020
3FFC
2288
3E50
21FE
3E20
53FC
9E20
0020
1FF0
1010
1FF0
1010
1FF0
1010
ENDCHAR

STARTCHAR B1DC
ENCODING 45532
SWIDTH 960 0
DWIDTH 16 0
BBX 16 16 0 -4
BITMAP
0000
0020
4F10
2900
09FE
0900
0F44
E828
28FE
2F10
3910
297C
2910
2F10
5010
8FFE
ENDCHAR

STARTCHAR B1DD
ENCODING 45533
SWIDTH 960 0
DWIDTH 16 0
BBX 16 16 0 -4
BITMAP
0000
0220
7A20
4A24
53B8
5220
5220
62A4
531C
4840
4840
4840
6BFC
5040
4040
47FE
ENDCHAR

STARTCHAR B1DE
ENCODING 45534
SWIDTH 960 0
DWIDTH 16 0
BBX 16 16 0 -4
BITMAP
0000
2880
28FE
FE90
297C
3B54
1554
7D7C
5554
5554
7D7C
1110
FF50
1120
1130
1148
ENDCHAR

STARTCHAR B1DF
ENCODING 45535
SWIDTH 960 0
DWIDTH 16 0
BBX 16 16 0 -4
BITMAP
0000
0080
2080
1080
1080
07F8
0088
7088
1088
1108
1108
1108
1250
1420
2800
47FE
ENDCHAR

STARTCHAR B1E0
ENCODING 45536
SWIDTH 960 0
DWIDTH 16 0
BBX 16 16 0 -4
BITMAP
0000
1080
1040
23F8
2208
4A08
FBF8
1200
2200
43FC
F694
0A94
03FC
1A94
E294
0294
ENDCHAR

STARTCHAR B1E1
ENCODING 45537
SWIDTH 960 0
DWIDTH 16 0
BBX 16 16 0 -4
BITMAP
0000
0000
7C1C
45E0
5400
5440
5420
55FC
5404
5408
5410
5420
1040
2880
4540
823E
ENDCHAR

STARTCHAR B1E2
ENCODING 45538
SWIDTH 960 0
DWIDTH 16 0
BBX 16 16 0 -4
BITMAP
0000
0100
0080
1FF8
1008
1008
1FF8
1000
1000
1FFC
1924
2924
2FFC
4924
8924
0924
ENDCHAR

STARTCHAR B1E3
ENCODING 45539
SWIDTH 960 0
DWIDTH 16 0
BBX 16 16 0 -4
BITMAP
0000
1000
17FE
1040
1040
27FC
2444
27FC
6444
A7FC
2040
2240
2140
2080
2140
2230
ENDCHAR

STARTCHAR B1E4
ENCODING 45540
SWIDTH 960 0
DWIDTH 16 0
BBX 16 16 0 -4
BITMAP
0000
0200
0100
7FFC
0440
1450
1448
2444
4444
0FE0
0020
0440
0280
0100
0280
0C60
ENDCHAR

STARTCHAR B1E5
ENCODING 45541
SWIDTH 960 0
DWIDTH 16 0
BBX 16 16 0 -4
BITMAP
0000
0200
0100
0100
0000
FFFE
0100
0100
0140
0120
0110
0100
0100
0100
0100
0100
ENDCHAR

STARTCHAR B1E6
ENCODING 45542
SWIDTH 960 0
DWIDTH 16 0
BBX 16 16 0 -4
BITMAP
0000
2010
1088
1088
7CBE
0A84
2A94
2A94
FEFE
1288
1088
7CBE
1088
1108
1208
2408
ENDCHAR

STARTCHAR B1E7
ENCODING 45543
SWIDTH 960 0
DWIDTH 16 0
BBX 16 16 0 -4
BITMAP
0000
2020
1210
1110
7D7C
0808
2828
2B28
FD7E
1110
1110
7D7C
1110
1150
1190
2110
ENDCHAR

STARTCHAR B1E8
ENCODING 45544
SWIDTH 960 0
DWIDTH 16 0
BBX 16 16 0 -4
BITMAP
0000
2010
1088
1088
7D3E
0904
2BD4
2854
FCBE
1108
13C8
783E
1008
11C8
1608
2008
ENDCHAR

STARTCHAR B1E9
ENCODING 45545
SWIDTH 960 0
DWIDTH 16 0
BBX 16 16 0 -4
BITMAP
0000
0080
4040
27F8
2408
0408
07F8
E400
27F8
26A8
26A8
2BF8
2AA8
32A8
5000
8FFE
ENDCHAR

STARTCHAR B1EA
ENCODING 45546
SWIDTH 960 0
DWIDTH 16 0
BBX 16 16 0 -4
BITMAP
0000
1000
1000
13F8
1000
FC00
1000
37FE
3840
5440
5150
9150
1248
1444
1040
1140
ENDCHAR

STARTCHAR B1EB
ENCODING 45547
SWIDTH 960 0
DWIDTH 16 0
BBX 16 16 0 -4
BITMAP
0000
0400
0784
0408
3FD0
24A0
2704
3C88
2790
2020
2F44
2908
2910
2922
4942
90FE
ENDCHAR

STARTCHAR B1EC
ENCODING 45548
SWIDTH 960 0
DWIDTH 16 0
BBX 16 16 0 -4
BITMAP
0000
0000
7BFE
4850
49FC
4954
7954
49FC
4800
48F8
7800
4BFE
4800
48A8
4924
4A22
ENDCHAR

STARTCHAR B1ED
ENCODING 45549
SWIDTH 960 0
DWIDTH 16 0
BBX 16 16 0 -4
BITMAP
0000
0100
0100
3FF8
0100
1FF0
0100
0100
7FFC
0200
0510
0CA0
3440
C420
0510
060E
ENDCHAR

STARTCHAR B1EE
ENCODING 45550
SWIDTH 960 0
DWIDTH 16 0
BBX 16 16 0 -4
BITMAP
0000
0820
2A20
1C3E
7F44
49A8
5D10
6B28
47C6
0880
3FF0
5110
1FF0
1110
1FF0
0000
ENDCHAR

STARTCHAR B1EF
ENCODING 45551
SWIDTH 960 0
DWIDTH 16 0
BBX 16 16 0 -4
BITMAP
0000
4920
2A20
0820
7F3E
4948
5DA8
6B10
4928
4B46
0000
0904
4884
4892
4812
87F0
ENDCHAR

STARTCHAR B1F0
ENCODING 45552
SWIDTH 960 0
DWIDTH 16 0
BBX 16 16 0 -4
BITMAP
0000
0004
3F04
2104
2124
2124
3F24
0824
0824
7F24
0924
0924
1124
1104
2504
4214
ENDCHAR

STARTCHAR B1F1
ENCODING 45553
SWIDTH 960 0
DWIDTH 16 0
BBX 16 16 0 -4
BITMAP
0000
0080
3FFC
2100
A7F8
6408
27F8
6408
A7F8
2408
27F8
2120
2210
2668
3B86
4208
ENDCHAR

STARTCHAR B1F2
ENCODING 45554
SWIDTH 960 0
DWIDTH 16 0
BBX 16 16 0 -4
BITMAP
0000
1080
1082
1082
1084
FBE8
1090
3982
31C2
52A4
5288
9492
1082
1084
1088
1090
ENDCHAR

STARTCHAR B1F3
ENCODING 45555
SWIDTH 960 0
DWIDTH 16 0
BBX 16 16 0 -4
BITMAP
0000
0010
2010
11F4
0012
FE10
05FE
4410
2450
2550
1570
2950
2948
4548
816A
0386
ENDCHAR

STARTCHAR B1F4
ENCODING 45556
SWIDTH 960 0
DWIDTH 16 0
BBX 16 16 0 -4
BITMAP
0000
0200
42FE
2A10
0BA0
0A7C
8A44
5FD4
0254
2A54
AAD4
5354
4210
4428
4844
5082
ENDCHAR

STARTCHAR B1F5
ENCODING 45557
SWIDTH 960 0
DWIDTH 16 0
BBX 16 16 0 -4
BITMAP
0000
0100
4080
2FFC
2804
0864
8380
5200
13F8
1220
2220
E220
2FFC
2000
2220
2410
ENDCHAR

STARTCHAR B1F6
ENCODING 45558
SWIDTH 960 0
DWIDTH 16 0
BBX 16 16 0 -4
BITMAP
0000
0200
0100
7FFC
4004
4064
0F80
0800
0800
0FF0
0820
0820
7FFE
0000
0810
1008
ENDCHAR

STARTCHAR B1F7
ENCODING 45559
SWIDTH 960 0
DWIDTH 16 0
BBX 16 16 0 -4
BITMAP
0000
1080
1040
13FC
1204
FE34
11C0
1100
1DF8
3110
D110
1110
17FE
1000
1110
5208
ENDCHAR

STARTCHAR B1F8
ENCODING 45560
SWIDTH 960 0
DWIDTH 16 0
BBX 16 16 0 -4
BITMAP
0000
0000
0070
0F80
0800
0800
0800
0FF8
0840
0840
0840
FFFE
0000
0440
0820
1010
ENDCHAR

STARTCHAR B1F9
ENCODING 45561
SWIDTH 960 0
DWIDTH 16 0
BBX 16 16 0 -4
BITMAP
0000
0080
4080
2080
2084
0088
0F90
11E0
12A0
22A0
E490
2488
2886
3080
2080
2280
ENDCHAR

STARTCHAR B1FA
ENCODING 45562
SWIDTH 960 0
DWIDTH 16 0
BBX 16 16 0 -4
BITMAP
0000
1000
1000
17FE
1040
FC40
1040
33FC
3A44
5644
5244
9264
1294
130C
1204
1214
ENDCHAR

STARTCHAR B1FB
ENCODING 45563
SWIDTH 960 0
DWIDTH 16 0
BBX 16 16 0 -4
BITMAP
0000
0000
0000
FFFE
0100
0100
0100
3FF8
2108
2108
2288
2448
2828
2008
2008
2028
ENDCHAR

STARTCHAR B1FC
ENCODING 45564
SWIDTH 960 0
DWIDTH 16 0
BBX 16 16 0 -4
BITMAP
0000
0078
3F80
0100
7FFC
0100
3FF8
0108
FFFE
0108
3FF8
0380
0540
0920
1118
6106
ENDCHAR

STARTCHAR B1FD
ENCODING 45565
SWIDTH 960 0
DWIDTH 16 0
BBX 16 16 0 -4
BITMAP
0000
2000
2108
2090
3C00
47FC
4890
A090
2090
27FE
2090
2090
2090
2890
3110
2210
ENDCHAR

STARTCHAR B1FE
ENCODING 45566
SWIDTH 960 0
DWIDTH 16 0
BBX 16 16 0 -4
BITMAP
0000
0000
2000
2FFE
2040
2840
B040
A7FC
A444
2444
24A4
2514
360C
2C04
4404
8414
ENDCHAR

STARTCHAR B2A1
ENCODING 45729
SWIDTH 960 0
DWIDTH 16 0
BBX 16 16 0 -4
BITMAP
0000
0080
0040
1FFC
1000
5000
37FC
1040
1040
37FC
5444
9444
14A4
1514
2404
4414
ENDCHAR

STARTCHAR B2A2
ENCODING 45730
SWIDTH 960 0
DWIDTH 16 0
BBX 16 16 0 -4
BITMAP
0000
1010
0820
0440
3FF8
0420
0420
0420
0420
7FFE
0420
0420
0420
0820
0820
1020
ENDCHAR

STARTCHAR B2A3
ENCODING 45731
SWIDTH 960 0
DWIDTH 16 0
BBX 16 16 0 -4
BITMAP
0000
0020
0020
7C20
11FC
1124
1128
7D20
11F8
1108
1188
1E50
F220
0250
0488
0B06
ENDCHAR

STARTCHAR B2A4
ENCODING 45732
SWIDTH 960 0
DWIDTH 16 0
BBX 16 16 0 -4
BITMAP
0000
0820
0820
FFFE
0820
2040
13FC
0A48
4240
23F0
0A10
1310
E4A0
2440
24A0
2910
ENDCHAR

STARTCHAR B2A5
ENCODING 45733
SWIDTH 960 0
DWIDTH 16 0
BBX 16 16 0 -4
BITMAP
0000
1038
13C0
1048
1450
FD50
17FE
1150
1A48
3446
D3F8
1248
1248
13F8
1248
5248
ENDCHAR

STARTCHAR B2A6
ENCODING 45734
SWIDTH 960 0
DWIDTH 16 0
BBX 16 16 0 -4
BITMAP
0000
1040
1250
1248
1240
FFFC
1080
1480
18F8
3108
D150
1250
1220
1450
1888
5306
ENDCHAR

STARTCHAR B2A7
ENCODING 45735
SWIDTH 960 0
DWIDTH 16 0
BBX 16 16 0 -4
BITMAP
0000
2040
2040
2040
7840
47FC
8040
78E0
2150
2150
FA48
2248
2DF6
2040
2840
3040
ENDCHAR

STARTCHAR B2A8
ENCODING 45736
SWIDTH 960 0
DWIDTH 16 0
BBX 16 16 0 -4
BITMAP
0000
0040
4040
2040
17FC
0448
8440
4440
0FF8
1408
2510
E4A0
2440
24A0
2910
3208
ENDCHAR

STARTCHAR B2A9
ENCODING 45737
SWIDTH 960 0
DWIDTH 16 0
BBX 16 16 0 -4
BITMAP
0000
2050
2048
27FE
2040
27FC
FC44
27FC
2444
27FC
2454
2010
2FFE
2210
2110
2050
ENDCHAR

STARTCHAR B2AA
ENCODING 45738
SWIDTH 960 0
DWIDTH 16 0
BBX 16 16 0 -4
BITMAP
0000
0820
0820
7F20
0820
0820
7FFC
4124
0024
3E24
0444
0844
7E44
0884
0884
2914
ENDCHAR

STARTCHAR B2AB
ENCODING 45739
SWIDTH 960 0
DWIDTH 16 0
BBX 16 16 0 -4
BITMAP
0000
1050
1048
17FC
1040
FBF8
1248
13F8
1A48
33F8
D248
1010
17FE
1110
1110
5050
ENDCHAR

STARTCHAR B2AC
ENCODING 45740
SWIDTH 960 0
DWIDTH 16 0
BBX 16 16 0 -4
BITMAP
0000
1040
1040
1080
1DFC
2104
2104
7D04
9104
11FC
7D04
1104
1104
1504
1904
11FC
ENDCHAR

STARTCHAR B2AD
ENCODING 45741
SWIDTH 960 0
DWIDTH 16 0
BBX 16 16 0 -4
BITMAP
0000
1040
1040
1E7C
28A0
4510
2040
1080
83F8
4208
0A08
1208
E3F8
2208
2208
2208
ENDCHAR

STARTCHAR B2AE
ENCODING 45742
SWIDTH 960 0
DWIDTH 16 0
BBX 16 16 0 -4
BITMAP
0000
0840
0840
1080
11FC
3104
3104
5104
9104
11FC
1104
1104
1104
1104
1104
11FC
ENDCHAR

STARTCHAR B2AF
ENCODING 45743
SWIDTH 960 0
DWIDTH 16 0
BBX 16 16 0 -4
BITMAP
0000
0200
0400
1FF0
1010
1FF0
1010
1010
1FF0
0100
3FF8
2108
2108
2108
2108
2128
ENDCHAR

STARTCHAR B2B0
ENCODING 45744
SWIDTH 960 0
DWIDTH 16 0
BBX 16 16 0 -4
BITMAP
0000
0800
0820
1040
3EFC
2284
3284
2A84
2284
FEFC
2284
3284
2A84
2284
2284
4AFC
ENDCHAR

STARTCHAR B2B1
ENCODING 45745
SWIDTH 960 0
DWIDTH 16 0
BBX 16 16 0 -4
BITMAP
0000
0040
7840
4BF8
4840
4BFC
7A04
4A04
4BF0
4820
7840
4FFC
4840
4840
4840
4940
ENDCHAR

STARTCHAR B2B2
ENCODING 45746
SWIDTH 960 0
DWIDTH 16 0
BBX 16 16 0 -4
BITMAP
0000
0050
7848
4FFC
4840
4BF8
7A48
4BF8
4A48
4BF8
7A48
4810
4FFE
4910
4910
4850
ENDCHAR

STARTCHAR B2B3
ENCODING 45747
SWIDTH 960 0
DWIDTH 16 0
BBX 16 16 0 -4
BITMAP
0000
0210
4210
2210
1FD0
823C
5FD4
1054
0F94
2124
2224
E3A4
2E24
2244
2244
2AA8
ENDCHAR

STARTCHAR B2B4
ENCODING 45748
SWIDTH 960 0
DWIDTH 16 0
BBX 16 16 0 -4
BITMAP
0000
0040
4040
2080
13F8
8208
4208
2208
0A08
13F8
2208
E208
2208
2208
2208
23F8
ENDCHAR

STARTCHAR B2B5
ENCODING 45749
SWIDTH 960 0
DWIDTH 16 0
BBX 16 16 0 -4
BITMAP
0000
0000
7D08
0488
2450
2420
2450
2488
2500
3E04
0288
0250
1A20
E250
0288
0B06
ENDCHAR

STARTCHAR B2B6
ENCODING 45750
SWIDTH 960 0
DWIDTH 16 0
BBX 16 16 0 -4
BITMAP
0000
1040
1050
1040
13FC
FC40
1040
17F8
1A48
3248
D3F8
1248
1248
13F8
1248
5248
ENDCHAR

STARTCHAR B2B7
ENCODING 45751
SWIDTH 960 0
DWIDTH 16 0
BBX 16 16 0 -4
BITMAP
0000
0000
0200
0200
0200
0200
0200
0280
0240
0220
0210
0208
0200
0200
0200
0200
ENDCHAR

STARTCHAR B2B8
ENCODING 45752
SWIDTH 960 0
DWIDTH 16 0
BBX 16 16 0 -4
BITMAP
0000
0040
0050
7848
4FFE
4840
4BF8
4A48
4A48
4BF8
4A48
7A48
03F8
0248
0248
0248
ENDCHAR

STARTCHAR B2B9
ENCODING 45753
SWIDTH 960 0
DWIDTH 16 0
BBX 16 16 0 -4
BITMAP
0000
2040
1040
0840
0040
FC40
0840
1050
1448
3844
5442
9040
1040
1040
1040
1040
ENDCHAR

STARTCHAR B2BA
ENCODING 45754
SWIDTH 960 0
DWIDTH 16 0
BBX 16 16 0 -4
BITMAP
0000
2080
2100
23F8
2208
FBF8
2200
23F8
2208
23F8
2040
3840
27FE
C040
0040
0040
ENDCHAR

STARTCHAR B2BB
ENCODING 45755
SWIDTH 960 0
DWIDTH 16 0
BBX 16 16 0 -4
BITMAP
0000
0000
7FFC
0080
0080
0100
0100
0340
0520
0910
1108
2104
C100
0100
0100
0100
ENDCHAR

STARTCHAR B2BC
ENCODING 45756
SWIDTH 960 0
DWIDTH 16 0
BBX 16 16 0 -4
BITMAP
0000
0200
0200
0200
FFFC
0400
0900
1100
3FF8
5108
9108
1108
1108
1128
1110
0100
ENDCHAR

STARTCHAR B2BD
ENCODING 45757
SWIDTH 960 0
DWIDTH 16 0
BBX 16 16 0 -4
BITMAP
0000
0100
0900
0900
09F8
0900
0900
FFFE
0100
0910
0910
1120
2140
0140
0180
0600
ENDCHAR

STARTCHAR B2BE
ENCODING 45758
SWIDTH 960 0
DWIDTH 16 0
BBX 16 16 0 -4
BITMAP
0000
1040
3EFC
4920
0048
27FC
1040
83F8
4248
0BF8
1248
E3F8
2248
2FFE
2110
2090
ENDCHAR

STARTCHAR B2BF
ENCODING 45759
SWIDTH 960 0
DWIDTH 16 0
BBX 16 16 0 -4
BITMAP
0000
1000
0800
007C
FF44
0048
4248
2450
FF50
0048
7E44
4244
4244
4264
7E58
0040
ENDCHAR

STARTCHAR B2C0
ENCODING 45760
SWIDTH 960 0
DWIDTH 16 0
BBX 16 16 0 -4
BITMAP
0000
1040
1040
1040
13FE
1080
5920
5520
51FC
9324
1524
1124
1124
112C
1020
1020
ENDCHAR

STARTCHAR B2C1
ENCODING 45761
SWIDTH 960 0
DWIDTH 16 0
BBX 16 16 0 -4
BITMAP
0000
2080
2040
27FE
2502
F9BC
22A4
2598
2D10
33F8
E404
2BFA
2040
2150
2248
A544
ENDCHAR

STARTCHAR B2C2
ENCODING 45762
SWIDTH 960 0
DWIDTH 16 0
BBX 16 16 0 -4
BITMAP
0000
0040
4840
2FFC
1040
2BF8
4840
0FFE
1800
2BF8
4A08
8BF8
0A08
0BF8
0A08
5208
ENDCHAR

STARTCHAR B2C3
ENCODING 45763
SWIDTH 960 0
DWIDTH 16 0
BBX 16 16 0 -4
BITMAP
0000
0440
0450
3F48
0440
FFFE
0840
0444
7F44
0848
1A48
2C50
4A20
8960
0C92
090A
ENDCHAR

STARTCHAR B2C4
ENCODING 45764
SWIDTH 960 0
DWIDTH 16 0
BBX 16 16 0 -4
BITMAP
0000
0810
0810
0810
0810
FEFE
0810
1810
1C30
2A50
4890
8910
0A10
0810
0810
0850
ENDCHAR

STARTCHAR B2C5
ENCODING 45765
SWIDTH 960 0
DWIDTH 16 0
BBX 16 16 0 -4
BITMAP
0000
0040
0040
0040
0040
7FFE
0040
00C0
00C0
0140
0240
0440
0840
3040
0040
0140
ENDCHAR

STARTCHAR B2C6
ENCODING 45766
SWIDTH 960 0
DWIDTH 16 0
BBX 16 16 0 -4
BITMAP
0000
0010
7C10
4410
5410
55FE
5410
5430
5430
5450
5490
1510
1210
2810
4410
8250
ENDCHAR

STARTCHAR B2C7
ENCODING 45767
SWIDTH 960 0
DWIDTH 16 0
BBX 16 16 0 -4
BITMAP
0000
001C
7BE0
4804
4A48
4930
7800
4840
4FFC
4840
78C0
48E0
4950
4A48
7C46
0840
ENDCHAR

STARTCHAR B2C8
ENCODING 45768
SWIDTH 960 0
DWIDTH 16 0
BBX 16 16 0 -4
BITMAP
0000
001C
7BE0
4844
4924
48A8
7800
1020
13FE
5C20
5060
5070
50A8
5D24
E222
0420
ENDCHAR

STARTCHAR B2C9
ENCODING 45769
SWIDTH 960 0
DWIDTH 16 0
BBX 16 16 0 -4
BITMAP
0000
0000
007C
7F80
0008
1110
08A0
0100
0100
7FFC
0380
0540
0920
1110
610E
0100
ENDCHAR

STARTCHAR B2CA
ENCODING 45770
SWIDTH 960 0
DWIDTH 16 0
BBX 16 16 0 -4
BITMAP
0000
0100
0E08
F110
4920
2A40
2084
0808
FF10
0820
1C40
1A04
2908
4810
8820
0840
ENDCHAR

STARTCHAR B2CB
ENCODING 45771
SWIDTH 960 0
DWIDTH 16 0
BBX 16 16 0 -4
BITMAP
0000
0440
0440
7FFC
0400
0038
3FC0
1210
0920
0100
7FFC
0380
0540
0920
1110
610E
ENDCHAR

STARTCHAR B2CC
ENCODING 45772
SWIDTH 960 0
DWIDTH 16 0
BBX 16 16 0 -4
BITMAP
0000
0440
0440
7FFC
0440
1EF0
1290
2C60
6820
17D0
2008
5FF6
8100
0540
0920
1110
ENDCHAR

STARTCHAR B2CD
ENCODING 45773
SWIDTH 960 0
DWIDTH 16 0
BBX 16 16 0 -4
BITMAP
0000
1000
1EF8
1088
3E50
4420
2950
1288
6544
0FE0
3830
CFEE
0820
0FE0
0A10
09A0
ENDCHAR

STARTCHAR B2CE
ENCODING 45774
SWIDTH 960 0
DWIDTH 16 0
BBX 16 16 0 -4
BITMAP
0000
0100
0200
0440
0FE0
0200
7FFC
0440
08A0
1310
2C48
C186
0E10
0060
0180
0E00
ENDCHAR

STARTCHAR B2CF
ENCODING 45775
SWIDTH 960 0
DWIDTH 16 0
BBX 16 16 0 -4
BITMAP
0000
0000
3FF8
0100
0100
7FFC
0280
0540
0920
3FF8
D116
1110
1FF0
0100
0110
3FF8
ENDCHAR

STARTCHAR B2D0
ENCODING 45776
SWIDTH 960 0
DWIDTH 16 0
BBX 16 16 0 -4
BITMAP
0000
0040
0050
7E48
1040
107C
1DC0
2440
247C
65C0
9448
0850
0820
1060
2092
430A
ENDCHAR

STARTCHAR B2D1
ENCODING 45777
SWIDTH 960 0
DWIDTH 16 0
BBX 16 16 0 -4
BITMAP
0000
2100
2106
2138
2FE0
B220
B520
A53E
2FE8
2128
2128
21E8
2F28
2148
2148
2188
ENDCHAR

STARTCHAR B2D2
ENCODING 45778
SWIDTH 960 0
DWIDTH 16 0
BBX 16 16 0 -4
BITMAP
0000
2080
20A0
2110
27F8
B080
AFFC
A120
2250
2488
3926
2240
2088
2310
2020
20C0
ENDCHAR

STARTCHAR B2D3
ENCODING 45779
SWIDTH 960 0
DWIDTH 16 0
BBX 16 16 0 -4
BITMAP
0000
1000
1020
1020
1220
5420
5924
5124
9124
1124
1124
1124
2924
2524
4524
81FC
ENDCHAR

STARTCHAR B2D4
ENCODING 45780
SWIDTH 960 0
DWIDTH 16 0
BBX 16 16 0 -4
BITMAP
0000
0440
0440
7FFC
0440
0100
02C0
0420
1818
6FE6
8820
08A0
0840
0810
0810
07F0
ENDCHAR

STARTCHAR B2D5
ENCODING 45781
SWIDTH 960 0
DWIDTH 16 0
BBX 16 16 0 -4
BITMAP
0000
0820
1020
3C50
2450
3488
2D04
2602
FCF8
2488
3488
2CA8
2490
2480
2484
5484
ENDCHAR

STARTCHAR B2D6
ENCODING 45782
SWIDTH 960 0
DWIDTH 16 0
BBX 16 16 0 -4
BITMAP
0000
0100
0100
0280
0280
0440
0820
3010
CFEE
0820
0820
08A0
0840
0808
0808
07F8
ENDCHAR

STARTCHAR B2D7
ENCODING 45783
SWIDTH 960 0
DWIDTH 16 0
BBX 16 16 0 -4
BITMAP
0000
0080
4080
20C0
1120
0210
8408
4806
0BF0
1210
2210
E250
2220
2204
2204
21FC
ENDCHAR

STARTCHAR B2D8
ENCODING 45784
SWIDTH 960 0
DWIDTH 16 0
BBX 16 16 0 -4
BITMAP
0000
0480
FFFE
04A8
04A4
5FFE
5020
57A0
7520
17A4
74A4
57A8
5528
9510
27B2
404A
ENDCHAR

STARTCHAR B2D9
ENCODING 45785
SWIDTH 960 0
DWIDTH 16 0
BBX 16 16 0 -4
BITMAP
0000
1000
11F0
1110
11F0
F800
17BC
14A4
1FBC
3040
D7FC
1040
10E0
1150
1248
5446
ENDCHAR

STARTCHAR B2DA
ENCODING 45786
SWIDTH 960 0
DWIDTH 16 0
BBX 16 16 0 -4
BITMAP
0000
1010
1010
5550
397C
1010
FC10
137C
3900
557C
5144
9144
1144
117C
1280
147E
ENDCHAR

STARTCHAR B2DB
ENCODING 45787
SWIDTH 960 0
DWIDTH 16 0
BBX 16 16 0 -4
BITMAP
0000
1090
1090
17FE
1090
FFFC
1294
33FC
3A94
57FC
5000
93FC
1204
13FC
1204
13FC
ENDCHAR

STARTCHAR B2DC
ENCODING 45788
SWIDTH 960 0
DWIDTH 16 0
BBX 16 16 0 -4
BITMAP
0000
0440
0440
7FFC
0440
3FF8
2448
3FF8
2448
3FF8
0000
1FF0
1010
1FF0
1010
1FF0
ENDCHAR

STARTCHAR B2DD
ENCODING 45789
SWIDTH 960 0
DWIDTH 16 0
BBX 16 16 0 -4
BITMAP
0000
0820
0820
7FFC
0820
0000
1FF0
1010
1FF0
1010
1FF0
0100
FFFE
0100
0100
0100
ENDCHAR

STARTCHAR B2DE
ENCODING 45790
SWIDTH 960 0
DWIDTH 16 0
BBX 16 16 0 -4
BITMAP
0000
0000
3FFC
2000
2F88
28A8
2AA8
2AA8
2AA8
2AA8
2AA8
2AA8
2208
4508
4888
9028
ENDCHAR

STARTCHAR B2DF
ENCODING 45791
SWIDTH 960 0
DWIDTH 16 0
BBX 16 16 0 -4
BITMAP
0000
1020
3E7C
50A0
0910
0100
7FFC
0100
3FF8
2108
2388
2558
0520
0910
1108
6106
ENDCHAR

STARTCHAR B2E0
ENCODING 45792
SWIDTH 960 0
DWIDTH 16 0
BBX 16 16 0 -4
BITMAP
0000
1000
1004
17C4
2454
2554
2554
6554
A554
2554
2554
2544
2104
2284
2444
2814
ENDCHAR

STARTCHAR B2E1
ENCODING 45793
SWIDTH 960 0
DWIDTH 16 0
BBX 16 16 0 -4
BITMAP
0000
0000
1E78
1248
1248
1248
1248
1248
FFFE
1248
1248
1248
1248
1248
1248
26A8
ENDCHAR

STARTCHAR B2E2
ENCODING 45794
SWIDTH 960 0
DWIDTH 16 0
BBX 16 16 0 -4
BITMAP
0000
0000
4004
27C4
1454
8554
4554
2554
0D54
1554
2554
E554
2104
2284
2444
2814
ENDCHAR

STARTCHAR B2E3
ENCODING 45795
SWIDTH 960 0
DWIDTH 16 0
BBX 16 16 0 -4
BITMAP
0000
0000
1FFC
1004
1004
1FFC
1000
1000
17F8
1000
1000
1FFE
1100
2210
2408
4FFC
ENDCHAR

STARTCHAR B2E4
ENCODING 45796
SWIDTH 960 0
DWIDTH 16 0
BBX 16 16 0 -4
BITMAP
0000
0000
0104
7888
4BFE
4A22
4AAA
7A22
13FE
1000
5DFC
5104
5104
5DFC
E104
0104
ENDCHAR

STARTCHAR B2E5
ENCODING 45797
SWIDTH 960 0
DWIDTH 16 0
BBX 16 16 0 -4
BITMAP
0000
1000
1018
17E0
1040
F840
17FE
1040
1940
365C
D444
1444
175C
1444
1444
57FC
ENDCHAR

STARTCHAR B2E6
ENCODING 45798
SWIDTH 960 0
DWIDTH 16 0
BBX 16 16 0 -4
BITMAP
0000
0000
0000
3FF8
0008
0208
1110
0890
0420
0440
0280
0100
0280
0440
0820
1010
ENDCHAR

STARTCHAR B2E7
ENCODING 45799
SWIDTH 960 0
DWIDTH 16 0
BBX 16 16 0 -4
BITMAP
0000
0820
0820
FFFE
0820
0200
7FFC
0400
0840
1040
17FC
3040
5040
9040
1040
17FE
ENDCHAR

STARTCHAR B2E8
ENCODING 45800
SWIDTH 960 0
DWIDTH 16 0
BBX 16 16 0 -4
BITMAP
0000
0440
0440
7FFC
0440
0100
0280
0440
1930
2108
DFF6
0100
0920
1110
2108
0500
ENDCHAR

STARTCHAR B2E9
ENCODING 45801
SWIDTH 960 0
DWIDTH 16 0
BBX 16 16 0 -4
BITMAP
0000
0100
0100
7FFC
0540
0920
1110
FFFE
1010
1010
1FF0
1010
1010
1FF0
0000
7FFC
ENDCHAR

STARTCHAR B2EA
ENCODING 45802
SWIDTH 960 0
DWIDTH 16 0
BBX 16 16 0 -4
BITMAP
0000
0040
0040
FC40
23FC
20E0
2150
4248
7C46
ABF8
2A08
2BF8
2A08
2BF8
3800
07FC
ENDCHAR

STARTCHAR B2EB
ENCODING 45803
SWIDTH 960 0
DWIDTH 16 0
BBX 16 16 0 -4
BITMAP
0000
1110
1110
17FC
1110
FC50
10A0
1510
1A48
3444
DBFA
1040
1150
1248
1444
5140
ENDCHAR

STARTCHAR B2EC
ENCODING 45804
SWIDTH 960 0
DWIDTH 16 0
BBX 16 16 0 -4
BITMAP
0000
0200
0100
7FFC
4804
4EF4
1290
2C60
6820
17D0
2008
5FF6
8100
0920
1110
2510
ENDCHAR

STARTCHAR B2ED
ENCODING 45805
SWIDTH 960 0
DWIDTH 16 0
BBX 16 16 0 -4
BITMAP
0000
0080
0440
0820
1010
2FE8
C226
0420
08A0
3040
0100
1110
1110
1110
1110
1FF0
ENDCHAR

STARTCHAR B2EE
ENCODING 45806
SWIDTH 960 0
DWIDTH 16 0
BBX 16 16 0 -4
BITMAP
0000
0820
0440
3FF8
0100
0100
1FF0
0100
0200
7FFC
0400
0800
17F0
2080
4080
8080
ENDCHAR

STARTCHAR B2EF
ENCODING 45807
SWIDTH 960 0
DWIDTH 16 0
BBX 16 16 0 -4
BITMAP
0000
0080
2040
17FC
1404
0404
0038
F3C0
1040
1040
107C
17C0
1040
1440
1842
103E
ENDCHAR

STARTCHAR B2F0
ENCODING 45808
SWIDTH 960 0
DWIDTH 16 0
BBX 16 16 0 -4
BITMAP
0000
1000
1018
11E0
1100
FD00
1100
11FE
1D20
3120
D130
1128
1124
1120
1220
5220
ENDCHAR

STARTCHAR B2F1
ENCODING 45809
SWIDTH 960 0
DWIDTH 16 0
BBX 16 16 0 -4
BITMAP
0000
0880
0888
2890
2EA0
28C0
2884
2E84
717C
0100
FFFE
0380
0540
0920
1110
210C
ENDCHAR

STARTCHAR B2F2
ENCODING 45810
SWIDTH 960 0
DWIDTH 16 0
BBX 16 16 0 -4
BITMAP
0000
0408
0808
1208
6A08
2C08
29FE
1408
6618
0A28
1228
6648
0A48
1288
6308
1428
ENDCHAR

STARTCHAR B2F3
ENCODING 45811
SWIDTH 960 0
DWIDTH 16 0
BBX 16 16 0 -4
BITMAP
0000
1040
1080
11F0
1220
FFF8
1248
1648
1BF8
30A0
D122
121E
1CC0
1030
1180
5060
ENDCHAR

STARTCHAR B2F4
ENCODING 45812
SWIDTH 960 0
DWIDTH 16 0
BBX 16 16 0 -4
BITMAP
0000
1040
1080
1110
13F8
FC80
13FC
10A0
1910
3248
D486
1920
1248
1090
1120
5040
ENDCHAR

STARTCHAR B2F5
ENCODING 45813
SWIDTH 960 0
DWIDTH 16 0
BBX 16 16 0 -4
BITMAP
0000
1104
1088
1050
7DFC
5524
5524
55FC
5524
7D24
11FC
1420
1FFE
E420
0020
0020
ENDCHAR

STARTCHAR B2F6
ENCODING 45814
SWIDTH 960 0
DWIDTH 16 0
BBX 16 16 0 -4
BITMAP
0000
2080
2080
20F0
3920
4BF8
5648
8248
23F8
20A0
2122
261E
20C0
2830
3180
0060
ENDCHAR

STARTCHAR B2F7
ENCODING 45815
SWIDTH 960 0
DWIDTH 16 0
BBX 16 16 0 -4
BITMAP
0000
0100
2100
11F0
1220
07F8
0248
F248
13F8
10A0
1122
161E
10C0
1030
1580
1860
ENDCHAR

STARTCHAR B2F8
ENCODING 45816
SWIDTH 960 0
DWIDTH 16 0
BBX 16 16 0 -4
BITMAP
0000
1080
1040
27FC
2400
4DFC
F524
2524
45FC
F524
0524
05FC
3420
C5FC
0820
13FE
ENDCHAR

STARTCHAR B2F9
ENCODING 45817
SWIDTH 960 0
DWIDTH 16 0
BBX 16 16 0 -4
BITMAP
0000
1040
1020
1010
1DFE
2084
2048
7DFE
9100
1100
7D00
1100
1100
1500
1900
1200
ENDCHAR

STARTCHAR B2FA
ENCODING 45818
SWIDTH 960 0
DWIDTH 16 0
BBX 16 16 0 -4
BITMAP
0000
0200
0100
0080
7FFC
0820
0420
0240
1FFC
1000
1000
1000
1000
2000
2000
4000
ENDCHAR

STARTCHAR B2FB
ENCODING 45819
SWIDTH 960 0
DWIDTH 16 0
BBX 16 16 0 -4
BITMAP
0000
2000
17FC
5004
4444
4284
4FE4
4924
4FE4
4924
4FE4
4104
5FF4
4104
4104
4114
ENDCHAR

STARTCHAR B2FC
ENCODING 45820
SWIDTH 960 0
DWIDTH 16 0
BBX 16 16 0 -4
BITMAP
0000
0800
FFFE
0010
7F20
557C
5D44
5554
7F54
0054
3E54
3254
2A54
3E10
0028
FF44
ENDCHAR

STARTCHAR B2FD
ENCODING 45821
SWIDTH 960 0
DWIDTH 16 0
BBX 16 16 0 -4
BITMAP
0000
1FF0
1010
1010
1FF0
1010
1010
1FF0
0000
3FF8
2008
2008
3FF8
2008
2008
3FF8
ENDCHAR

STARTCHAR B2FE
ENCODING 45822
SWIDTH 960 0
DWIDTH 16 0
BBX 16 16 0 -4
BITMAP
0000
01F8
4508
2908
11F8
2908
4908
09F8
1800
2BFC
4A04
8A04
0BFC
0A04
5204
23FC
ENDCHAR

STARTCHAR B3A1
ENCODING 45985
SWIDTH 960 0
DWIDTH 16 0
BBX 16 16 0 -4
BITMAP
0000
2000
27F8
2010
2060
F880
2100
27FC
2124
2124
2124
3A24
C244
0444
0884
1128
ENDCHAR

STARTCHAR B3A2
ENCODING 45986
SWIDTH 960 0
DWIDTH 16 0
BBX 16 16 0 -4
BITMAP
0000
0100
1110
0920
0100
7FFC
4004
4004
1FF0
0000
0000
7FFC
0200
0440
0820
1FF0
ENDCHAR

STARTCHAR B3A3
ENCODING 45987
SWIDTH 960 0
DWIDTH 16 0
BBX 16 16 0 -4
BITMAP
0000
0100
1110
0920
7FFC
4004
4FE4
0820
0FE0
0100
1FF0
1110
1110
1110
1150
0120
ENDCHAR

STARTCHAR B3A4
ENCODING 45988
SWIDTH 960 0
DWIDTH 16 0
BBX 16 16 0 -4
BITMAP
0000
0800
0810
0820
0840
0980
0A00
0800
7FFC
0900
0900
0880
0840
0820
0910
0E0E
ENDCHAR

STARTCHAR B3A5
ENCODING 45989
SWIDTH 960 0
DWIDTH 16 0
BBX 16 16 0 -4
BITMAP
0000
0840
0A48
1150
1040
17FE
3404
5000
93F8
1000
1000
17FE
1040
1090
1108
13FC
ENDCHAR

STARTCHAR B3A6
ENCODING 45990
SWIDTH 960 0
DWIDTH 16 0
BBX 16 16 0 -4
BITMAP
0000
0000
7BF8
4830
4840
4880
7900
4BFC
4894
4924
7924
4A44
4A44
4C84
4904
4A28
ENDCHAR

STARTCHAR B3A7
ENCODING 45991
SWIDTH 960 0
DWIDTH 16 0
BBX 16 16 0 -4
BITMAP
0000
0000
0000
1FFC
1000
1000
1000
1000
1000
1000
1000
1000
1000
2000
4000
8000
ENDCHAR

STARTCHAR B3A8
ENCODING 45992
SWIDTH 960 0
DWIDTH 16 0
BBX 16 16 0 -4
BITMAP
0000
0810
4910
2920
2A20
087E
7F84
4104
5D44
5528
5528
5510
5D10
4128
4344
4082
ENDCHAR

STARTCHAR B3A9
ENCODING 45993
SWIDTH 960 0
DWIDTH 16 0
BBX 16 16 0 -4
BITMAP
0000
2000
23F8
2010
F820
A840
A880
ABFC
F924
A924
A924
A924
FA24
2444
2084
2128
ENDCHAR

STARTCHAR B3AA
ENCODING 45994
SWIDTH 960 0
DWIDTH 16 0
BBX 16 16 0 -4
BITMAP
0000
01F8
0108
7908
49F8
4908
4908
49F8
4800
4BFC
4A04
7A04
03FC
0204
0204
03FC
ENDCHAR

STARTCHAR B3AB
ENCODING 45995
SWIDTH 960 0
DWIDTH 16 0
BBX 16 16 0 -4
BITMAP
0000
13F8
1208
1208
23F8
2208
6208
A3F8
2000
27FC
2404
2404
27FC
2404
2404
27FC
ENDCHAR

STARTCHAR B3AC
ENCODING 45996
SWIDTH 960 0
DWIDTH 16 0
BBX 16 16 0 -4
BITMAP
0000
1000
13F8
1088
7C88
1088
10A8
FD10
1200
51F8
5D08
5108
5108
71F8
5000
8FFE
ENDCHAR

STARTCHAR B3AD
ENCODING 45997
SWIDTH 960 0
DWIDTH 16 0
BBX 16 16 0 -4
BITMAP
0000
1040
1040
1040
1040
FD50
1148
1544
1A42
3248
D448
1010
1010
1020
1040
5180
ENDCHAR

STARTCHAR B3AE
ENCODING 45998
SWIDTH 960 0
DWIDTH 16 0
BBX 16 16 0 -4
BITMAP
0000
1040
1040
1040
1C40
2150
2148
7D44
9142
1248
7C48
1048
1010
1410
1820
10C0
ENDCHAR

STARTCHAR B3AF
ENCODING 45999
SWIDTH 960 0
DWIDTH 16 0
BBX 16 16 0 -4
BITMAP
0000
0800
087C
7F44
0844
0844
7F7C
4144
7F44
4144
7F7C
0844
0844
FF44
0844
0894
ENDCHAR

STARTCHAR B3B0
ENCODING 46000
SWIDTH 960 0
DWIDTH 16 0
BBX 16 16 0 -4
BITMAP
0000
0200
023C
EFA4
A224
A224
AFBC
A8A4
AFA4
A8A4
AFBC
A224
E224
1FE4
0224
0244
ENDCHAR

STARTCHAR B3B1
ENCODING 46001
SWIDTH 960 0
DWIDTH 16 0
BBX 16 16 0 -4
BITMAP
0000
0200
423C
2FA4
2224
0224
8FBC
48A4
4FA4
18A4
2FBC
2224
E224
2FA4
2224
2244
ENDCHAR

STARTCHAR B3B2
ENCODING 46002
SWIDTH 960 0
DWIDTH 16 0
BBX 16 16 0 -4
BITMAP
0000
1110
1110
2220
1110
3FF8
2108
3FF8
2108
3FF8
0100
FFFE
0540
0920
1110
610E
ENDCHAR

STARTCHAR B3B3
ENCODING 46003
SWIDTH 960 0
DWIDTH 16 0
BBX 16 16 0 -4
BITMAP
0000
0040
0040
7840
4840
4950
4948
4944
4A42
4A48
4848
4810
7810
0020
0040
0180
ENDCHAR

STARTCHAR B3B4
ENCODING 46004
SWIDTH 960 0
DWIDTH 16 0
BBX 16 16 0 -4
BITMAP
0000
1040
1040
1040
1040
5550
5948
5144
9242
1248
1448
1010
2810
2420
4040
8180
ENDCHAR

STARTCHAR B3B5
ENCODING 46005
SWIDTH 960 0
DWIDTH 16 0
BBX 16 16 0 -4
BITMAP
0000
0200
0200
7FFC
0400
0900
1100
2100
3FF0
0100
0100
FFFE
0100
0100
0100
0100
ENDCHAR

STARTCHAR B3B6
ENCODING 46006
SWIDTH 960 0
DWIDTH 16 0
BBX 16 16 0 -4
BITMAP
0000
1020
1020
1020
1020
FC20
1120
113C
1D20
3120
D120
1120
1120
1120
17FE
5000
ENDCHAR

STARTCHAR B3B7
ENCODING 46007
SWIDTH 960 0
DWIDTH 16 0
BBX 16 16 0 -4
BITMAP
0000
2210
2110
2FD0
2210
F4BE
2FC4
2024
37A8
24A8
E7A8
2490
2790
24A8
24A8
A4C4
ENDCHAR

STARTCHAR B3B8
ENCODING 46008
SWIDTH 960 0
DWIDTH 16 0
BBX 16 16 0 -4
BITMAP
0000
2404
3F84
4424
BFA4
0424
3FA4
24A4
258C
0030
3FC0
0100
1FF0
0100
7FFC
0100
ENDCHAR

STARTCHAR B3B9
ENCODING 46009
SWIDTH 960 0
DWIDTH 16 0
BBX 16 16 0 -4
BITMAP
0000
1000
1200
12FC
2224
4224
9224
13A4
2E24
6224
A2A4
2324
2224
2044
2084
2128
ENDCHAR

STARTCHAR B3BA
ENCODING 46010
SWIDTH 960 0
DWIDTH 16 0
BBX 16 16 0 -4
BITMAP
0000
0210
4110
2FD0
2210
04BE
8FC4
4024
47A8
14A8
27A8
E490
2790
24A8
24A8
24C4
ENDCHAR

STARTCHAR B3BB
ENCODING 46011
SWIDTH 960 0
DWIDTH 16 0
BBX 16 16 0 -4
BITMAP
0000
1100
113E
1122
1124
FFE4
1124
3328
3BA4
5562
5522
9922
1132
112C
1120
1120
ENDCHAR

STARTCHAR B3BC
ENCODING 46012
SWIDTH 960 0
DWIDTH 16 0
BBX 16 16 0 -4
BITMAP
0000
0000
3FFC
2100
2100
2100
3FF8
2008
2008
2008
3FF8
2100
2100
2100
2100
3FFC
ENDCHAR

STARTCHAR B3BD
ENCODING 46013
SWIDTH 960 0
DWIDTH 16 0
BBX 16 16 0 -4
BITMAP
0000
0000
3FF8
2000
2000
3FF0
2000
2000
3FFC
2500
2508
2490
2460
2420
4510
460E
ENDCHAR

STARTCHAR B3BE
ENCODING 46014
SWIDTH 960 0
DWIDTH 16 0
BBX 16 16 0 -4
BITMAP
0000
0100
0100
0540
0920
1110
2108
4104
0000
0100
0100
3FF8
0100
0100
0100
7FFC
ENDCHAR

STARTCHAR B3BF
ENCODING 46015
SWIDTH 960 0
DWIDTH 16 0
BBX 16 16 0 -4
BITMAP
0000
1FF0
1010
1FF0
1010
1FF0
0000
3FF8
2000
2FF0
2000
3FFC
2A10
2960
2880
4A60
ENDCHAR

STARTCHAR B3C0
ENCODING 46016
SWIDTH 960 0
DWIDTH 16 0
BBX 16 16 0 -4
BITMAP
0000
1040
1040
1040
13FC
5A44
5644
5040
9040
1040
10A0
10A0
1120
1122
1222
141E
ENDCHAR

STARTCHAR B3C1
ENCODING 46017
SWIDTH 960 0
DWIDTH 16 0
BBX 16 16 0 -4
BITMAP
0000
0000
4000
27FC
1404
8404
41E0
2120
0920
1120
2120
E120
2120
2222
2222
241E
ENDCHAR

STARTCHAR B3C2
ENCODING 46018
SWIDTH 960 0
DWIDTH 16 0
BBX 16 16 0 -4
BITMAP
0000
0040
7840
4840
57FE
5080
60A0
5120
4A20
4BFC
4820
6928
5124
4222
4422
40A0
ENDCHAR

STARTCHAR B3C3
ENCODING 46019
SWIDTH 960 0
DWIDTH 16 0
BBX 16 16 0 -4
BITMAP
0000
1040
1040
10A0
7D10
1128
1246
FC80
1120
1040
5C90
5120
5040
7080
4900
87FE
ENDCHAR

STARTCHAR B3C4
ENCODING 46020
SWIDTH 960 0
DWIDTH 16 0
BBX 16 16 0 -4
BITMAP
0000
2010
1010
0810
0010
F810
0BFE
1010
3410
5910
9490
1090
1010
1010
1010
1050
ENDCHAR

STARTCHAR B3C5
ENCODING 46021
SWIDTH 960 0
DWIDTH 16 0
BBX 16 16 0 -4
BITMAP
0000
1248
1150
17FC
1404
F9F0
1110
19F0
1008
37F0
D040
13F8
1040
17FC
1040
5140
ENDCHAR

STARTCHAR B3C6
ENCODING 46022
SWIDTH 960 0
DWIDTH 16 0
BBX 16 16 0 -4
BITMAP
0000
0040
0640
7880
09FE
0A04
FE28
0820
1CA0
1AA8
2924
4922
8A22
0820
0820
08A0
ENDCHAR

STARTCHAR B3C7
ENCODING 46023
SWIDTH 960 0
DWIDTH 16 0
BBX 16 16 0 -4
BITMAP
0000
2020
2030
2028
27FE
FC20
2420
27A0
24A4
24A4
24A8
3EB0
E520
0452
088A
1006
ENDCHAR

STARTCHAR B3C8
ENCODING 46024
SWIDTH 960 0
DWIDTH 16 0
BBX 16 16 0 -4
BITMAP
0000
1000
13A8
10B4
12A8
F910
1208
37FC
3802
57F8
5208
9208
13F8
1110
10A0
17FC
ENDCHAR

STARTCHAR B3C9
ENCODING 46025
SWIDTH 960 0
DWIDTH 16 0
BBX 16 16 0 -4
BITMAP
0000
0080
0090
0088
3FFC
2080
2080
2084
3E44
2248
2248
2230
2A20
2462
4092
810A
ENDCHAR

STARTCHAR B3CA
ENCODING 46026
SWIDTH 960 0
DWIDTH 16 0
BBX 16 16 0 -4
BITMAP
0000
0000
1FF0
1010
1010
1010
1FF0
0000
0000
3FF8
0100
0100
1FF0
0100
0100
7FFC
ENDCHAR

STARTCHAR B3CB
ENCODING 46027
SWIDTH 960 0
DWIDTH 16 0
BBX 16 16 0 -4
BITMAP
0000
0000
00F0
1F00
0100
FFFE
0540
3D58
0560
0D44
753C
0380
0540
0920
1110
610E
ENDCHAR

STARTCHAR B3CC
ENCODING 46028
SWIDTH 960 0
DWIDTH 16 0
BBX 16 16 0 -4
BITMAP
0000
0000
0DFC
F104
1104
1104
FD04
11FC
3000
39FC
5420
9020
11FC
1020
1020
13FE
ENDCHAR

STARTCHAR B3CD
ENCODING 46029
SWIDTH 960 0
DWIDTH 16 0
BBX 16 16 0 -4
BITMAP
0000
0800
13FC
2040
4840
1278
3240
5240
9240
17FE
1000
0200
5100
5128
5024
8FE2
ENDCHAR

STARTCHAR B3CE
ENCODING 46030
SWIDTH 960 0
DWIDTH 16 0
BBX 16 16 0 -4
BITMAP
0000
0000
4750
2168
1550
8220
4410
2FF8
1006
17F0
2410
E410
27F0
2220
2140
3FFC
ENDCHAR

STARTCHAR B3CF
ENCODING 46031
SWIDTH 960 0
DWIDTH 16 0
BBX 16 16 0 -4
BITMAP
0000
0020
4030
2028
27FC
0420
0420
E424
27A4
24A8
24A8
2490
2E90
3530
244A
088A
ENDCHAR

STARTCHAR B3D0
ENCODING 46032
SWIDTH 960 0
DWIDTH 16 0
BBX 16 16 0 -4
BITMAP
0000
1FF0
0020
0040
0184
7928
0FF0
0920
1110
17D0
2108
2108
4FE4
8102
0100
0500
ENDCHAR

STARTCHAR B3D1
ENCODING 46033
SWIDTH 960 0
DWIDTH 16 0
BBX 16 16 0 -4
BITMAP
0000
0000
47F0
2410
2410
07F0
0000
EFF8
2080
2080
27F0
2080
2080
2FF8
5000
8FFE
ENDCHAR

STARTCHAR B3D2
ENCODING 46034
SWIDTH 960 0
DWIDTH 16 0
BBX 16 16 0 -4
BITMAP
0000
0020
F820
09FC
4924
49FC
4924
49FC
4800
7FFE
0480
04FC
1C04
E404
0404
2828
ENDCHAR

STARTCHAR B3D3
ENCODING 46035
SWIDTH 960 0
DWIDTH 16 0
BBX 16 16 0 -4
BITMAP
0000
0000
0C00
71FC
1020
1124
10A4
FCA8
1020
3BFE
3420
5020
9020
1020
1020
1020
ENDCHAR

STARTCHAR B3D4
ENCODING 46036
SWIDTH 960 0
DWIDTH 16 0
BBX 16 16 0 -4
BITMAP
0000
0080
0080
7880
48FC
4900
4A00
4DF8
4810
4820
4840
4880
7900
0202
0202
01FE
ENDCHAR

STARTCHAR B3D5
ENCODING 46037
SWIDTH 960 0
DWIDTH 16 0
BBX 16 16 0 -4
BITMAP
0000
0100
0080
1FFC
1200
5200
37BC
1924
3124
5124
9FE4
1124
1124
1324
24BC
4840
ENDCHAR

STARTCHAR B3D6
ENCODING 46038
SWIDTH 960 0
DWIDTH 16 0
BBX 16 16 0 -4
BITMAP
0000
1040
1040
1040
13F8
FC40
1040
13FC
1810
3010
D7FE
1010
1110
1090
1010
5050
ENDCHAR

STARTCHAR B3D7
ENCODING 46039
SWIDTH 960 0
DWIDTH 16 0
BBX 16 16 0 -4
BITMAP
0000
0000
3E40
2240
2240
3E48
2250
3E60
0040
FF40
0844
2844
2E3C
2800
5800
8FFE
ENDCHAR

STARTCHAR B3D8
ENCODING 46040
SWIDTH 960 0
DWIDTH 16 0
BBX 16 16 0 -4
BITMAP
0000
0040
2040
1040
0A48
8278
43C8
2E48
0248
1268
2250
E240
2240
2202
2202
21FE
ENDCHAR

STARTCHAR B3D9
ENCODING 46041
SWIDTH 960 0
DWIDTH 16 0
BBX 16 16 0 -4
BITMAP
0000
0000
43F8
2208
2208
0208
03F8
E200
2280
2280
2240
2220
2410
280C
5000
8FFE
ENDCHAR

STARTCHAR B3DA
ENCODING 46042
SWIDTH 960 0
DWIDTH 16 0
BBX 16 16 0 -4
BITMAP
0000
0020
7820
0920
0920
0924
793C
41E4
4724
4124
7924
0934
0928
0922
0902
50FE
ENDCHAR

STARTCHAR B3DB
ENCODING 46043
SWIDTH 960 0
DWIDTH 16 0
BBX 16 16 0 -4
BITMAP
0000
0020
F820
0920
4920
4924
493C
49E4
4B24
7D24
0524
0534
3D28
C522
0502
28FE
ENDCHAR

STARTCHAR B3DC
ENCODING 46044
SWIDTH 960 0
DWIDTH 16 0
BBX 16 16 0 -4
BITMAP
0000
0010
FF10
2410
2490
3C90
249E
2490
3C90
2490
2490
3E90
E490
0490
07FE
0400
ENDCHAR

STARTCHAR B3DD
ENCODING 46045
SWIDTH 960 0
DWIDTH 16 0
BBX 16 16 0 -4
BITMAP
0000
0100
1100
11F0
1100
1100
1100
FFFE
0000
2108
2108
2288
2448
2828
2008
3FF8
ENDCHAR

STARTCHAR B3DE
ENCODING 46046
SWIDTH 960 0
DWIDTH 16 0
BBX 16 16 0 -4
BITMAP
0000
0880
08FC
0908
0B10
10A0
3040
5090
9110
1620
107E
1084
1348
1030
1020
10C0
ENDCHAR

STARTCHAR B3DF
ENCODING 46047
SWIDTH 960 0
DWIDTH 16 0
BBX 16 16 0 -4
BITMAP
0000
0000
1FF0
1010
1010
1010
1010
1FF0
1400
1400
1200
1100
1080
2040
2020
401E
ENDCHAR

STARTCHAR B3E0
ENCODING 46048
SWIDTH 960 0
DWIDTH 16 0
BBX 16 16 0 -4
BITMAP
0000
0100
0100
0100
1FF0
0100
0100
7FFC
0440
0440
1450
1448
2444
4842
0840
1140
ENDCHAR

STARTCHAR B3E1
ENCODING 46049
SWIDTH 960 0
DWIDTH 16 0
BBX 16 16 0 -4
BITMAP
0000
2000
2000
27BC
F884
24A4
2294
7084
5084
5294
54A4
5084
5294
2108
5000
4FFE
ENDCHAR

STARTCHAR B3E2
ENCODING 46050
SWIDTH 960 0
DWIDTH 16 0
BBX 16 16 0 -4
BITMAP
0000
0000
0078
3F80
2000
2000
2000
3FFC
2080
2080
2380
20E0
2090
2088
2080
4080
ENDCHAR

STARTCHAR B3E3
ENCODING 46051
SWIDTH 960 0
DWIDTH 16 0
BBX 16 16 0 -4
BITMAP
0000
1000
1000
11F8
1508
5908
5108
5108
9108
11F8
1000
1000
2890
2508
4204
8404
ENDCHAR

STARTCHAR B3E4
ENCODING 46052
SWIDTH 960 0
DWIDTH 16 0
BBX 16 16 0 -4
BITMAP
0000
0200
0100
0080
7FFE
0200
0420
0810
1FF8
0440
0440
0440
0440
0842
1042
203E
ENDCHAR

STARTCHAR B3E5
ENCODING 46053
SWIDTH 960 0
DWIDTH 16 0
BBX 16 16 0 -4
BITMAP
0000
0040
4040
2040
2040
07FC
1444
1444
1444
2444
27FC
E040
2040
2040
2040
2040
ENDCHAR

STARTCHAR B3E6
ENCODING 46054
SWIDTH 960 0
DWIDTH 16 0
BBX 16 16 0 -4
BITMAP
0000
0100
0100
0100
0100
3FF8
2108
2108
2108
2108
3FF8
0100
0110
0108
01FC
7E04
ENDCHAR

STARTCHAR B3E7
ENCODING 46055
SWIDTH 960 0
DWIDTH 16 0
BBX 16 16 0 -4
BITMAP
0000
0100
2108
2108
3FF8
0200
0100
7FFC
4004
1FF0
0000
7FFC
0100
0920
1110
2508
ENDCHAR

STARTCHAR B3E8
ENCODING 46056
SWIDTH 960 0
DWIDTH 16 0
BBX 16 16 0 -4
BITMAP
0000
0200
0100
7FFC
4204
4244
0220
7FFC
0280
0290
04A0
04C0
0880
0982
1282
207E
ENDCHAR

STARTCHAR B3E9
ENCODING 46057
SWIDTH 960 0
DWIDTH 16 0
BBX 16 16 0 -4
BITMAP
0000
1020
1020
1020
1020
FDFC
1124
1124
1524
3924
D1FC
1124
1124
1124
1124
51FC
ENDCHAR

STARTCHAR B3EA
ENCODING 46058
SWIDTH 960 0
DWIDTH 16 0
BBX 16 16 0 -4
BITMAP
0000
0044
FE44
2854
2854
FE54
AA54
AAFC
AA54
C654
8254
BA54
8254
8294
FE94
0104
ENDCHAR

STARTCHAR B3EB
ENCODING 46059
SWIDTH 960 0
DWIDTH 16 0
BBX 16 16 0 -4
BITMAP
0000
0040
0040
7DFC
5440
55F8
5440
57FE
7C40
5448
55FE
5488
5548
7E28
0008
0028
ENDCHAR

STARTCHAR B3EC
ENCODING 46060
SWIDTH 960 0
DWIDTH 16 0
BBX 16 16 0 -4
BITMAP
0000
0040
7840
4BFC
4840
4BF8
4840
7FFE
1080
5088
5DFE
5108
5288
5A48
E408
0828
ENDCHAR

STARTCHAR B3ED
ENCODING 46061
SWIDTH 960 0
DWIDTH 16 0
BBX 16 16 0 -4
BITMAP
0000
0C00
73FE
1222
1222
12FA
FE22
1222
32FA
3A02
56FA
928A
128A
128A
14FA
1802
ENDCHAR

STARTCHAR B3EE
ENCODING 46062
SWIDTH 960 0
DWIDTH 16 0
BBX 16 16 0 -4
BITMAP
0000
0020
0620
7820
08A4
7EA8
08B0
1D50
2A50
4888
0906
0200
2900
2894
4812
87F2
ENDCHAR

STARTCHAR B3EF
ENCODING 46063
SWIDTH 960 0
DWIDTH 16 0
BBX 16 16 0 -4
BITMAP
0000
1040
1F7C
28A0
4510
0100
7FFC
0200
3FF8
0400
FFFE
0810
0FFE
1210
2110
4050
ENDCHAR

STARTCHAR B3F0
ENCODING 46064
SWIDTH 960 0
DWIDTH 16 0
BBX 16 16 0 -4
BITMAP
0000
0900
0900
0900
1100
17F0
2110
6110
A110
2110
2110
2110
2110
2112
2212
240E
ENDCHAR

STARTCHAR B3F1
ENCODING 46065
SWIDTH 960 0
DWIDTH 16 0
BBX 16 16 0 -4
BITMAP
0000
2000
27FC
2444
4444
4DF4
F444
1444
25F4
FC04
05F4
0514
3D14
C914
09F4
1014
ENDCHAR

STARTCHAR B3F2
ENCODING 46066
SWIDTH 960 0
DWIDTH 16 0
BBX 16 16 0 -4
BITMAP
0000
0010
00D0
7F10
4912
4954
7FB8
4910
4B10
4B90
7B50
4D28
4928
4928
7944
0182
ENDCHAR

STARTCHAR B3F3
ENCODING 46067
SWIDTH 960 0
DWIDTH 16 0
BBX 16 16 0 -4
BITMAP
0000
0000
3FF0
0210
0210
0210
0210
0210
1FF0
0410
0410
0410
0410
0410
0410
FFFE
ENDCHAR

STARTCHAR B3F4
ENCODING 46068
SWIDTH 960 0
DWIDTH 16 0
BBX 16 16 0 -4
BITMAP
0000
0200
0400
1FF0
1010
1FF0
1010
1FF0
1010
1FF0
0120
0110
FFFE
0280
0440
1820
ENDCHAR

STARTCHAR B3F5
ENCODING 46069
SWIDTH 960 0
DWIDTH 16 0
BBX 16 16 0 -4
BITMAP
0000
2000
1000
0800
01FC
FC44
0844
1044
3444
5844
9444
1044
1084
1004
1184
1228
ENDCHAR

STARTCHAR B3F6
ENCODING 46070
SWIDTH 960 0
DWIDTH 16 0
BBX 16 16 0 -4
BITMAP
0000
0100
0100
2108
2108
2108
2108
3FF8
0100
0100
2108
2108
2108
2108
2108
3FF8
ENDCHAR

STARTCHAR B3F7
ENCODING 46071
SWIDTH 960 0
DWIDTH 16 0
BBX 16 16 0 -4
BITMAP
0000
2000
27FC
2400
2404
FFE4
2404
65DE
7544
AD44
25D4
2404
2544
2544
2BE4
3014
ENDCHAR

STARTCHAR B3F8
ENCODING 46072
SWIDTH 960 0
DWIDTH 16 0
BBX 16 16 0 -4
BITMAP
0000
0000
3FFC
2000
3F88
2008
2F08
29FE
2908
2908
2F48
2028
2908
2A08
2388
5C28
ENDCHAR

STARTCHAR B3F9
ENCODING 46073
SWIDTH 960 0
DWIDTH 16 0
BBX 16 16 0 -4
BITMAP
0000
0110
7FFC
4910
4848
4BF8
7850
1060
17FE
1080
5900
53F8
5508
5DF8
F108
01F8
ENDCHAR

STARTCHAR B3FA
ENCODING 46074
SWIDTH 960 0
DWIDTH 16 0
BBX 16 16 0 -4
BITMAP
0000
0000
2010
2010
387C
4794
BC94
2494
2794
FC94
2494
2794
2C94
3494
67A4
88C4
ENDCHAR

STARTCHAR B3FB
ENCODING 46075
SWIDTH 960 0
DWIDTH 16 0
BBX 16 16 0 -4
BITMAP
0000
1040
1050
2090
3CFE
4590
8A90
10FC
FC90
0490
04FC
7C90
0490
0490
FCFE
0480
ENDCHAR

STARTCHAR B3FC
ENCODING 46076
SWIDTH 960 0
DWIDTH 16 0
BBX 16 16 0 -4
BITMAP
0000
4020
3E20
1250
1450
1488
9504
5AFA
3420
1220
33FC
3A20
D4A8
5124
5222
50A0
ENDCHAR

STARTCHAR B3FD
ENCODING 46077
SWIDTH 960 0
DWIDTH 16 0
BBX 16 16 0 -4
BITMAP
0000
0040
7840
48A0
48A0
4910
4A08
55F6
4840
4840
4BFC
4840
6950
5248
4444
4140
ENDCHAR

STARTCHAR B3FE
ENCODING 46078
SWIDTH 960 0
DWIDTH 16 0
BBX 16 16 0 -4
BITMAP
0000
0820
0820
7EFC
0820
1C70
2AAE
4820
3FF8
0110
0900
09E0
1100
1100
2900
C7FE
ENDCHAR

STARTCHAR B4A1
ENCODING 46241
SWIDTH 960 0
DWIDTH 16 0
BBX 16 16 0 -4
BITMAP
0000
0020
0020
7E20
1124
1124
2124
3D24
65FC
A420
2524
2524
2524
2524
3D24
21FC
ENDCHAR

STARTCHAR B4A2
ENCODING 46242
SWIDTH 960 0
DWIDTH 16 0
BBX 16 16 0 -4
BITMAP
0000
1040
1040
1844
15FC
2050
2060
7DFE
A480
25F8
2688
2488
25F8
2688
2488
20F8
ENDCHAR

STARTCHAR B4A3
ENCODING 46243
SWIDTH 960 0
DWIDTH 16 0
BBX 16 16 0 -4
BITMAP
0000
0100
3FF8
0100
0FE0
0820
0920
0920
7FFC
0820
7EFC
0820
3EF8
2288
2AA8
2AA8
ENDCHAR

STARTCHAR B4A4
ENCODING 46244
SWIDTH 960 0
DWIDTH 16 0
BBX 16 16 0 -4
BITMAP
0000
1100
1080
17FC
1080
F910
17E0
1080
1910
33F8
D000
13F8
1248
13F8
1248
53F8
ENDCHAR

STARTCHAR B4A5
ENCODING 46245
SWIDTH 960 0
DWIDTH 16 0
BBX 16 16 0 -4
BITMAP
0000
2020
2020
3C20
49FC
5124
FD24
5524
5524
7D24
55FC
5420
7C20
5428
5424
57FE
ENDCHAR

STARTCHAR B4A6
ENCODING 46246
SWIDTH 960 0
DWIDTH 16 0
BBX 16 16 0 -4
BITMAP
0000
0040
1040
1040
1040
1E60
2250
2248
E244
1440
1440
0840
1440
2240
4100
80FE
ENDCHAR

STARTCHAR B4A7
ENCODING 46247
SWIDTH 960 0
DWIDTH 16 0
BBX 16 16 0 -4
BITMAP
0000
1040
1040
1248
1248
FBF8
1000
17FE
1840
3080
D7FC
14A4
14A4
14A4
14A4
540C
ENDCHAR

STARTCHAR B4A8
ENCODING 46248
SWIDTH 960 0
DWIDTH 16 0
BBX 16 16 0 -4
BITMAP
0000
0004
1004
1084
1084
1084
1084
1084
1084
1084
1084
1084
1084
1084
2004
4004
ENDCHAR

STARTCHAR B4A9
ENCODING 46249
SWIDTH 960 0
DWIDTH 16 0
BBX 16 16 0 -4
BITMAP
0000
0200
0100
7FFC
4444
4824
0000
3FF8
1040
1040
3FFC
00C0
0340
0440
1840
6140
ENDCHAR

STARTCHAR B4AA
ENCODING 46250
SWIDTH 960 0
DWIDTH 16 0
BBX 16 16 0 -4
BITMAP
0000
1080
10F8
1088
11F8
FC10
13FE
3080
3944
5668
50B0
9130
1668
10A4
1122
16A0
ENDCHAR

STARTCHAR B4AB
ENCODING 46251
SWIDTH 960 0
DWIDTH 16 0
BBX 16 16 0 -4
BITMAP
0000
0840
0840
0840
0BFC
1040
1040
37FE
5080
9080
11FC
1008
1110
10A0
1040
1020
ENDCHAR

STARTCHAR B4AC
ENCODING 46252
SWIDTH 960 0
DWIDTH 16 0
BBX 16 16 0 -4
BITMAP
0000
0800
1078
3E48
2248
3248
2A48
228E
2300
FE00
22FC
3284
2A84
2284
4284
8AFC
ENDCHAR

STARTCHAR B4AD
ENCODING 46253
SWIDTH 960 0
DWIDTH 16 0
BBX 16 16 0 -4
BITMAP
0000
0040
0040
7A48
4A48
4BF8
4800
4FFE
4840
4880
4BFC
4AA4
4AA4
7AA4
02A4
02B4
ENDCHAR

STARTCHAR B4AE
ENCODING 46254
SWIDTH 960 0
DWIDTH 16 0
BBX 16 16 0 -4
BITMAP
0000
0100
0100
3FF8
2108
2108
3FF8
0100
0100
7FFC
4104
4104
7FFC
0100
0100
0100
ENDCHAR

STARTCHAR B4AF
ENCODING 46255
SWIDTH 960 0
DWIDTH 16 0
BBX 16 16 0 -4
BITMAP
0000
0100
0080
1FFC
1080
9140
5220
1410
1BE8
3226
5220
92A0
1240
1208
2208
41F8
ENDCHAR

STARTCHAR B4B0
ENCODING 46256
SWIDTH 960 0
DWIDTH 16 0
BBX 16 16 0 -4
BITMAP
0000
0200
0100
7FFC
4824
5214
0400
3FF8
2208
23C8
2448
2A48
2188
2148
2208
3FF8
ENDCHAR

STARTCHAR B4B1
ENCODING 46257
SWIDTH 960 0
DWIDTH 16 0
BBX 16 16 0 -4
BITMAP
0000
2080
2040
27FC
F910
A8A0
AFFE
A800
ABF8
AA48
ABF8
AA48
BBF8
2040
23F8
2040
ENDCHAR

STARTCHAR B4B2
ENCODING 46258
SWIDTH 960 0
DWIDTH 16 0
BBX 16 16 0 -4
BITMAP
0000
0100
0080
3FFC
2080
2080
2080
3FFC
2080
21C0
22A0
2290
2488
2886
5080
8080
ENDCHAR

STARTCHAR B4B3
ENCODING 46259
SWIDTH 960 0
DWIDTH 16 0
BBX 16 16 0 -4
BITMAP
0000
2000
17FC
4804
4004
4FC4
4044
4444
4444
4444
47F4
4014
5FD4
4014
4054
4024
ENDCHAR

STARTCHAR B4B4
ENCODING 46260
SWIDTH 960 0
DWIDTH 16 0
BBX 16 16 0 -4
BITMAP
0000
0804
0804
1404
1224
2124
20A4
7E24
A224
2224
2A24
2424
2004
2104
2104
1F14
ENDCHAR

STARTCHAR B4B5
ENCODING 46261
SWIDTH 960 0
DWIDTH 16 0
BBX 16 16 0 -4
BITMAP
0000
0080
0080
7880
48FC
4904
4A48
4840
4840
4840
4840
48A0
78A0
0110
0208
0406
ENDCHAR

STARTCHAR B4B6
ENCODING 46262
SWIDTH 960 0
DWIDTH 16 0
BBX 16 16 0 -4
BITMAP
0000
1080
1080
1080
54FC
5904
5248
9040
1040
1040
1040
10A0
10A0
1110
2A08
4406
ENDCHAR

STARTCHAR B4B7
ENCODING 46263
SWIDTH 960 0
DWIDTH 16 0
BBX 16 16 0 -4
BITMAP
0000
1000
103C
13C0
1040
FC40
13FC
1150
1950
37FE
D150
1150
17FC
1040
1040
53F8
ENDCHAR

STARTCHAR B4B8
ENCODING 46264
SWIDTH 960 0
DWIDTH 16 0
BBX 16 16 0 -4
BITMAP
0000
1000
103C
13C0
3C40
2040
43FC
B950
1150
17FE
7950
1150
17FC
1440
1840
13F8
ENDCHAR

STARTCHAR B4B9
ENCODING 46265
SWIDTH 960 0
DWIDTH 16 0
BBX 16 16 0 -4
BITMAP
0000
0000
0038
3FC0
0100
0100
7FF8
0920
0920
FFFE
0920
0920
7FFC
0100
0100
3FF8
ENDCHAR

STARTCHAR B4BA
ENCODING 46266
SWIDTH 960 0
DWIDTH 16 0
BBX 16 16 0 -4
BITMAP
0000
0100
0100
7FFC
0100
3FF8
0200
7FFC
0440
0820
1FF0
2828
C826
0FE0
0820
0820
ENDCHAR

STARTCHAR B4BB
ENCODING 46267
SWIDTH 960 0
DWIDTH 16 0
BBX 16 16 0 -4
BITMAP
0000
1040
1040
13FC
1040
FDF8
1040
37FE
38A0
5110
53F8
9D16
1110
11F0
1110
1110
ENDCHAR

STARTCHAR B4BC
ENCODING 46268
SWIDTH 960 0
DWIDTH 16 0
BBX 16 16 0 -4
BITMAP
0000
0040
7C20
29FE
2800
7DFC
5504
55FC
5400
6CFC
4408
4430
7FFE
4420
4420
7CA0
ENDCHAR

STARTCHAR B4BD
ENCODING 46269
SWIDTH 960 0
DWIDTH 16 0
BBX 16 16 0 -4
BITMAP
0000
0000
3FF8
2000
3FF0
2000
3FFC
2A10
29A0
2860
2E18
4006
9FF0
1010
1010
1010
ENDCHAR

STARTCHAR B4BE
ENCODING 46270
SWIDTH 960 0
DWIDTH 16 0
BBX 16 16 0 -4
BITMAP
0000
0040
47FC
2000
13F8
8208
4208
23F8
0800
13F8
2020
E040
2FFE
2040
2040
2140
ENDCHAR

STARTCHAR B4BF
ENCODING 46271
SWIDTH 960 0
DWIDTH 16 0
BBX 16 16 0 -4
BITMAP
0000
1040
1040
2040
27FC
4840
FA48
1248
2248
4248
FBF8
0040
0042
1842
E042
003E
ENDCHAR

STARTCHAR B4C0
ENCODING 46272
SWIDTH 960 0
DWIDTH 16 0
BBX 16 16 0 -4
BITMAP
0000
0100
7FFC
0100
3FF8
0200
7FFC
0820
1FF0
E82E
0FE0
1020
7CF8
54A8
7CF8
1224
ENDCHAR

STARTCHAR B4C1
ENCODING 46273
SWIDTH 960 0
DWIDTH 16 0
BBX 16 16 0 -4
BITMAP
0000
7740
1150
7748
1140
33FC
5540
1140
2840
4440
9F44
4448
5F50
4420
5F50
4488
ENDCHAR

STARTCHAR B4C2
ENCODING 46274
SWIDTH 960 0
DWIDTH 16 0
BBX 16 16 0 -4
BITMAP
0000
1040
107C
2040
2040
4BF8
F208
13F8
2208
43F8
F840
0040
07FE
1840
E040
0040
ENDCHAR

STARTCHAR B4C3
ENCODING 46275
SWIDTH 960 0
DWIDTH 16 0
BBX 16 16 0 -4
BITMAP
0000
0100
0080
1FFE
1120
5120
3120
1524
1528
35F0
5520
9520
1522
2522
25E2
4E1E
ENDCHAR

STARTCHAR B4C4
ENCODING 46276
SWIDTH 960 0
DWIDTH 16 0
BBX 16 16 0 -4
BITMAP
0000
0820
0820
FFFE
0820
0100
4100
23F8
1208
0480
1080
E080
2140
2220
2410
280E
ENDCHAR

STARTCHAR B4C5
ENCODING 46277
SWIDTH 960 0
DWIDTH 16 0
BBX 16 16 0 -4
BITMAP
0000
0000
0088
7C50
13FE
1084
2084
3D08
654A
A7DC
2484
2508
2508
3D4A
03DE
0042
ENDCHAR

STARTCHAR B4C6
ENCODING 46278
SWIDTH 960 0
DWIDTH 16 0
BBX 16 16 0 -4
BITMAP
0000
1450
1448
1480
54FE
5590
5E90
54FC
5490
5490
54FC
5490
5D90
E690
00FE
0080
ENDCHAR

STARTCHAR B4C7
ENCODING 46279
SWIDTH 960 0
DWIDTH 16 0
BBX 16 16 0 -4
BITMAP
0000
0040
0E20
7020
11FC
1000
1088
FF50
1000
11FE
7C20
4420
45FC
4420
4420
7C20
ENDCHAR

STARTCHAR B4C8
ENCODING 46280
SWIDTH 960 0
DWIDTH 16 0
BBX 16 16 0 -4
BITMAP
0000
1040
0880
FFFE
1020
1020
2248
7CF8
0810
1224
7EFC
0000
1200
5114
5014
8FF2
ENDCHAR

STARTCHAR B4C9
ENCODING 46281
SWIDTH 960 0
DWIDTH 16 0
BBX 16 16 0 -4
BITMAP
0000
2100
1100
01FC
4A48
3040
20A0
271C
0000
FFFE
1000
1FE0
1020
1320
10A4
1624
ENDCHAR

STARTCHAR B4CA
ENCODING 46282
SWIDTH 960 0
DWIDTH 16 0
BBX 16 16 0 -4
BITMAP
0000
2000
13FE
0802
0002
07F2
F002
1002
13E2
1222
1222
1222
13E2
1002
1C02
100A
ENDCHAR

STARTCHAR B4CB
ENCODING 46283
SWIDTH 960 0
DWIDTH 16 0
BBX 16 16 0 -4
BITMAP
0000
0440
0440
0440
2444
2448
2450
2760
2440
2440
2440
2440
2440
27C2
F842
003E
ENDCHAR

STARTCHAR B4CC
ENCODING 46284
SWIDTH 960 0
DWIDTH 16 0
BBX 16 16 0 -4
BITMAP
0000
0404
0404
0414
7FD4
0414
3F94
2494
2494
2594
0C14
1614
1514
2484
4404
0414
ENDCHAR

STARTCHAR B4CD
ENCODING 46285
SWIDTH 960 0
DWIDTH 16 0
BBX 16 16 0 -4
BITMAP
0000
0000
7DF8
4508
55F8
5508
5508
55F8
5480
55FC
5654
5494
1124
2A44
4488
8128
ENDCHAR

STARTCHAR B4CE
ENCODING 46286
SWIDTH 960 0
DWIDTH 16 0
BBX 16 16 0 -4
BITMAP
0000
0080
4080
2080
1100
01FC
0208
0C40
1040
2040
E040
20A0
20A0
2110
2210
2408
ENDCHAR

STARTCHAR B4CF
ENCODING 46287
SWIDTH 960 0
DWIDTH 16 0
BBX 16 16 0 -4
BITMAP
0000
0108
FE90
24A0
2400
3DF8
2508
2508
2508
3DF8
2440
2420
24A8
FD8C
068A
0478
ENDCHAR

STARTCHAR B4D0
ENCODING 46288
SWIDTH 960 0
DWIDTH 16 0
BBX 16 16 0 -4
BITMAP
0000
0820
0820
FFFE
0820
0FF8
1248
2E48
4588
08C8
1350
0020
1200
5114
5014
8FF2
ENDCHAR

STARTCHAR B4D1
ENCODING 46289
SWIDTH 960 0
DWIDTH 16 0
BBX 16 16 0 -4
BITMAP
0000
0400
0800
7FF8
4408
4408
47C8
4448
4848
5448
4288
4108
4288
4408
4808
7FF8
ENDCHAR

STARTCHAR B4D2
ENCODING 46290
SWIDTH 960 0
DWIDTH 16 0
BBX 16 16 0 -4
BITMAP
0000
0800
0800
0800
1FFC
1244
2244
4A44
8644
0984
08C4
1124
2104
4204
0404
0828
ENDCHAR

STARTCHAR B4D3
ENCODING 46291
SWIDTH 960 0
DWIDTH 16 0
BBX 16 16 0 -4
BITMAP
0000
0000
0820
0820
0820
0820
0820
0820
0850
0850
0C50
1250
1188
2088
2108
4204
ENDCHAR

STARTCHAR B4D4
ENCODING 46292
SWIDTH 960 0
DWIDTH 16 0
BBX 16 16 0 -4
BITMAP
0000
0000
0820
0820
0820
0820
0820
0850
0C50
1250
1190
2088
4108
8206
0000
FFFE
ENDCHAR

STARTCHAR B4D5
ENCODING 46293
SWIDTH 960 0
DWIDTH 16 0
BBX 16 16 0 -4
BITMAP
0000
0080
0080
4FFC
2080
2FF8
0100
0FFC
1220
2410
FBEE
2080
2FF8
2080
2140
2220
ENDCHAR

STARTCHAR B4D6
ENCODING 46294
SWIDTH 960 0
DWIDTH 16 0
BBX 16 16 0 -4
BITMAP
0000
0800
0800
4AF8
2A88
1C88
0888
7EF8
0888
1C88
2A88
48F8
8888
0888
0888
0BFE
ENDCHAR

STARTCHAR B4D7
ENCODING 46295
SWIDTH 960 0
DWIDTH 16 0
BBX 16 16 0 -4
BITMAP
0000
0028
7F28
14FE
1428
7F28
5528
55FE
5500
557C
6344
4144
5D7C
4144
4144
7F7C
ENDCHAR

STARTCHAR B4D8
ENCODING 46296
SWIDTH 960 0
DWIDTH 16 0
BBX 16 16 0 -4
BITMAP
0000
1040
1F7C
28A0
4510
1080
08FC
FF40
1040
1CF8
1420
25FE
2420
4450
9488
0B06
ENDCHAR

STARTCHAR B4D9
ENCODING 46297
SWIDTH 960 0
DWIDTH 16 0
BBX 16 16 0 -4
BITMAP
0000
0800
0BFC
0A04
1204
1204
13FC
3040
5040
9240
1278
1240
1240
1540
18C0
107E
ENDCHAR

STARTCHAR B4DA
ENCODING 46298
SWIDTH 960 0
DWIDTH 16 0
BBX 16 16 0 -4
BITMAP
0000
0080
7840
4BFE
4A52
4888
7820
11FC
1124
59FC
5020
53FE
5222
5FFE
E020
0020
ENDCHAR

STARTCHAR B4DB
ENCODING 46299
SWIDTH 960 0
DWIDTH 16 0
BBX 16 16 0 -4
BITMAP
0000
1040
1F7C
2888
5FF8
1008
1FF8
1008
1FF8
1008
1FF8
0400
FFFE
0920
3250
C42E
ENDCHAR

STARTCHAR B4DC
ENCODING 46300
SWIDTH 960 0
DWIDTH 16 0
BBX 16 16 0 -4
BITMAP
0000
0200
0100
7FFC
4824
1110
0100
3FF8
2108
3FF8
0100
7FFC
4104
7FFC
0100
0100
ENDCHAR

STARTCHAR B4DD
ENCODING 46301
SWIDTH 960 0
DWIDTH 16 0
BBX 16 16 0 -4
BITMAP
0000
1020
1124
1124
1124
FDFC
10A0
1510
19FE
3320
D5FC
1120
11FC
1120
1120
51FE
ENDCHAR

STARTCHAR B4DE
ENCODING 46302
SWIDTH 960 0
DWIDTH 16 0
BBX 16 16 0 -4
BITMAP
0000
0100
2108
2108
3FF8
0800
1100
1080
3FFC
6080
BFF8
2080
3FF8
2080
2080
3FFE
ENDCHAR

STARTCHAR B4DF
ENCODING 46303
SWIDTH 960 0
DWIDTH 16 0
BBX 16 16 0 -4
BITMAP
0000
0820
0924
1124
1124
31FC
50A0
9110
11FE
1320
15FC
1120
11FC
1120
1120
11FE
ENDCHAR

STARTCHAR B4E0
ENCODING 46304
SWIDTH 960 0
DWIDTH 16 0
BBX 16 16 0 -4
BITMAP
0000
0080
7880
48F8
4910
4A20
79FE
4900
4978
4948
7948
4968
4950
4942
4942
5A3E
ENDCHAR

STARTCHAR B4E1
ENCODING 46305
SWIDTH 960 0
DWIDTH 16 0
BBX 16 16 0 -4
BITMAP
0000
0100
0080
1FFC
1100
1080
57F8
3220
1220
3550
5888
9080
1FFC
1080
2080
4080
ENDCHAR

STARTCHAR B4E2
ENCODING 46306
SWIDTH 960 0
DWIDTH 16 0
BBX 16 16 0 -4
BITMAP
0000
1040
1020
1020
55FC
3888
1088
FE88
1154
3820
5420
53FE
9020
1020
1020
1020
ENDCHAR

STARTCHAR B4E3
ENCODING 46307
SWIDTH 960 0
DWIDTH 16 0
BBX 16 16 0 -4
BITMAP
0000
4080
2040
17FC
0210
8210
4210
2528
08C4
1040
2FFE
E040
2040
2040
2040
2040
ENDCHAR

STARTCHAR B4E4
ENCODING 46308
SWIDTH 960 0
DWIDTH 16 0
BBX 16 16 0 -4
BITMAP
0000
3EF8
0208
1248
0A28
1248
0100
7FFC
0820
1450
2288
0100
FFFE
0100
0100
0100
ENDCHAR

STARTCHAR B4E5
ENCODING 46309
SWIDTH 960 0
DWIDTH 16 0
BBX 16 16 0 -4
BITMAP
0000
1010
1010
1010
1010
FDFE
1010
3010
3910
5490
5090
9010
1010
1010
1010
1050
ENDCHAR

STARTCHAR B4E6
ENCODING 46310
SWIDTH 960 0
DWIDTH 16 0
BBX 16 16 0 -4
BITMAP
0000
0200
0200
7FFC
0400
0800
0BF8
1010
1020
3040
5FFE
9040
1040
1040
1040
1140
ENDCHAR

STARTCHAR B4E7
ENCODING 46311
SWIDTH 960 0
DWIDTH 16 0
BBX 16 16 0 -4
BITMAP
0000
0040
0040
0040
0040
7FFE
0040
0040
0840
0440
0440
0040
0040
0040
0040
0140
ENDCHAR

STARTCHAR B4E8
ENCODING 46312
SWIDTH 960 0
DWIDTH 16 0
BBX 16 16 0 -4
BITMAP
0000
0084
0048
7E50
11FE
1020
21FC
3C20
67FE
A440
2480
24FC
2510
3D10
0210
04FE
ENDCHAR

STARTCHAR B4E9
ENCODING 46313
SWIDTH 960 0
DWIDTH 16 0
BBX 16 16 0 -4
BITMAP
0000
2000
23F8
2208
23F8
FA08
23F8
2000
2FFE
3480
E7BC
2484
27A8
2490
2F98
A0A4
ENDCHAR

STARTCHAR B4EA
ENCODING 46314
SWIDTH 960 0
DWIDTH 16 0
BBX 16 16 0 -4
BITMAP
0000
1108
1090
10A0
13FC
FC40
11F8
1040
1FFE
3080
D100
11FC
1220
1420
1020
53FE
ENDCHAR

STARTCHAR B4EB
ENCODING 46315
SWIDTH 960 0
DWIDTH 16 0
BBX 16 16 0 -4
BITMAP
0000
1110
1110
1110
13FC
FD10
1110
17FE
1800
33F8
D208
1208
13F8
1208
1208
53F8
ENDCHAR

STARTCHAR B4EC
ENCODING 46316
SWIDTH 960 0
DWIDTH 16 0
BBX 16 16 0 -4
BITMAP
0000
1040
1040
1248
1248
FA48
1248
1554
18E2
3040
D040
17FC
1040
1040
1040
5FFE
ENDCHAR

STARTCHAR B4ED
ENCODING 46317
SWIDTH 960 0
DWIDTH 16 0
BBX 16 16 0 -4
BITMAP
0000
1090
1090
1090
1DF8
2090
4090
BFFE
1000
11F8
FD08
1108
11F8
1508
1908
11F8
ENDCHAR

STARTCHAR B4EE
ENCODING 46318
SWIDTH 960 0
DWIDTH 16 0
BBX 16 16 0 -4
BITMAP
0000
1110
1110
17FC
1110
FC40
10A0
1110
1A08
35F6
D000
13F8
1208
1208
1208
53F8
ENDCHAR

STARTCHAR B4EF
ENCODING 46319
SWIDTH 960 0
DWIDTH 16 0
BBX 16 16 0 -4
BITMAP
0000
0080
4080
2080
2080
0080
0FFC
E080
2100
2140
2220
2210
2408
2804
5000
8FFE
ENDCHAR

STARTCHAR B4F0
ENCODING 46320
SWIDTH 960 0
DWIDTH 16 0
BBX 16 16 0 -4
BITMAP
0000
1040
1040
1F7C
28A0
4510
0280
0440
0820
1FF0
2008
C006
0FE0
0820
0820
0820
ENDCHAR

STARTCHAR B4F1
ENCODING 46321
SWIDTH 960 0
DWIDTH 16 0
BBX 16 16 0 -4
BITMAP
0000
0100
0080
1FFC
1220
5220
3FFC
12A0
3140
5220
97F0
180E
17F0
1410
2410
4410
ENDCHAR

STARTCHAR B4F2
ENCODING 46322
SWIDTH 960 0
DWIDTH 16 0
BBX 16 16 0 -4
BITMAP
0000
1000
1000
1000
11FE
FC20
1020
1020
1420
1820
3020
D020
1020
1020
1020
50A0
ENDCHAR

STARTCHAR B4F3
ENCODING 46323
SWIDTH 960 0
DWIDTH 16 0
BBX 16 16 0 -4
BITMAP
0000
0100
0100
0100
0100
0100
7FFC
0100
0280
0280
0240
0440
0440
0820
1010
600E
ENDCHAR

STARTCHAR B4F4
ENCODING 46324
SWIDTH 960 0
DWIDTH 16 0
BBX 16 16 0 -4
BITMAP
0000
0000
1FF0
1010
1010
1010
1FF0
0100
0100
FFFE
0100
0380
0540
0920
1110
610E
ENDCHAR

STARTCHAR B4F5
ENCODING 46325
SWIDTH 960 0
DWIDTH 16 0
BBX 16 16 0 -4
BITMAP
0000
0000
7FFC
0200
0200
0200
07F0
0410
0810
0A10
1110
20A0
4040
0080
0300
0C00
ENDCHAR

STARTCHAR B4F6
ENCODING 46326
SWIDTH 960 0
DWIDTH 16 0
BBX 16 16 0 -4
BITMAP
0000
1080
1080
1FFC
1080
27F8
2100
7FFE
A220
2490
2C98
32A6
2180
22A0
2490
2888
ENDCHAR

STARTCHAR B4F7
ENCODING 46327
SWIDTH 960 0
DWIDTH 16 0
BBX 16 16 0 -4
BITMAP
0000
0850
7F48
0840
FFFE
0040
7F48
4948
7F50
4950
7F20
2220
7E60
2290
FF12
220A
ENDCHAR

STARTCHAR B4F8
ENCODING 46328
SWIDTH 960 0
DWIDTH 16 0
BBX 16 16 0 -4
BITMAP
0000
0920
0920
7FFC
0920
0920
7FFC
4104
4104
1FF0
1110
1110
1110
1110
1150
1120
ENDCHAR

STARTCHAR B4F9
ENCODING 46329
SWIDTH 960 0
DWIDTH 16 0
BBX 16 16 0 -4
BITMAP
0000
0020
FE20
2040
2040
3C88
2504
25FC
4400
A5F8
1508
0908
0908
1108
2108
41F8
ENDCHAR

STARTCHAR B4FA
ENCODING 46330
SWIDTH 960 0
DWIDTH 16 0
BBX 16 16 0 -4
BITMAP
0000
0880
0890
0888
0880
1080
10FE
3780
5040
9040
1040
1020
1020
1012
1012
100A
ENDCHAR

STARTCHAR B4FB
ENCODING 46331
SWIDTH 960 0
DWIDTH 16 0
BBX 16 16 0 -4
BITMAP
0000
0890
0880
10BC
3FC0
5042
9032
000E
1FF0
1010
1110
1110
1110
1110
02C0
0C20
ENDCHAR

STARTCHAR B4FC
ENCODING 46332
SWIDTH 960 0
DWIDTH 16 0
BBX 16 16 0 -4
BITMAP
0000
08A0
0880
10F8
3780
D040
1024
121C
1100
FFFE
0A00
0910
18A0
2840
C820
0A1E
ENDCHAR

STARTCHAR B4FD
ENCODING 46333
SWIDTH 960 0
DWIDTH 16 0
BBX 16 16 0 -4
BITMAP
0000
0840
0840
13FC
2040
4840
0840
17FE
3010
5010
97FC
1010
1110
1090
1010
1050
ENDCHAR

STARTCHAR B4FE
ENCODING 46334
SWIDTH 960 0
DWIDTH 16 0
BBX 16 16 0 -4
BITMAP
0000
0080
4080
27F0
2090
0FFC
0090
E7F0
2080
2490
22A0
2490
2888
2280
5100
8FFC
ENDCHAR

STARTCHAR B5A1
ENCODING 46497
SWIDTH 960 0
DWIDTH 16 0
BBX 16 16 0 -4
BITMAP
0000
0200
0420
0810
3FF8
0000
1FF0
1010
1010
1FF0
0200
0900
2910
2828
4824
87E0
ENDCHAR

STARTCHAR B5A2
ENCODING 46498
SWIDTH 960 0
DWIDTH 16 0
BBX 16 16 0 -4
BITMAP
0000
0040
FC40
4840
4BFC
7A44
4A44
4860
4860
78A0
48A0
48A0
4D20
F922
0A22
0C1E
ENDCHAR

STARTCHAR B5A3
ENCODING 46499
SWIDTH 960 0
DWIDTH 16 0
BBX 16 16 0 -4
BITMAP
0000
1000
1000
13F8
1208
FE08
1208
13F8
1E08
3208
D208
13F8
1000
1000
1FFE
5000
ENDCHAR

STARTCHAR B5A4
ENCODING 46500
SWIDTH 960 0
DWIDTH 16 0
BBX 16 16 0 -4
BITMAP
0000
0000
1FF0
1010
1210
1110
1110
1010
FFFE
1010
1010
1010
1010
1010
1010
2050
ENDCHAR

STARTCHAR B5A5
ENCODING 46501
SWIDTH 960 0
DWIDTH 16 0
BBX 16 16 0 -4
BITMAP
0000
1010
0820
0440
3FF8
2108
2108
3FF8
2108
2108
3FF8
0100
0100
FFFE
0100
0100
ENDCHAR

STARTCHAR B5A6
ENCODING 46502
SWIDTH 960 0
DWIDTH 16 0
BBX 16 16 0 -4
BITMAP
0000
4100
227C
1444
7F48
4948
4950
7F50
4948
4944
7F44
0844
FFE4
0858
0840
0840
ENDCHAR

STARTCHAR B5A7
ENCODING 46503
SWIDTH 960 0
DWIDTH 16 0
BBX 16 16 0 -4
BITMAP
0000
1208
1110
10A0
13F8
FA48
1248
13F8
1A48
3248
D3F8
1040
1040
1FFE
1040
5040
ENDCHAR

STARTCHAR B5A8
ENCODING 46504
SWIDTH 960 0
DWIDTH 16 0
BBX 16 16 0 -4
BITMAP
0000
0000
3C00
24FC
2484
2484
3C84
24FC
2484
2484
3C84
24FC
2400
2400
25FE
5400
ENDCHAR

STARTCHAR B5A9
ENCODING 46505
SWIDTH 960 0
DWIDTH 16 0
BBX 16 16 0 -4
BITMAP
0000
0000
1FF0
1010
1010
1010
1010
1FF0
1010
1010
1010
1010
1FF0
0000
0000
FFFE
ENDCHAR

STARTCHAR B5AA
ENCODING 46506
SWIDTH 960 0
DWIDTH 16 0
BBX 16 16 0 -4
BITMAP
0000
1000
1FFC
1000
3FF8
4000
BFF0
1250
0A90
0510
38F0
0210
1250
0A10
0592
084A
ENDCHAR

STARTCHAR B5AB
ENCODING 46507
SWIDTH 960 0
DWIDTH 16 0
BBX 16 16 0 -4
BITMAP
0000
1000
1000
17F8
1408
2408
2408
27F8
6408
A408
2408
27F8
2000
2000
2FFC
2000
ENDCHAR

STARTCHAR B5AC
ENCODING 46508
SWIDTH 960 0
DWIDTH 16 0
BBX 16 16 0 -4
BITMAP
0000
1208
1110
10A0
13F8
5A48
5648
53F8
5248
9248
13F8
1040
1FFE
1040
1040
1040
ENDCHAR

STARTCHAR B5AD
ENCODING 46509
SWIDTH 960 0
DWIDTH 16 0
BBX 16 16 0 -4
BITMAP
0000
4040
2044
1248
0150
8040
40A0
2110
0A4C
1040
2248
E150
20A0
2090
2110
2208
ENDCHAR

STARTCHAR B5AE
ENCODING 46510
SWIDTH 960 0
DWIDTH 16 0
BBX 16 16 0 -4
BITMAP
0000
0000
400C
2F70
2110
0210
0410
EF5C
2150
2950
2550
2250
2A7C
3300
2480
287E
ENDCHAR

STARTCHAR B5AF
ENCODING 46511
SWIDTH 960 0
DWIDTH 16 0
BBX 16 16 0 -4
BITMAP
0000
0208
7910
08A0
0BF8
0A48
7A48
43F8
4248
4248
7BF8
0840
0FFE
0840
0840
5040
ENDCHAR

STARTCHAR B5B0
ENCODING 46512
SWIDTH 960 0
DWIDTH 16 0
BBX 16 16 0 -4
BITMAP
0000
7FFC
0108
0900
09F0
0900
1500
23FE
4100
1FF0
1110
1110
1FF0
0100
0108
7FFC
ENDCHAR

STARTCHAR B5B1
ENCODING 46513
SWIDTH 960 0
DWIDTH 16 0
BBX 16 16 0 -4
BITMAP
0000
0100
2108
1110
0920
0100
7FF8
0008
0008
0008
3FF8
0008
0008
0008
7FF8
0000
ENDCHAR

STARTCHAR B5B2
ENCODING 46514
SWIDTH 960 0
DWIDTH 16 0
BBX 16 16 0 -4
BITMAP
0000
1040
1040
1244
1148
FC50
1040
13FC
1804
3004
D004
13FC
1004
1004
1004
53FC
ENDCHAR

STARTCHAR B5B3
ENCODING 46515
SWIDTH 960 0
DWIDTH 16 0
BBX 16 16 0 -4
BITMAP
0000
0100
1110
0920
0540
7FFC
4004
4FE4
0820
0820
0820
0FE0
0440
0440
0444
0844
ENDCHAR

STARTCHAR B5B4
ENCODING 46516
SWIDTH 960 0
DWIDTH 16 0
BBX 16 16 0 -4
BITMAP
0000
0820
0820
7FFC
0820
47F0
2020
10C0
8100
43FC
0924
1124
E244
2244
2484
2928
ENDCHAR

STARTCHAR B5B5
ENCODING 46517
SWIDTH 960 0
DWIDTH 16 0
BBX 16 16 0 -4
BITMAP
0000
1040
1040
1244
1148
FC50
1040
33FC
3804
5404
5004
93FC
1004
1004
1004
13FC
ENDCHAR

STARTCHAR B5B6
ENCODING 46518
SWIDTH 960 0
DWIDTH 16 0
BBX 16 16 0 -4
BITMAP
0000
0000
0000
3FF8
0208
0208
0208
0208
0208
0208
0408
0408
0808
0808
1088
2050
ENDCHAR

STARTCHAR B5B7
ENCODING 46519
SWIDTH 960 0
DWIDTH 16 0
BBX 16 16 0 -4
BITMAP
0000
1040
1080
11F8
1108
FD48
1108
1128
1D10
3100
D1FE
1082
1492
1492
17F2
500A
ENDCHAR

STARTCHAR B5B8
ENCODING 46520
SWIDTH 960 0
DWIDTH 16 0
BBX 16 16 0 -4
BITMAP
0000
001C
7BE0
4848
4A48
4948
4910
7840
139C
1204
5A04
539C
5204
5204
7A04
C3FC
ENDCHAR

STARTCHAR B5B9
ENCODING 46521
SWIDTH 960 0
DWIDTH 16 0
BBX 16 16 0 -4
BITMAP
0000
1004
1004
1FE4
1204
2294
2454
6FD4
A114
2114
27D4
2114
2114
21C4
2F04
2014
ENDCHAR

STARTCHAR B5BA
ENCODING 46522
SWIDTH 960 0
DWIDTH 16 0
BBX 16 16 0 -4
BITMAP
0000
0100
0200
0FE0
0820
0A20
0920
0860
0800
0FFC
0004
0204
2224
2224
3FE4
0014
ENDCHAR

STARTCHAR B5BB
ENCODING 46523
SWIDTH 960 0
DWIDTH 16 0
BBX 16 16 0 -4
BITMAP
0000
2040
1040
17FC
0040
FBF8
1040
17FE
3888
5488
9108
13FE
1488
1848
1008
1028
ENDCHAR

STARTCHAR B5BC
ENCODING 46524
SWIDTH 960 0
DWIDTH 16 0
BBX 16 16 0 -4
BITMAP
0000
0000
3FF0
2010
2010
3FF0
2004
2004
1FFC
0020
0020
FFFE
0020
0820
0420
00A0
ENDCHAR

STARTCHAR B5BD
ENCODING 46525
SWIDTH 960 0
DWIDTH 16 0
BBX 16 16 0 -4
BITMAP
0000
0004
7F84
0804
1024
2224
4124
7FA4
08A4
0824
7F24
0824
0804
0804
0F84
7814
ENDCHAR

STARTCHAR B5BE
ENCODING 46526
SWIDTH 960 0
DWIDTH 16 0
BBX 16 16 0 -4
BITMAP
0000
0C1C
F3E0
1048
1248
1148
FD10
3040
3B9C
5604
5204
939C
1204
1204
1204
13FC
ENDCHAR

STARTCHAR B5BF
ENCODING 46527
SWIDTH 960 0
DWIDTH 16 0
BBX 16 16 0 -4
BITMAP
0000
1040
107C
1040
1040
5BF8
5608
53F8
9208
13F8
1040
1040
1FFE
1040
1040
1040
ENDCHAR

STARTCHAR B5C0
ENCODING 46528
SWIDTH 960 0
DWIDTH 16 0
BBX 16 16 0 -4
BITMAP
0000
0210
4120
2FFE
1040
03F8
0208
F3F8
1208
1208
13F8
1208
1208
13F8
2800
47FE
ENDCHAR

STARTCHAR B5C1
ENCODING 46529
SWIDTH 960 0
DWIDTH 16 0
BBX 16 16 0 -4
BITMAP
0000
0100
4100
23FC
1248
0440
10A0
2110
C60E
4000
1FF0
1290
1290
1290
1290
FFFE
ENDCHAR

STARTCHAR B5C2
ENCODING 46530
SWIDTH 960 0
DWIDTH 16 0
BBX 16 16 0 -4
BITMAP
0000
1040
1040
27FC
2040
43F8
92A8
12A8
23F8
6000
A7FC
2040
2520
2524
250A
28FA
ENDCHAR

STARTCHAR B5C3
ENCODING 46531
SWIDTH 960 0
DWIDTH 16 0
BBX 16 16 0 -4
BITMAP
0000
0800
0BF8
1208
13F8
2208
4BF8
1000
37FC
5010
9010
1FFE
1010
1210
1110
1050
ENDCHAR

STARTCHAR B5C4
ENCODING 46532
SWIDTH 960 0
DWIDTH 16 0
BBX 16 16 0 -4
BITMAP
0000
1040
1040
2040
7EFC
4284
4304
4244
4224
7E24
4204
4204
4204
4204
7E04
0028
ENDCHAR

STARTCHAR B5C5
ENCODING 46533
SWIDTH 960 0
DWIDTH 16 0
BBX 16 16 0 -4
BITMAP
0000
0020
7BA8
48B0
4AA4
4918
4910
7BF8
1406
53F8
5A08
5208
53F8
5D10
E0A0
0FFE
ENDCHAR

STARTCHAR B5C6
ENCODING 46534
SWIDTH 960 0
DWIDTH 16 0
BBX 16 16 0 -4
BITMAP
0000
1000
1000
17FE
1020
5220
5420
5820
9020
1020
1020
1020
2820
2420
4020
80A0
ENDCHAR

STARTCHAR B5C7
ENCODING 46535
SWIDTH 960 0
DWIDTH 16 0
BBX 16 16 0 -4
BITMAP
0000
0080
3E90
02A0
12C8
0A50
0420
0810
3FE8
C006
0FE0
0820
0820
0FE0
0820
0440
ENDCHAR

STARTCHAR B5C8
ENCODING 46536
SWIDTH 960 0
DWIDTH 16 0
BBX 16 16 0 -4
BITMAP
0000
1040
1040
3EFC
5120
8910
3FF8
0100
0100
FFFE
0020
0020
3FF8
0820
0420
00A0
ENDCHAR

STARTCHAR B5C9
ENCODING 46537
SWIDTH 960 0
DWIDTH 16 0
BBX 16 16 0 -4
BITMAP
0000
0020
7BA8
48B0
4AA4
4918
7910
4BF8
4C06
4BF8
7A08
4A08
4BF8
4910
78A0
07FE
ENDCHAR

STARTCHAR B5CA
ENCODING 46538
SWIDTH 960 0
DWIDTH 16 0
BBX 16 16 0 -4
BITMAP
0000
3E90
12A0
0C48
0FF0
1010
2FE8
C826
0FE0
0440
3FF8
0000
07C0
0440
0444
0844
ENDCHAR

STARTCHAR B5CB
ENCODING 46539
SWIDTH 960 0
DWIDTH 16 0
BBX 16 16 0 -4
BITMAP
0000
0000
FEFC
0284
4288
2488
2490
18A0
0898
1484
1484
2484
22C4
42A8
8090
0080
ENDCHAR

STARTCHAR B5CC
ENCODING 46540
SWIDTH 960 0
DWIDTH 16 0
BBX 16 16 0 -4
BITMAP
0000
23F8
2208
2208
23F8
FA08
2208
23F8
2000
2FFE
2040
3A40
E278
0240
0540
08FE
ENDCHAR

STARTCHAR B5CD
ENCODING 46541
SWIDTH 960 0
DWIDTH 16 0
BBX 16 16 0 -4
BITMAP
0000
1000
103C
27C0
2440
2440
6440
6440
A7FE
2420
2420
2420
2490
2512
264A
242A
ENDCHAR

STARTCHAR B5CE
ENCODING 46542
SWIDTH 960 0
DWIDTH 16 0
BBX 16 16 0 -4
BITMAP
0000
0080
4040
2FFE
2208
0110
87FC
4444
4DF4
1444
25F4
E514
2514
25F4
2404
2414
ENDCHAR

STARTCHAR B5CF
ENCODING 46543
SWIDTH 960 0
DWIDTH 16 0
BBX 16 16 0 -4
BITMAP
0000
0080
4080
2080
2FF8
0888
0888
E888
2FF8
2888
2888
2888
2FF8
2000
5000
8FFE
ENDCHAR

ENDFONT
